/* XPM */
static char *_3392_0e5ba6c4322f3449e5ae74a6ac21b63659f72081c3a0c06c41cb743370ae5b9a[] = {
/* columns rows colors chars-per-pixel */
"80 80 208 2 ",
"   c #041726",
".  c #051927",
"X  c #091926",
"o  c #02172B",
"O  c #051A2D",
"+  c #091B2C",
"@  c #091727",
"#  c #041C32",
"$  c #091D32",
"%  c #031E39",
"&  c #081A34",
"*  c #0C202F",
"=  c #06202F",
"-  c #11212E",
";  c #062036",
":  c #0C2133",
">  c #05213A",
",  c #0A233A",
"<  c #0F283D",
"1  c #132434",
"2  c #1A2532",
"3  c #1A2935",
"4  c #12263A",
"5  c #152A3C",
"6  c #1A2C3C",
"7  c #172937",
"8  c #1D303E",
"9  c #222F3A",
"0  c #24323D",
"q  c #0B2944",
"w  c #142D44",
"e  c #1B2E40",
"r  c #1C3347",
"t  c #223243",
"y  c #2A3642",
"u  c #2A3A46",
"i  c #223649",
"p  c #24394D",
"a  c #2C3D4C",
"s  c #313D46",
"d  c #353F49",
"f  c #383F45",
"g  c #2E3F51",
"h  c #273E50",
"j  c #2D404F",
"k  c #34424D",
"l  c #3D474E",
"z  c #2D4152",
"x  c #334453",
"c  c #3D4954",
"v  c #3D4C5C",
"b  c #3A4757",
"n  c #3F505A",
"m  c #434F59",
"M  c #454C55",
"N  c #43515D",
"B  c #4B545D",
"V  c #455463",
"C  c #4B5663",
"Z  c #4B5964",
"A  c #4C5C6B",
"S  c #43566A",
"D  c #545C64",
"F  c #525D6A",
"G  c #4A5E70",
"H  c #475C71",
"J  c #56636E",
"K  c #5D646A",
"L  c #4F6070",
"P  c #526273",
"I  c #5B6572",
"U  c #5C6973",
"Y  c #5E6D7B",
"T  c #5E707C",
"R  c #636E75",
"E  c #636E7A",
"W  c #686F77",
"Q  c #63717D",
"!  c #6A747C",
"~  c #6B7275",
"^  c #717276",
"/  c #72797C",
"(  c #777A7E",
")  c #62656C",
"_  c #637381",
"`  c #737C84",
"'  c #7B7D83",
"]  c #707C8A",
"[  c #7C8185",
"{  c #76818A",
"}  c #7C858B",
"|  c #7F898E",
" . c #778087",
".. c #7C8690",
"X. c #7E8A94",
"o. c #7E8C99",
"O. c #81868B",
"+. c #83898D",
"@. c #888889",
"#. c #838C95",
"$. c #8A8E93",
"%. c #838E99",
"&. c #8C9195",
"*. c #84919C",
"=. c #8A959C",
"-. c #879097",
";. c #949496",
":. c #94979B",
">. c #949A9D",
",. c #9B9B9C",
"<. c #999795",
"1. c #938A8B",
"2. c #A19B9B",
"3. c #8B97A1",
"4. c #8794A2",
"5. c #939CA4",
"6. c #9A9FA3",
"7. c #9EA1A5",
"8. c #9BA2AA",
"9. c #98A4A9",
"0. c #9CA6B1",
"q. c #9DA9B2",
"w. c #A4A5A6",
"e. c #ADAAA7",
"r. c #A3A6AC",
"t. c #A5A9AD",
"y. c #ABABAB",
"u. c #A9A7A7",
"i. c #B1ADAB",
"p. c #B3B1AE",
"a. c #B8B1AB",
"s. c #A4ABB2",
"d. c #ABAEB1",
"f. c #B1AFB2",
"g. c #A7B1B5",
"h. c #ADB1B3",
"j. c #ADB4BB",
"k. c #ADB8BE",
"l. c #B2B2B2",
"z. c #B9B5B3",
"x. c #B5B5BA",
"c. c #B6B9BC",
"v. c #BCBCBC",
"b. c #B6B8B7",
"n. c #C0BEBB",
"m. c #C2C1BE",
"M. c #C8C0BE",
"N. c #AEBBC1",
"B. c #B5BDC2",
"V. c #BBBEC1",
"C. c #B5BFC8",
"Z. c #C1BFC0",
"A. c #BDC2C5",
"S. c #BDC4CA",
"D. c #C2C2C2",
"F. c #C9C6C4",
"G. c #CBC9C6",
"H. c #C3C6CA",
"J. c #C4CACD",
"K. c #CBCCCC",
"L. c #C6C8C6",
"P. c #D1CCCA",
"I. c #D3D2CE",
"U. c #C5CDD4",
"Y. c #CBCED1",
"T. c #D1CFD1",
"R. c #CCD1D4",
"E. c #CCD4DD",
"W. c #D3D3D3",
"Q. c #D9D6D4",
"!. c #D4D9D6",
"~. c #DBD8D5",
"^. c #D2D6D9",
"/. c #D4DADC",
"(. c #DCDCDC",
"). c #E1DEDB",
"_. c #E3DAD3",
"`. c #DEE0DD",
"'. c #E1E1DE",
"]. c #DCDEE2",
"[. c #D4DBE1",
"{. c #E0DFE5",
"}. c #DEE1E4",
"|. c #DCE3EA",
" X c #D6E0EA",
".X c #E5E5E5",
"XX c #E9E7E5",
"oX c #E6E8E7",
"OX c #ECEAE6",
"+X c #E5E6EA",
"@X c #E9E7E9",
"#X c #E5E9EC",
"$X c #ECECEC",
"%X c #F1EDEA",
"&X c #F3F1EE",
"*X c #EBEEF3",
"=X c #E4EDF2",
"-X c #F3EFF0",
";X c #EDF2F4",
":X c #EFF6F9",
">X c #E4F1FA",
",X c #F3F3F3",
"<X c #F8F4F2",
"1X c #FDFAF6",
"2X c #F2F5FA",
"3X c #F5FBFE",
"4X c #FFFFFF",
"5X c #FBF7F8",
/* pixels */
"4XW.D.D.D.D.m.D.D.D.D.D.D.D.D.D.D.(.4X4X4X@XL.v.D.D.D.D.D.D.D.D.D.D.D.D.D.D.D.D.D.D.D.D.D.D.D.D.D.D.D.D.D.D.D.D.v.D.@X4X4X4X.XD.m.A.m.D.D.D.D.D.D.D.D.D.m.D.W.5X",
"W.y.l.l.l.l.l.h.p.l.l.l.l.l.f.l.l.y.}.4X5Xb.y.f.l.l.p.h.l.l.l.p.y.h.l.l.y.l.y.l.l.l.y.l.y.l.l.l.y.l.y.l.l.l.y.l.l.l.l.$X4X@Xl.y.l.l.l.l.l.i.l.l.l.i.l.l.l.l.y.K.",
"D.y.~.+X@XoX@X.X.X.X@X.X@X.X.XoXT.y.K.4X`.f.F..XoX.XoXoX.X@X@X.XoX.X.X.X.X.X+XXX.X.X.X.X@X.X.X.X.X.X+XXX.X.X.X.XoXL.y.^.4XT.u.R..X@X@X.X+X.X@XoX@X.X+X.XoX(.l.D.",
"D.l.$X4X4X4X4X4X4X4X4X4X4X4X4X4X.Xu.K.4X(.y.K.4X4X4X4X4X4X4X4X4X4X4X4X4X4X4X4X4X4X4X4X4X4X4X4X4X4X4X4X4X4X4X4X4X4XW.u.~.4XP.u.(.4X4X4X4X4X4X4X4X4X4X4X4X4X2Xl.D.",
"D.l.oX4X4X4X4X4X4X4X4X4X4X4X4X4X.Xw.T.4X.Xy.L.4X4X4X4X4X4X4X4X4X4X4X4X4X4X4X4X4X4X4X4X4X4X4X4X4X4X4X4X4X4X4X4X4X4XW.u./.4XR.u.W.4X4X4X4X4X4X4X4X4X4X4X4X4X-Xl.D.",
"D.l..X4X4X4X4X4X4X4X4X4X4X4X4X4X].y.T.4X].y.K.4X4X4X4X4X4X4X4X4X4X4X4X4X4X4X4X4X4X4X4X4X4X4X4X4X4X4X4X4X4X4X4X4X4XK.y.~.4XW.u.~.4X4X4X4X4X4X4X4X4X4X4X4X4X$Xl.D.",
"b.u..X4X4X4X4X4X4X4X4X4X4X4X4X4X).u.K.4X.Xu.K.4X4X4X4X4X4X4X4X4X4X4X4X4X4X4X4X4X4X4X4X4X4X4X4X4X4X4X4X4X4X4X4X4X4XK.y.^.4XY.y.^.4X4X4X4X4X4X4X4X4X4X4X4X4X$Xl.D.",
"~.V.2X4X4X4X4X4X4X4X4X4X4X4X4X4X(.w.W.4X.Xy.L.4X4X4X4X4X4X4X4X4X4X4X4X4X4X4X4X4X4X4X4X4X4X4X4X4X4X4X4X4X4X4X4X4X4XT.y.~.4XW.y.~.4X4X4X4X4X4X4X4X4X4X4X4X4X$Xl.D.",
"4X4X4X4X4X4X4X4X4X4X4X4X4X4X4X4X`.u.W.4X.Xu.G.4X4X4X4X4X4X4X4X4X4X4X4X4X4X4X4X4X4X4X4X4X4X4X4X4X4X4X4X4X4X4X4X4X4XW.u.(.4XR.u.~.4X4X4X4X4X4X4X4X4X4X4X4X4X$Xx.m.",
"4X4X4X4X4X4X4X4X4X4X4X4X4X4X4X4X}.u.K.4X.Xy.G.4X4X4X4X4X4X4X4X4X4X4X4X4X4X4X4X4X4X4X4X4X4X4X4X4X4X4X4X4X4X4X4X4X4XK.t.(.4XW.y.W.4X4X4X4X4X4X4X4X4X4X4X4X4X$Xl.D.",
"4X4X4X4X4X4X4X4X4X4X4X4X4X4X4X4X(.y.R.4X}.y.G.4X4X4X4X4X4X4X4X4X4X4X4X4X4X4X4X4X4X4X4X4X4X4X4X4X4X4X4X4X4X4X4X4X4XW.u.~.4XW.y.W.4X4X4X4X4X4X4X4X4X4X4X4X4X$Xl.D.",
"Q.D.,X4X4X4X4X4X4X4X4X4X4X4X4X4X(.u.P.4X'.u.K.4X4X4X4X4X4X4X4X4X4X4X4X4X4X4X4X4X4X4X4X4X4X4X4X4X4X4X4X4X4X4X4X4X4XK.u.(.4XR.y.~.4X4X4X4X4X4X4X4X4X4X4X4X4X$Xl.D.",
"v.w..X4X4X5X4X4X4X4X4X4X4X4X4X4X(.u.W.4X.Xy.G.4X4X4X4X4X4X4X4X4X4X4X4X4X4X4X4X4X4X4X4X4X4X4X4X4X4X4X4X4X4X4X4X4X4XY.y./.4XY.y.Q.4X4X4X4X4X4X4X4X4X4X4X4X4X$Xl.D.",
"D.l.+X4X4X4X4X4X4X4X4X4X4X4X4X4X}.u.W.4X].d.L.4X4X4X4X4X4X4X4X4X4X4X4X4X4X4X4X4X4X4X4X4X4X4X4X4X4X4X4X4X4X4X4X4X4XW.u.~.4XW.u.W.4X4X4X4X4X4X4X4X4X4X4X4X4X$Xl.D.",
"D.l..X4X4X4X4X4X4X4X4X4X4X4X4X4X(.u.W.4X).y.K.4X4X4X4X4X4X4X4X4X4X4X4X4X4X4X4X4X4X4X4X4X4X4X4X4X4X4X4X4X4X4X4X4X4XW.u.(.4XT.y.~.4X4X4X4X4X4X4X4X4X4X4X4X4X&Xl.D.",
"D.l.$X4X4X4X4X4X4X4X4X4X4X4X4X4X.Xu.K.4X].y.G.4X4X4X4X4X4X4X4X4X4X4X4X4X4X4X4X4X4X4X4X4X4X4X4X4X4X4X4X4X4X4X4X4X4XW.y.W.4XW.t.(.4X4X4X4X4X4X4X4X4X4X4X4X4X2Xl.D.",
"v.l.W.@XoX@XoXoXoXoX@X+X+XoXoXoXW.y.R.1X`.p.D.+X.X+XoX.X.XoX.X.XXXoXoX+X@XoX.X@XoX.XOX.XoXXXoXoXXX+XoX+X$X4X4X3X4X(.D.,X4X}.t.K.+X.XXX.XoX+X+XoXXX.X@XoXXX(.l.D.",
"W.y.l.l.y.l.l.l.p.p.p.l.p.y.h.h.p.y.(.4X,Xl.x.l.p.f.l.l.l.l.l.l.l.l.l.l.y.l.l.y.f.x.d.l.l.d.l.p.l.l.p.l.p.,.<.,.,.,.,.H.(.W.n.a.p.p.i.x.h.p.p.l.l.l.h.p.l.l.y.K.",
"4XW.D.D.D.D.D.D.A.A.L.D.F.F.F.D.F.(.4X4X4X+XD.m.D.D.D.D.D.D.D.D.D.D.v.D.D.F.D.D.m.D.D.A.D.D.m.m.D.A.D.(.:.+ O . O # # # $ P 3XH.m.A.D.m.F.m.m.m.D.D.D.D.v.D.K.3X",
"4X4X4X4X4X4X4X4X4X4X4X4X4X4X4X4X4X4X4X1X4X4X4X4X4X4X4X4X4X4X4X4X4X4X4X4X4X4X4X4X4X4X4X4X4X4X4X4X4X4X4X4XB.% % & + # # O # V 4X4X4X4X4X4X4X4X4X4X4X4X4X4X4X4X4X4X",
"4X$X(.(..X}.'..XOX} P Z A L A A A J 5.OX/.~.'.]..X(.(..X(..X(..X(.(.].).(.$X4X4X1X4X$X&X4X(.(.(.'.].(.%Xh.$ # . . # O o & v $X).(.'.(.].~.$X4X}.(..X(..X(.(.@X4X",
"@Xl.y.u.u.u.u.K.' ; O ; % ; # # O % X t.v.y.y.y.y.y.y.y.u.y.u.y.y.y.y.y.t.l.(.4X4X(.W.&.( R.f.y.e.d.G.3X-.# # . + . O O + s .X(.Z.e.i.y.K.u./ J.l.t.y.u.y.y.i.(.",
"D.l.G.R.K.K.W.@X` , 7 O.-.} +.&.} % O D.~.Y.K.K.K.K.K.K.K.T.K.K.R.G.W.K.K.l.v.1X4X.Xj.1 + } 4X/.<X@Xw.K 9 + . O O O = o * + b { J.3X(.'.[.0 + ! 4XW.Y.K.P.H.l.D.",
"v.l.@X4X4X4X4X4Xt.; k 4X4X4X1X4X4X# O 4X4X4X4X4X4X4X4X4X4X4X4X4X4X4X4X4X,Xb.b.5X4XA.1 % # $ s.4Xk.J O , O # # O & . o # o # ; + t +.4X4Xx # % & &.4X4X4X4X,Xl.D.",
"D.l.oX4X4X4X4X4Xq.# h 4X1X4X4X4X,X: O o.*.*.%.4.4.].4X4X4X4X1X4X4X4X1X4X*Xx.z.4X>X6 * O O o * x & # & O O # O + % . O O O O # X # + p i # O # . & 4.4X4X4X,Xl.D.",
"D.l..X4X4X4X4X4Xt.  a 4X4X4X4X4X,X5 % . O . + . # O C.4X4X3X3X4X4X4X4X4X$Xy..X.Xj O O # # O O # # O . # O O # . O y u & O O ; o O O & O O O O o O . *.4X4X%Xl.D.",
"D.l.@X4X4X4X4X4Xr.O u 4X4X4X4X4X<X: O ..#.o.#.#.A O O =.4X4X1X4X4X4X4X4X&XF.k.w O O & O O O O # O O . + @ O o # . U.4X+XR.X.j o O # # O + . O O # O . *.4X,Xl.D.",
"D.l.oX4X4X4X4X4X0.+ z 4X4X4X4X4X4X. . 4X4X4X4X4X4X#.. O R 4X4X4X4X4X4X4X1X&XM ; O o O O o o + O O + O # . + # O O S.4X4X4X4X4XA.N . O # o X + # # O # X E.5Xl.D.",
"D.l.@X4X4X4X4X4X5.O e #.#.o.#.#.X.# o 2X4X4X4X4X4X4Xg.. # z Q Q E Q T _ U F 4 % O ; o + . & O O O # # o + . + O O Y.2X8.9.W.4X4X4X5.. O # O O O # . O C ;X5Xl.m.",
"D.i..X4X4X4X4X4XU.O O X O O = o o # : ,X4X1X4X4X4X4X4XR.y # O . + o O % $ $ : # # O ; O # # o # @ . % o O + O O + *X[.: 1 { 4X4X4X4XU.1 O O O O . . A 4X4XoXl.D.",
"D.l.+X4X4X4X4X4X4Xj.#.#.#.o.#.%.-.#.J.4X1X4X1X4X4X5X4X4X,Xs.0.0.r.r.r.8.5./ / 7.t.[ ^ :.s.t.d.t.s.Q . # O + . # . #X].+ : R 4X4X4X4X4X[.- O # O # n 3X4X4X$Xp.A.",
"D.l..X4X4X4X4X4X4X4X4X4X4X4X4X4X4X4X4X4X4X4X4X1X4X4X1X4X4X4X4X4X4X4X4X4X4XW.W.4X4X2X.X4X4X4X4X4X4X[.X O # . # o % K.4XV.B.!.4X4X4X4X4X4XU.O O O O u 4X4X4X&Xl.D.",
"D.l..X4X4X4X4X4X4X4X4X1X4X4X=._ Q Q _ _ _ R _ J.4X4X4X4X4X4X4X4X4X4X4X4X$Xx.W..XG k s N Z V C C S r + o O O O O . B.4X4X4X4XQ.U L B.4X4X4X3.o O O . X.4X4XOXl.m.",
"D.l.@X4X4X4X4X4X4X4X3X1X4Xx.  + O . O . + @ % 1 1X4X4X4X4X4X4X4X4X4X4X4X1X!.4X[ ; # : O O O % O O @ O & O O O O # Z.4X:X;X4XU.# o ` 4X4X4X4Xu o O # 4 3X4X$Xx.A.",
"m.l.oX4X4X4X4X4X4X4X4X4X3X5.O i *.#.o.-.%.X.# + ..#.#.#.#.#.#.#.%.#.#.$.} ) Q 1 X O % o O + O O O + O O O O O O # +X#X7 1 s.2X4 + s.5Xc.V.,XY.# X # + j.4X5Xn.L.",
"D.h.@X4X4X4X4X4X4X4X4X4X4Xr.# P 4X4X4X4X4X4X6 @ # % # % # # % # % % % # , , , % O & # # O # O . O O O O & O . O o ,X+Xo & I 4X4X4X3XA.o o =.4X6 X o + A 4X5Xb.Y.",
"n.l..X4X4X4X5X4X5X4X4X1X4Xw.# N 4X4X4X4X4X,X; # [ +.O.O.O.+.O.O.O.} | | ` K ) +.#.R ! 0 & # O @ O O + O O O O # ; W.%XF A 0.4X4X4X1Xq.< ,  .4XE % # # o j z t k ",
"G.h.D.D.D.G.D.D.D.L.L.D..X' , d W.L.D.m.W.b.O # +X4X<X2X<X2X2X<X&X&X4X4X4X2X4X4X4X1X4XD + O O # O O O O o O O O + $.XX'..X*X7.t i [ L.` ` ,.$XO.% # O O o # # + ",
",Xv.y.l.y.y.l.y.i.d.h.h./.^ > k K.l.f.p.F.w.O O u.D.l.f.i.d.h.i.z.D.) B M M D ! ! I m : O # o # O . O O O O O + & ' (.!.W.XX[ % > M &X4X5XW.K.;.X + o . . # O 1 ",
"4X4X,X$X,X,X-X,X,X,X,X;X1X5., V 4X4X4X4X4X4XO # .X2X&X,X$X,X,X,X,X3Xa ; > % ; O O & % O O . + @ O & # O O # O O ; K.+XN m t.Q.J L x./.B Z s.;XXX5 # # O + O O 4 ",
"4X4X4X1X4X4X4X1X4X4X4X4X4X>.: p -.=.=.=.=.o.= ; $X4X4X4X4X4X4X4X4X4XN # O X % # # # O O o & o # O O O O O O O O O %X#X, > Q 4X4X4X4Xs.r q ] 4X4Xi + + O # # O 4 ",
"5XD.b.b.b.b.b.c.c.x.b.c.~.[ : & % $ ; O : ; , + n.D.b.l.v.b.v.b.v.I.u , O O # O X . O # O O # . O O O O O O O + # u.c.; > #.XX` ( i.7.1 ; A $Xn.5 # o # o + . 1 ",
"Q.P..X+X@XXX.X+X.XQ.b.c.D.D.! k x a x A B M B 7.(.W.K.W.K.K.K.K.Y.P.b.g.h.p.y.F.h.- # O O + O O O O + O O O O # > #.G.D.|.@X@.> w W ).y.z.b./.6.# O O O . O . 5 ",
"v.^ #.5.:.:.:.5.>.Y.4X2X,X5X4X5XoXm.<X4X;Xv.W.3XoX.XoX.X.X.XoX.X|..X<X1X4X5X4X4XC.+ # # # . + O # O # O O O O O O -._.4X4X4X' * ; 9.4X4X4X5X1Xh.+ O O O # O # ; ",
"p > > ; % # # ; # 1 #X1X1X4X3X4X+Xn.1X*.q O + $ % > , > % , % % ; = + & , ; ; 5 + + . . # # O O O O O O O O O O & ;.L.6.B.k.y.&.y.$XR.i r 9.4X4.. # O O o + : # ",
"# O x V B V V V < # B.4X4X4X4X4X4XZ.c > # 6 7 e 6 7 5 6 6 7 6 5 w 8 6 w 5 7 1 O # # o + . # o O + O O O O O O O ; l.r.; ; m .X4X4X4Xs.o # ' 4Xz # O O u S.c.O.7.",
"O @ ].4X4X4X4X4XA . ].4X4X4X4X4X^.2 , 5 w.K.I.1X4X4X4X4X4X4X4X4X4X4X1X1X4X4X3X: o # O o O O O # O O O O O O O O * y.t.> ; J F.c V S.|.A A L.3XX O O O 5.4X4XI.~.",
"> X K.4X4X4X4X4XV + &.S.S.A.D.g.& , p .X4Xx.R.4X4X4X4X4X4X4X4X4X4X4X4X4X4X4X4XU @ O # # X + + o O # O O O O O o # ,.D.#.q.F.;.> o } 4X4X4X4XE . O O +  X4X%Xl.D.",
"* . J.4X4X4X4X4XC . O O + # o # ; x }.4X(.y.G.4X4X4X1X4X4X4X4X4X4X4X4X1X4X4X4XR.+ . O o O o O O @ . O # O O O O % +.(.4X4X1X| : X 5.4X4X4X^.@ & . O A 4X4X$Xl.m.",
"; O J.4X4X4X4X4XV # x N N V V V ~ T.oX4X.Xy.J.4X4X4X4X4X4X4X4X4X1X4X4X4X5X4X4X4XS O O # # # O O # & + O + O $ # O ,.P.T.&XR.u.D.=X2X4X1X4Xa # . # 1 R.4X4X%Xl.D.",
"> . W.4X4X4X4X4XC O E.4X3X4X1X4X4XG.$X4X4XL.~.4X4X4X4X4X4X4X4X4X4X4X4X4X4X4X4X4X4XY.Y.Y.J.Y.Y.Y.U.Y.K.Y.J.S.3 O % u.y.4 w R /.OX4X4X4X4XA O # . O A 4X4X1X,Xl.m.",
"* @ D.,X;X,X;X,Xn O S.4X1X4XW.A.r.' 6.A.t.[ m.1X4X4X4X4X1X4X4X4X4X4X4X4X4X4X4X4X4X4X4X4X4X4X4X4X4X4X4X4X4X4X6 O O l.w.> % v {.~.4X1X4XP # O o O O 4 9.4X4X@Xj.m.",
"# # # O O . # . O # c.1X1XT O + ; : ; ; & % 5 R.4X4X4X4X4X4X4X4Xs.x t 6 6 t u a a a a a j j a a g a a g g + & O & w.b.x S / D.+X4X*XN o O # & O O # # 9.4X$Xx.m.",
"U 4 O ; O + O O : L =X4X;X# # , & $ : : 1 # > 5.4X4X4X4X5X4X4X} # # o # # O % O # O O O O O O & o O O # O o O O ; #.W.$X4X<XY.#X8.t # # O O o + O # O O ^.4Xp.m.",
").t.(.,X2X<X;X,X,X4X4X4X2XO # ;X#X2.L.<XXX0 + c.4X4X4X4X4X3XE + @ *.}..X.X[.9.X O # # O O o # O . . . O o O O O # u.4X5X4Xn.~ 0 + O O O O O O # O # . z #X5Xl.A.",
"D.v.1X4X4X4X4X4X4X4X4X4X<XO # 4X4Xb.}.4X4Xy % -./././.(.R.k o > k.4X4X4X4X4X3Xs.$ O O . O . O O # # & O + o O # + C ! J V # % & # O O O O O O O O O v 4X4X*Xx.m.",
"D.l.$X4X4X4X4X4X4X4X4X4X5X# ; 4X5Xt.K.4X&X0 % O % # # # ; # 0 |.4X4X4X4X4X4X4X4Xs.& & + . # ; + ; O O # X # O O O # ; O # O O . O $ % O # O . . # c 4X4X4X<Xl.D.",
"D.l.K.^.W.W.~.W.I.Q.~.(.Y.O % K.~.l.R.4X1Xy % - 9 2 2 2 7 m R.,XW.W.W.W.W.W.W.W.4XO.* O # ; l j.B & ; & o # O . # . X & o # # ; & 0 &.&.& # o > y |.+XQ.W.R.x.n.",
".Xi.u.u.u.y.u.y.y.u.t.V.7.+ X p.I.m.4X4X4Xb % ( ].b.v.v.b.J.F.e.y.y.y.y.u.u.y.y.l.'.! ; % u K..X!.>.B 7 + # O # O # & o # & . s ` v._..X} : % e A.K.i.e.y.y.y.~.",
"4X.XW.W./.W.^.W.W.^./.'.K.+ X B.K.).2X2X,XV , 1.5X).'.(.{.(.W.W.~.W.W.W./.W.W.W.R.~.4X} J .X%XT.~.&X1X}. .: o o X O O # O k ^.&X3X'.W./.4X+.I W.2XW.W.W.W.W.(.4X",
"4X4X4X4X4X4X4X4X4X4X4X4X3X: ; : < 5 , # : ; > ,.4X4X4X4X4X4X4X4X4X4X4X4X4X4X4X4X4X4X4X4X4X4X4X4X4X4X4X4X/.+ O . O . O O X I 4X3X4X4X4X4X4X4X4X4X4X4X4X4X4X4X4X4X",
"4X~.D.H.K.G.K.G.G.L.G.P.(.V : O # # O # = O 5 g./.G.G.K.K.K.K.G.K.G.G.K.D.W.4X4X1X4X/.D.K.L.G.K.K.J.F..X>.. # % O + & . + k ].P.K.G.J.G.L.K.K.G.K.G.K.G.K.D./.4X",
"(.y.y.l.u.y.y.u.y.d.y.u.b.c.>.:.<.:.<.;.:.,.y.Z.u.y.y.u.y.y.u.y.u.d.u.y.f.y.K.4X4XW.y.l.u.y.y.y.i.y.u.W./ ; ; & % ; % % , 1 S.l.y.y.y.y.i.y.d.e.d.u.d.d.l.u.y.W.",
"v.l.W.`.(..X`.}.'.(.}.`.(.oX,X<X5X,X&X5X:X&X%X].`.].]..X).(..X(..X}..X(.Q.b.b.4X4Xv.x.I.(..X).(..X}.'.@XR.#.O.@.O.O.O.O.O.r.$X).{.}.).(..X(.'.].'.).].(.'.Q.l.V.",
"D.l.$X4X4X4X4X4X4X4X4X4X4X4X4X4X4X4X4X4X4X4X4X4X4X4X4X4X4X4X4X4X4X4X4X4X,Xl.c.1X4XD.f.@X4X4X4X4X4X4X4X4X4X4X4X4X4X4X4X4X4X4X4X4X4X4X4X4X4X4X4X4X4X4X4X4X4X2Xl.D.",
"D.l.@X4X4X4X4X4X4X4X4X4X4X4X4X4X4X4X4X4X4X4X4X4X4X4X4X4X4X4X4X4X4X4X4X4X<Xl.v.5X4XA.p.oX4X4X4X4X4X4X4X4X4X4X4X4X4X4X4X4X4X4X4X4X4X4X4X4X4X4X4X4X4X4X4X4X4X&Xl.D.",
"D.i.@X4X4X4X4X4X4X4X4X4X4X4X4X4X4X4X4X4X4X4X4X4X4X4X4X4X4X4X4X4X4X4X4X4X*Xl.m.4X4Xm.f.oX4X4X4X4X4X4X4X4X4X4X4X4X4X4X4X4X4X4X4X4X4X4X4X4X4X4X4X4X4X4X4X4X4X$Xl.D.",
"D.h..X4X4X4X4X4X4X4X4X4X4X4X4X4X4X4X4X4X4X4X4X4X4X4X4X4X4X4X4X4X4X4X4X4X$Xl.v.1X4XD.f.oX4X4X4X4X4X4X4X4X4X4X4X4X4X4X4X4X4X4X4X4X4X4X4X4X4X4X4X4X4X4X4X4X4X$Xl.D.",
"D.l..X4X4X4X4X4X4X4X4X4X4X4X4X4X4X4X4X4X4X4X4X4X4X4X4X4X4X4X4X4X4X4X4X4X$Xl.m.5X4XD.l..X4X4X4X4X4X4X4X4X4X4X4X4X4X4X4X4X4X4X4X4X4X4X4X4X4X4X4X4X4X4X4X4X4X$Xl.D.",
"D.l.@X4X4X4X4X4X4X4X4X4X4X4X4X4X4X4X4X4X4X4X4X4X4X4X4X4X4X4X4X4X4X4X4X4X$Xx.v.3X4XD.l..X4X4X4X4X4X4X4X4X4X4X4X4X4X4X4X4X4X4X4X4X4X4X4X4X4X4X4X4X4X4X4X4X4X$Xl.D.",
"D.p.@X4X4X4X4X4X4X4X4X4X4X4X4X4X4X4X4X4X4X4X4X4X4X4X4X4X4X4X4X4X4X4X4X4X$Xb.v.1X4XD.l..X4X4X4X4X4X4X4X4X4X4X4X4X4X4X4X4X4X4X4X4X4X4X4X4X4X4X4X4X4X4X4X4X4X$Xl.D.",
"D.h..X4X4X4X4X4X4X4X4X4X4X4X4X4X4X4X4X4X4X4X4X4X4X4X4X4X4X4X4X4X4X4X4X4X&Xl.v.5X4XD.y..X4X4X4X4X4X4X4X4X4X4X4X4X4X4X4X4X4X4X4X4X4X4X4X4X4X4X4X4X4X4X4X4X4X$Xl.D.",
"D.l..X4X4X4X4X4X4X4X4X4X4X4X4X4X4X4X4X4X4X4X4X4X4X4X4X4X4X4X4X4X4X4X4X4X$Xl.v.3X4XD.y..X4X4X4X4X4X4X4X4X4X4X4X4X4X4X4X4X4X4X4X4X4X4X4X4X4X4X4X4X4X4X4X4X4X$Xl.D.",
"D.l..X4X4X4X4X4X4X4X4X4X4X4X4X4X4X4X4X4X4X4X4X4X4X4X4X4X4X4X4X4X4X4X4X4X$Xb.v.5X4XD.l..X4X4X4X4X4X4X4X4X4X4X4X4X4X4X4X4X4X4X4X4X4X4X4X4X4X4X4X4X4X4X4X4X4X$Xl.D.",
"D.l.oX4X4X4X4X4X4X4X4X4X4X4X4X4X4X4X4X4X4X4X4X4X4X4X4X4X4X4X4X4X4X4X4X4X$Xb.v.4X4XD.l..X4X4X4X4X4X4X4X4X4X4X4X4X4X4X4X4X4X4X4X4X4X4X4X4X4X4X4X4X4X4X4X4X4X;Xl.D.",
"F.y.@X4X4X4X4X4X4X4X4X4X4X4X4X4X4X4X4X4X4X4X4X4X4X4X4X4X4X4X4X4X4X4X4X4X-Xl.v.5X4XD.l..X4X4X4X4X4X4X4X4X4X4X4X4X4X4X4X4X4X4X4X4X4X4X4X4X4X4X4X4X4X4X4X4X1X,Xl.D.",
"A.p.$X4X4X4X4X4X4X4X4X4X4X4X4X4X4X4X4X4X4X4X4X4X4X4X4X4X4X4X4X4X4X4X4X4X2Xl.b.3X4XD.l.@X4X4X4X4X4X4X4X4X4X4X4X4X4X4X4X4X4X4X4X4X4X4X4X4X4X4X4X4X4X4X4X4X4X,Xl.D.",
"m.l.(.$X$X$X#X4X4X4X4X2X$X$X$X;X$X$X$X$X$X$X$X$X$X$X$X$X$X$X$X$X%X,X*X$X'.b.b.1X4Xv.l.(.@X,X$X,X$X$X$X,X$X$X$X$X@X$X$X$X$X$X$X$X$X$X$X$X$X$X$X$X$X$X$X,X@X.Xl.A.",
"Y.d.l.l.l.l.y.G.4X4X5XD.u.l.l.l.l.l.l.l.l.l.l.l.l.l.l.l.l.l.l.l.l.l.l.l.l.i.L.4X4XT.y.l.l.l.l.l.l.l.l.l.l.l.l.l.l.l.l.l.l.l.l.l.l.l.l.l.l.l.l.l.l.l.l.l.l.x.u.G.",
"4XG.D.D.D.D.b.Q.4X4X4XK.v.D.D.D.D.D.D.D.v.D.D.D.D.D.D.D.D.D.D.D.D.D.D.D.Z.L.,X4X4X5XK.D.D.D.D.D.D.D.D.D.D.D.D.D.D.D.D.D.D.D.D.D.D.D.D.D.D.D.D.D.D.D.D.D.D.m.G.,X"
};
