/* XPM */
static char *_035_b73bf7da152c3058f59b2ee078c14a588edfaefd20c11ce7d518097906e7a219[] = {
/* columns rows colors chars-per-pixel */
"80 80 212 2 ",
"   c #031526",
".  c #041926",
"X  c #0A1926",
"o  c #02162B",
"O  c #08172B",
"+  c #041A2C",
"@  c #091B2C",
"#  c #091724",
"$  c #011632",
"%  c #041C32",
"&  c #0A1D32",
"*  c #031E39",
"=  c #101E2B",
"-  c #0C212E",
";  c #12212D",
":  c #052136",
">  c #0C2134",
",  c #05223A",
"<  c #0B233A",
"1  c #0E293E",
"2  c #132535",
"3  c #1A2734",
"4  c #12253B",
"5  c #142A3C",
"6  c #1B2C3B",
"7  c #1B2937",
"8  c #1D313F",
"9  c #22303B",
"0  c #2B363D",
"q  c #212F3A",
"w  c #082543",
"e  c #072442",
"r  c #192E42",
"t  c #132A42",
"y  c #1D3142",
"u  c #1B3547",
"i  c #223343",
"p  c #293645",
"a  c #253945",
"s  c #2B3946",
"d  c #23364C",
"f  c #253A4B",
"g  c #2B3B4B",
"h  c #303D4A",
"j  c #303A43",
"k  c #293D51",
"l  c #35414C",
"z  c #2E4152",
"x  c #334353",
"c  c #3A4652",
"v  c #3C4A55",
"b  c #37495A",
"n  c #3C4C5B",
"m  c #344559",
"M  c #3E505C",
"N  c #2F434C",
"B  c #3A4E60",
"V  c #3D5163",
"C  c #424E5A",
"Z  c #414852",
"A  c #44525C",
"S  c #4B575E",
"D  c #52565F",
"F  c #455564",
"G  c #495663",
"H  c #4B5A65",
"J  c #4D5C6A",
"K  c #46586C",
"L  c #515B63",
"P  c #535E6A",
"I  c #585F65",
"U  c #495E71",
"Y  c #54626D",
"T  c #5B646B",
"R  c #5A6265",
"E  c #546574",
"W  c #5A6672",
"Q  c #5D6874",
"!  c #5C6C7A",
"~  c #556677",
"^  c #5D717C",
"/  c #61696F",
"(  c #646B74",
")  c #626D7B",
"_  c #62727C",
"`  c #6C757D",
"'  c #6B7378",
"]  c #71767C",
"[  c #747A7F",
"{  c #76777A",
"}  c #637381",
"|  c #6A7582",
" . c #6D7983",
".. c #737B83",
"X. c #717C89",
"o. c #787C83",
"O. c #6C7F90",
"+. c #74818C",
"@. c #7B848D",
"#. c #788084",
"$. c #7B8691",
"%. c #7D8994",
"&. c #7E8A9A",
"*. c #848B8E",
"=. c #828789",
"-. c #838C94",
";. c #848E99",
":. c #8B8F95",
">. c #86929B",
",. c #8A949C",
"<. c #8E9497",
"1. c #93969B",
"2. c #949A9D",
"3. c #97989B",
"4. c #85918D",
"5. c #8E9AA4",
"6. c #8A95A1",
"7. c #939CA3",
"8. c #999EA3",
"9. c #939EA8",
"0. c #9094A0",
"q. c #9CA2A5",
"w. c #97A3AC",
"e. c #9BA3AB",
"r. c #9EA8B2",
"t. c #9EA6B3",
"y. c #A5A5A5",
"u. c #AAA6A4",
"i. c #ABAAA6",
"p. c #A2A6AB",
"a. c #A4A9AC",
"s. c #ACACAB",
"d. c #A8A7AC",
"f. c #B0AEAD",
"g. c #B1B1AF",
"h. c #A4ACB4",
"j. c #ACAEB2",
"k. c #A3ADB9",
"l. c #B1AFB0",
"z. c #AEB1B3",
"x. c #ACB4BA",
"c. c #A9B5BC",
"v. c #B2B2B2",
"b. c #BAB6B6",
"n. c #B7B8B4",
"m. c #B9B9B6",
"M. c #B4B6BA",
"N. c #B6BABC",
"B. c #BCBCBC",
"V. c #C1BEBE",
"C. c #C2C1BF",
"Z. c #C8C3BF",
"A. c #B3BCC4",
"S. c #BBBFC3",
"D. c #AFBAC0",
"F. c #C0BFC4",
"G. c #BCC1C4",
"H. c #BDC4CB",
"J. c #C2C2C2",
"K. c #CAC9C6",
"L. c #C4C6C9",
"P. c #C5CACC",
"I. c #CBCBCC",
"U. c #C9C6C5",
"Y. c #D1CECC",
"T. c #CED0CF",
"R. c #D1D1CE",
"E. c #C5CDD4",
"W. c #CBCED2",
"Q. c #D1CFD2",
"!. c #CDD1D4",
"~. c #CCD3DA",
"^. c #C6D0D9",
"/. c #D4D4D4",
"(. c #D9D6D5",
"). c #D5D9D7",
"_. c #D4D5D9",
"`. c #D9D7D9",
"'. c #D5DADD",
"]. c #DCDCDC",
"[. c #DCDAD6",
"{. c #E1DEDD",
"}. c #DEE0DE",
"|. c #E2E1DE",
" X c #D6DDE2",
".X c #DBDEE1",
"XX c #E1DEE2",
"oX c #DCE1E5",
"OX c #DDE4EA",
"+X c #DBE4E8",
"@X c #E5E5E5",
"#X c #E8E6E6",
"$X c #E6E8E5",
"%X c #EAE9E6",
"&X c #E5E6E9",
"*X c #E5E9EC",
"=X c #ECECEC",
"-X c #E9E7E9",
";X c #F0EBEB",
":X c #F1F1EE",
">X c #E6ECF1",
",X c #EDEEF1",
"<X c #E3E7F0",
"1X c #EEF2F4",
"2X c #F3F3F3",
"3X c #F9F6F2",
"4X c #FCFBF6",
"5X c #F4F6F9",
"6X c #F6FBFD",
"7X c #FEFEFE",
"8X c #F7F9F6",
"9X c #F0EFF4",
/* pixels */
"7X/.J.J.J.J.G.J.J.J.J.J.J.J.J.J.J.].7X7X7X-XK.B.J.J.J.J.J.J.J.J.J.C.J.J.J.J.J.J.J.J.C.C.J.C.J.C.J.J.J.J.J.J.J.J.B.J.#X7X7X7X@XJ.C.J.J.C.J.J.J.J.J.J.J.J.J.B./.4X",
"/.s.v.v.v.v.g.v.v.v.v.v.z.g.g.v.v.s.@X7X4Xv.s.v.n.j.s.v.v.v.l.v.l.j.s.v.l.l.j.v.z.v.z.j.v.v.v.j.v.f.j.v.f.v.v.v.v.z.v.=X7X-Xl.v.z.v.l.z.v.v.v.v.g.v.v.v.v.v.s.I.",
"J.s.`.@X-X#X-X@X@X#X@X-X#X-X@X@X/.d.I.7XoXj.J.#X@X-X-X&X#X@X@X@X$X$X#X$X$X$X@X@X$X|.#X&X@X@X@X-X$X$X#X@X@X@X&X@X@XU.s./.7XR.i.I.-X#X@X-X@X#X#X&X-X@X@X@X#X].v.J.",
"J.v.=X7X7X7X7X7X7X7X7X7X7X7X7X7X@Xi.I.7X].i.I.7X7X7X7X7X7X7X7X7X7X7X7X7X7X7X7X7X7X7X7X7X7X7X7X7X7X7X7X7X7X7X7X7X7X/.d.`.7XI.a.].7X7X7X7X7X7X7X7X7X7X7X7X7X8Xv.B.",
"J.v.#X7X7X7X7X7X7X7X7X7X7X7X7X7X|.y./.7X@Xs.K.7X7X7X7X7X7X7X7X7X7X7X7X7X7X7X7X7X7X7X7X7X7X7X7X7X7X7X7X7X7X7X7X7X7XT.d.`.7X/.d./.7X7X7X7X7X7X7X7X7X7X7X7X7X2Xv.J.",
"J.v.@X7X7X7X7X7X7X7X7X7X7X7X7X7X].s.T.7X.Xs.P.7X7X7X7X7X7X7X7X7X7X7X7X7X7X7X7X7X7X7X7X7X7X7X7X7X7X7X7X7X7X7X7X7X7XT.i.[.7X/.a.[.7X7X7X7X7X7X7X7X7X7X7X7X7X=Xv.J.",
"m.d.@X7X7X7X7X7X7X7X7X7X7X7X7X7X].d.I.7X@Xu.K.7X7X7X7X7X7X7X7X7X7X7X,XP.h.8.,.-.;.7.e.M.E.oX7X7X7X7X7X7X7X7X7X7X7XI.d.).7XT.u./.7X7X7X7X7X7X7X7X7X7X7X7X7X9Xv.J.",
"`.B.8X7X7X7X7X7X7X7X7X7X7X7X7X7X{.a./.7X@Xs.P.7X7X7X7X7X7X7X].2.Q x 2 + + + O % + > f 5 @ X f Y =.E.7X7X7X7X7X7X7X/.s.`.7X/.s.`.7X7X7X7X7X7X7X7X7X7X7X7X7X=Xv.J.",
"7X7X7X7X7X7X7X7X7X7X7X7X7X7X7X7X].i.T.7X|.f.K.7X7X7X7XoX5.n + + % % % o + + + + + 2 m & o % + % % + f @.P.7X7X7X7XR.s.].7XY.d.).7X7X7X7X7X7X7X7X7X7X7X7X7X,Xv.F.",
"7X7X7X7X7X7X7X7X7X7X7X7X7X7X7X7X|.d.!.4X@Xa.U.7X7X!.! @ O + O @ + X + @ + + + + + + + O + O . X + X O + + A x.7X7X/.y.`.7X!.u.(.7X4X6X7X7X7X7X7X7X7X7X7X7X=Xv.J.",
"7X7X7X7X7X7X7X7X7X7X7X7X7X7X7X7X].i.!.7X[.B.1X'.! + + + + @ % $ + + + + + + + + + @ o + + + @ + + + + + % +   n A.1XJ.(.7X!.s.).7X7X7X7X7X7X7X7X7X7X7X7X7X=Xv.J.",
"`.F.8X7X7X7X7X7X7X7X7X7X7X7X7X7X{.d.I.7X7XC.( & % + + + + + + o + + o p G )  .#.+. .| J g @ + + + + % + + + % % @ c j.7X7XT.d.).7X7X7X7X7X7X7X7X7X7X7X7X7X:Xv.J.",
"B.y.@X7X7X7X7X7X7X7X7X7X7X7X7X7X{.y.].7XB.q % + + . X + o $ . N $.M. X6X7X7X7X7X7X7X7X7X7X+XH.5.F @ + % @ + + . - 4 7 5.7X%Xy./.7X7Xe.T 6X7X7X7X7X7X7X7X7X=Xv.J.",
"J.v.#X7X7X7X7X7X7X7X7X7X7X7X7X7X[.J.5X7.& % % + + + % % 3 ..E.7X7X7X7X7X7X7X7X7X7X7X7X7X7X7X7X7X7X X;.h + % + 5 c b % & ! oXI.[.7XA.% . 7X7X7X7X7X7X7X7X7X=Xv.J.",
"J.v.@X7X7X7X7X7X7X7X7X7X7X7X7X7X5XL.L % * % + + $ % r ,.1X7X7X7X7X7X7X7X7X7X7X7X7X7X7X7X7X7X7X7X7X7X7X7Xh.n 2 k n 2 + % % 9 x.7XA.O % @ ~.7X7X7X7X7X7X7X7X:Xv.J.",
"J.v.=X7X7X7X7X7X7X7X7X7X7X7X7X7X4Xa % + + + + + & $.7X7X7X7X7X7X7X7X7X7X7X7X7X7X7X7X7X7X7X7X7X7X7X7X7X7X7X7Xc.v : + + + @ @ 3 ` & o % . e.7X7X7X7X7X7X7X7X5Xv.J.",
"F.g.`.@X-X@X@X#X&X#X&X@X#X@X7X-Xb - . @ % + & i J.7X6X-X-X-X@X#X&X@X#X#X#X-X&X-X-X#X#X#X#X#X-X#X#X@X-X-X@X2X7X@XC , * + + + % @ o + X & ^ 3X#X@X#X@X@X-X-X].v.J.",
"/.s.v.z.v.v.v.v.v.s.v.n.g.J.R.d :   % + + + V I.|.v.f.v.g.g.v.g.v.v.g.v.v.g.v.v.v.v.z.v.z.j.l.v.g.v.g.z.v.s.v.I..X{ X & % % @ + % + X * 7 V.B.g.v.z.g.v.v.v.s.I.",
"7X/.J.J.J.J.J.J.V.L.C.J.P.%XA , % % + + > ;.:X).B.C.J.J.G.J.J.J.J.J.J.J.F.J.J.J.J.J.J.J.J.J.V.J.C.J.J.J.J.J.C.B.K.2XB.n + + + + + % + % & a.(.C.J.J.J.J.J.B.W.4X",
"7X7X7X4X7X7X6X7X7X7X7X4X7X:.: l 5 @ + > k.7X7X7X7X7X7X7X7X7X7X7X7X7X7X7X7X7X7X7X7X7X4X7X7X7X7X7X7X7X7X7X7X7X7X7X7X7X7X} % # + % + + + + > c.7X7X7X7X7X7X7X7X7X7X",
"7X=X].].{.].@X].].].].7XN.w 6 7X .% & 4.7X.X].].oX|.].@X{.].].oX2X7X-XI.c.>.@.| _ $.;.r.S.@X7X5X$X[.@X].].@X@X'.3X@XE + % % o % + + + . 5 X.-X|.].].|.].|.].-X7X",
"-Xv.s.s.d.s.s.u.j.s.m.P.@ % P.@Xi & ( {.g.j.i.d.s.i.s.u.s.g.I./.q.R 8 @ > : % % + % % * % 2 S :.P./.g.s.i.d.s.m.d.9 : % + + + + + + + 2 % z J.v.d.s.s.d.s.d.f.].",
"J.v.K.W.R.I.I.!.P.Q.8XL e <.7Xx * L -X`.I.I.I.R.I.I.I.I.].7Xh.H * : + < n Y ` w.p.o.W K y + > r A ;.1X%XR.K.R.].Q @ . + X . % + - & 5 H r @ G.].R.I./.I.I.K.n.J.",
"V.v.-X7X7X7X7X7X7X7X=X% F 7Xn.% f 7X7X7X7X7X7X7X7X7X7X7X7X;.@ @ @ ! h.=X7X/.}.7X7X@XR.4X7XG.+.n & @ Q oX7X7X7X7X5X'.5.J & % + O + m G v 4 % N.7X7X7X7X7X7X2Xv.S.",
"G.v.#X7X7X7X7X7X7X7XJ o 2X7X- o .X7X7X7X7X7X7X7X7X7X7X.XV + + ! _.7X7X7X:Xm.B.6X7XJ.v.-X7X7X7X:X;.@ % < c.7X7X7X7X7X7X7X#Xr.Q i @ 1 d + o O @.7X7X7X7X7X7X9Xv.J.",
"J.g.-X7X7X7X7X7X7XoXo } 7X .o } 7X7X7X7X7X7X7X7X7X7XP.>   p H.7X7X7X6X7X=Xv.B.7X7XJ.s.&X7X7X7X7X7X*XL o + 7.7X7X7X7X7X7X7X7X7X7XH.*.s . + o s 7X7X7X7X7X7X=Xv.J.",
"J.v.#X7X7X7X7X7X7XA o 7X8Xo - 7X7X7X7X7X7X7X7X7X7X^.o + K 8X4X7X6X7X7X7X;Xb.B.8X7XJ.z.@X7X7X7X7X7X7X7X>.+ o ;.7X7X7X7X7X7X7X6X7X6X7X7X).%.x X OX7X7X7X7X7X=Xv.J.",
"V.v.&X7X7X7X7X7X>X  F 7X..o >.6X7X7X7X7X7X7X7X7X@XX o ) 7X7X7X7X7X7X7X7X;Xg.B.7X7XY.g.@X7X7X4X7X7X7X7X7X9.o o h.7X7X7X7X7X7X7X7X7X7X7X7X7X7XW.=X7X7X7X7X7X,Xv.J.",
"J.z.#X7X7X7X7X7X,.o OX7XX @ 6X7X7X7X7X7X7X7X7X7Xg   K 7X7X7X7X7X7X7X7X7X=Xv.[.7X&XN.Y.=X7X7X6X7X7X7X7X7X7X5.  o oX7X7X7X7X7X7X7X7X7X7X7X7X7X7X4X7X7X7X7X7X=Xv.J.",
"J.g.@X7X7X7X6X7Xq & 6Xx.% ` 7X7X7X7X7X7X7X7X7X@.$ i 6X7X7X7X7X7X7X7X6X7X2X).r.P 1 4 ( 7X7X7X7X7X4X7X7X7X7X7XQ o s 7X7X6X7X7X7X7X7X7X7X7X7X7X7X7X7X7X7X7X7X:Xv.J.",
"J.v.&X7X7X7X7X@X+  .7Xs o /.7X7X7X7X7X7X7X7XoX#   *X7X7X7X7X7X7X7X7X7X7X7Xa.2 1 V > + r.7X7X7X7X7X7X4X7X7X7X7X3 . w.7X7X7X7X7X7X6X7X7X7X7X7X7X7X7X7X7X7X7X=Xv.F.",
"J.v.@X7X7X7X7X1.o OX7X+ 6 7X7X7X7X7X7X7X7X7XJ o 2.E.a d u a a p a a d d i 2 ; X.4X@.+ x 7X4X7X7X7X6X7X7X7X7X7XA.  3 4X7X4X6X7X7X7X6X7X7X7X7X7X7X7X7X7X7X7X=Xv.J.",
"J.g.&X7X7X7X7XV @ 7XA.o @.7X7X7X7X7X7X7X7X<XX < _ o % o % + + . + X X % 1 1 - +.7Xq.: f 7X7X7X7X7X7X7X7X7X4X7X7XN   w.7X7X7X7X7X7X7X7X7X7X7X7X7X7X7X7X6X7X=Xv.J.",
"J.v.-X7X7X7X7X+ z 7X/ + A.7X7X7X7X7X7X7X7X*.+ % o @ 7.W.W.!.!.W.W.^.E.!.[.<.= + n 2 # ,.7X7X7X7X6X7X7X7X7X7X7X7Xh.o x 7X7X7X7X7X7X7X7X7X7X7X7X7X7X7X7X7X7X2Xv.C.",
"J.g.&X7X7X7X,X@  .7X_.w.7X7X7X7X7X7X7X7X7Xs o o % x.7X7X7X7X7X7X7X7X6X7X7X@X$.t + % M 1X7X7X;.x J H.7X7X7X7X7X7X7X4 o oX4X6X7X7X7X7X7X7X7X7X7X4Xe.].7X7X7X=Xv.C.",
"J.v.=X7X6X7XE.o w.7X7X7X7X7X7X7X4X7X7X7X+X% % 2 !.7X7X7X7X7X7X7X7X7X7X7X7XI.2X7X Xm.].4X7XH % @ @ . H.7X7X7X7X7X7XE   7.7X7X7X7X7X7X7X7X7X7X7X-X+  .7X7X7X2Xv.S.",
"S.v.&X7X7X7Xd.* z.7X4X7X7X7X7X7X4X7X7X7X~.- 3 *X7X8.E W W ~ T ( ) >.,.) J c v ..&.T v ! P $ i G.$.% g 7X7X6X7X7X7X2.% ~ 7X7X6X4X7X7X7X7X7X7X7X5Xr ~ 7X6X7X%Xg.J.",
"K.f.J.J.J.@X' < 2.].L.J.U.J.J.J.J.J.J.J.L.*.L.7XT % % + % % : > 1 2 & X : , * + + + e * + & L 7XP.< . C./.J.J.V.3X2.< u /.K.J.Z.J.J.J.J.J.J.K.I.M L `.U.J.J.v.J.",
"1XB.l.g.j.].L , 3.P.f.l.v.s.f.l.v.g.v.v.v.:X>XZ > % ~  .( / o.1.8.1.[ ( ( ` ,.e.q.2.' [ E + . ( l , c C.v.z.g.].j.y % i U.v.v.l.v.j.v.f.v.j.m.J.g 0 K.v.v.j.m.#X",
"7X7X:X:X=X7X] , /.4X1X2X,X2X2X,X2X=X#X#X4X6Xn , < M.7X7X7X7X7X7.R =.6X7X7X7X7X7X7X7X7X7X7X%.e : + z '.7X1X2X7XL.@ , n /.8X&X=X:X=X2X2X=X2X2X2X4Xr 6 6X2X2X,X7X7X",
"4X7X7X7X6X7X..< XX7X7X7X7X7X7X7X7X7X7X7X2XV * > J.7X7X6X4X:X~ 1 * % n 6X7X7X7X7X7X7X7X7X7X7XJ.1.M.7X7X7X7X7XH.r * v 7X7X7X7X7X7X7X7X7X4X7X6X7X7Xy p 7X7X7X4X7X7X",
"8XJ.m.v.m.XXL 1 s.P.m.b.v.m.m.m.m.J.4X7X$.o a a.#XV.v.S.[.( t 0 7.h % s Q L H H D D L H G P o.:.S.r.X._ H H + * c _.7X7X7X4XR.g.b.N.m.m.N.m.F.K.1 7 I.B.N.n.B.2X",
"I.j.N.B.m.`.( 5 q./.b.m.B.v.B.m.B.i.[.7XO.* ] 2Xn.b.m.B./.g * 4.4X;.% % @ + : % % % + : % % 4 2 & % . . % * % S |.#Xq.*X7X].s.m.b.N.m.b.b.B.C.L.> i `.N.N.N.l.J.",
"B.n.].:X8X4Xx.5 x.7X2X2X2X8X2X2X'.i.W.7Xw.- D 7X2X2X5X2X7X*.% g ;.s O E 6.>.1.w.w.;.>.>.-.8.h.x.7.$.;.<.>.%.p.7X7X..; ;.7X/.s.R.5X2X2X:X2X2X5X3X& G 7X8X2X|.b.B.",
"J.s.=X7X7X7X~.% 7.7X7X7X7X7X7X7XoXu.Q.7XV.@ 5 7X7X7X7X6X7X8Xc + : + n 7X7X7X7X7X7X7X7X7X7X7X7X6X7X7X7X7X7X7X7X7X&.+ % ` 7XW.d.].7X7X7X7X7X7X7X8X+  .7X7X7X2Xv.J.",
"J.g.$X7X7X7X@X  #.7X7X6X7X7X7X7XXXi.!.7X{.O , /.7X7X7X7X7X7X7X5.( 5.6X7X7X~.F o i c.7X6X7X7X7X7X7X6X7X7X7X7X7X_ @ % > a.7X/.d.`.7X7X7X7X6X7X7XP.o ,.7X7X4X:Xg.J.",
"C.v.#X7X7X7X7XH.@X7X7X7X7X7X7X7X[.s.R.7X7Xl % $.7X7X7X6X7X7X4X7X7X7X7X7X*X@ + % $ # L.7X4X7X7X7X7X7X7X7X7X1XJ + + % ; }.7X/.s.(.7X6X7X7XJ  .7Xe.o G.7X7X7X,Xv.S.",
"J.z.#X7X7X7X7X7X7X7X7X7X7X7X7X7X{.h.Y.7X7X=.: 6 7X7X7X7X7X7X7X7X7X7X4X7X;.  Q @X5.. @ B g f s f p f f a g 2 o y z > A 4X7X!.a.[.7X6X7X/.  i 7XT O 1X7X7X7X9Xv.J.",
"J.v.#X7X7X7X7X7X7X7X7X7X7X7X7X7X].d.R.7X$XP.9 % 1.7X7X7X6X7X7X7X4X7X7X6X_ + %.7X^.# + + + + + + + + o + + + F /.u > 2.2X7X/.u.).7X6X7X;.O 7.7XX 9 6X7X7X7X1Xv.C.",
"J.v.-X7X7X7X7X7X7X7X7X7X7X7X7X7X@Xu.R.7X|.`.@.% 2 5X7X7X7X7X7X7X7X7X7X7XE.  & F % + $.oX'.].'.]. X]..X X X`.7X .> v '.].7XR.d.`.7X4X7Xg + 1X7Xo $.7X7X7X7X=Xv.J.",
"J.v.#X7X7X7X7X7X7X7X7X7X7X7X7X7X].u.I.7X@Xg.,XC + J 7X7X7X7X7X7X7X7X7X7X7X,.O + + Q 7X7X7X7X7X7X7X7X7X6X7X4XM.+ X H.I./.7X!.s.).7X7XoXo g 7X2.o _.7X7X7X7X=Xv.C.",
"J.v.&X7X7X7X7X7X3X7X7X7X4X7X7X7XoXu.!.7X|.u.:X&X: o 5.4X7X6X7X7X7X7X7X7X7X7XoXx.!.7X4X7X7X7X7X7X4X7X7X7X7X~.% % z.7Xp.`.7X/.d.[.7X7X} o h.7X- > 7X7X7X7X7X1Xv.C.",
"J.g.#X7X7X7X7X7X=XY 7.+X7X7X7X7X].d.R.7X@Xs.J.7XA.+ o w.7X7X7X7X7X7X7X7X7X7X7X4X7X7X7X7X7X7X7X7X7X7X7X7X X4 o ! 7X`.a.].7XI.s./.7X5XO + 7X&X+ &.7X7X7X7X7X,Xv.J.",
"J.v.&X7X7X7X7X7X6X@ @ + P >.^.7X7XZ.{.7X@Xs.U.7X7X>.% + 7.7X4X7X7X7X7X7X7X7X7X7X4X7X7X7X7X7X7X7X7X7X7X!.2 O A 7X7XI.u.[.7X/.d.`.7X$.o &.7XG + 2X7X7X7X7X7X=Xv.J.",
"J.s.-X7X7X7X7X7X7X$.  + +   @ ^ #.-./.7X6Xg.I.7X7X7X$.+ +  .6X7X7X7X4X7X7X7X7X6X7X6X7X7X7X6X7X7X7X7Xr.. o G 7X7X7XI.d.].7XT.i.7X2X& o 7X1X  G 7X7X7X7X7X7X;Xv.J.",
"J.v.#X7X7X7X7X7X7XG.+ % > 8 g l , + i X.h.g.#X7X7X7X7Xw.% + p A.7X7X7X6X7X4X7X7X7X7X7X7X7X7X7X7X`.L % % ^ 7X7X7X7X/.s.`.7XR.v.7XY $ r.7XH o =X7X7X7X7X7X7X,Xv.J.",
"J.v.=X7X7X7X7X7X7X@X@ + y J n 4 X % % % % 5 v 9.7X7X7X7X_.c @ : J G.7X7X7X7X7X7X7X7X7X7X7X7XP./ * & ; h.7X7X7X7X7X/.d.'.7XK.@Xo., s 7X^.o _ 7X7X7X7X7X7X7X8Xv.J.",
"J.v.I.)././.(./.'.].k & s x 7 + % + + X o % > I @X).R.[.5XoXX.y 4 1 u E @.d.m.C.U.B.n.>.! z % , @ K H.7X].[./././.L.f./.7X4Xy.% > G.5X3 , /..X/./././.`./.I.v.J.",
"@Xs.d.u.d.s.a.s.s.K.P 5 f 2 . % + & . + + % +.}.s.d.s.d.i.B.].z...i + , , % % & + % % % < @ @ J 2.'.K.s.d.s.i.s.d.i.m.3X7X7X2 , Q 4XD < ' ].d.s.d.s.d.u.s.s.l./.",
"7X@X/./.)./.`././.=Xq.r 2 o @ o X + %   f x.7X/././.)./././.R.#X3X|.m.=.Q V f 7 6 r m E  .p.`.4X:XR.R.[./.R./._._./.2X7X7XK , H 7X8.< A $X].`./.[./.(././._.].7X",
"7X7X7X7X7X7X7X7X7X7X,X7 @ o X % + @ + * h.4X7X7X7X7X7X7X7X7X7X7X7X7X4X7X7X7X7X7X7X7X7X7X7X7X7X7X7X7X7X7X7X7X7X7X7X6X7X7XE % c 7X5Xw 4 8X7X7X7X7X7X7X7X7X7X7X7X7X",
"7X`.J.K.K.K.I.K.U./.I.7 % % + + % . % @ g p.5XI.U.I.U.I.P.I.I.K.K.P.P.P.L.{.7X7X7X7X@XU.U.I.I.P.I.I.K.I.I.K.K.P.K.=XW.n % i 7X|.i * a.-XU.W.K.K.K.P.K.I.I.J./.7X",
"[.s.j.v.s.s.s.s.s.l.I.l * @ o % + % . + % > o.@XJ.s.l.s.s.s.s.d.d.f.s.s.f.i.I.7X7X/.s.s.f.i.f.i.s.s.s.s.d.s.s.v.@Xd.6 % + 9 w.9 % {  Xf.j.s.s.s.s.p.j.i.s.v.s./.",
"G.v./.].}.|.].|.].oX2X-.* X + + + @ + + + * > R @X7X@X}.}.|.}.@XoX|.{.@X/.n.N.7X7XJ.v./.].@XoX|.|.].{.oX].@X7X7X;.@ % + * + @ < 1.7X{..X].{.].oX{.@X].@X].`.v.B.",
"J.v.=X7X7X7X7X7X7X7X7X.X+ % + C M.7 + + + . + , W ~.7X7X7X7X7X7X7X7X7X7X:Xv.B.8X7XG.v.=X7X7X7X7X7X7X7X7X7X7XOX} : % @ + % O . r.7X7X7X7X7X7X7X7X7X7X7X7X7X8Xv.J.",
"J.f.-X7X7X7X7X7X7X7X7X6Xi O n 6X7X Xp o % + + @ f 7 W ~.7X7X7X7X7X6X7X7X2Xv.N.7X7XJ.s.#X7X7X7X7X7X7X7X7X*X%.X + @ + + + % O h.7X7X7X7X7X7X7X7X7X7X7X7X7X7X9Xv.J.",
"J.v.@X7X7X7X7X7X7X7X7X7Xs 9 6X7X7X7X5XH O % + + 5 . + O L A.7X7X7X7X7X7X;Xv.B.8X7XC.v.#X7X7X7X7X7X7X_.| > + + @ + + + % 7 E.7X7X7X7X7X7X7X7X7X7X7X7X7X7X7X=Xv.J.",
"J.l.@X7X7X7X7X7X7X7X7X7XG.=X7X7X7X7X7X7X;.#   % + + + % % + g ` S.,X7X7X7X/.].7X7X`.W.7X7X7X8X/.-.C o % + % + X @ o + R ,X7X7X7X7X7X7X7X7X7X7X7X7X7X7X7X7X=Xv.J.",
"J.z.-X7X7X7X7X7X7X7X7X7X7X7X7X7X7X7X7X7X7XH.v % % % . + % % o + o 2 F X.-.{ o.N./.8.{ -.@.E y + + + % @ X + % % $ 6 8.7X7X7X7X7X7X7X7X7X7X7X7X7X7X7X7X7X7X9Xv.J.",
"J.v.#X7X7X7X7X7X7X7X7X7X7X7X7X7X7X7X6X7X7X7X7X7.y + + + + . @ $ @ . @ % % & % % i i > + + + + + % + + + % @ + %  .1X4X7X7X7X7X7X7X7X7X7X7X7X7X7X7X7X7X7X7X=Xv.J.",
"J.g.@X7X7X7X7X7X7X7X7X7X7X7X7X7X7X7X7X7X7X7X7X7X5X-.y + + @ O + + % o % % o 2 x z + o % + * % + X o + +   & Q '.7X7X7X7X7X7X7X7X7X7X7X7X7X7X7X7X7X7X7X7X7X=Xv.J.",
"J.v.-X7X7X7X7X7X7X7X7X7X7X7X7X7X7X7X7X7X7X7X7X4X7X7X5Xh.F + + + + + % + @ 8 l C 5 + @ + + X . + + % + z ,.&X7X7X7X6X7X7X7X7X7X7X7X7X7X7X7X7X7X7X7X7X7X7X7X=Xv.J.",
"J.v.@X7X7X7X7X7X7X7X7X7X7X7X7X7X7X7X7X7X7X7X7X7X7X7X7X7X7X'.e.T i . + @ > y r & % : % % + o + 2 A ,.P.7X7X7X7X7X7X7X7X7X7X7X7X7X7X7X7X7X7X7X7X7X7X7X7X7X7X=Xv.J.",
"J.v.@X7X7X7X7X7X7X7X7X7X7X7X7X7X7X7X7X7X7X7X7X7X7X7X7X7X7X7X7X7X6XE.q.,.;.Y Z C H l c Q $.9.G.1X7X7X7X7X7X7X7X7X7X7X7X7X7X7X7X7X7X7X7X7X7X7X7X7X7X7X7X7X7X=Xv.J.",
"J.g.@X7X7X7X7X7X7X7X7X7X7X7X7X7X7X7X7X7X7X7X7X7X7X7X7X7X7X7X7X7X7X7X7X7X7XL.W.7X7X/.U.7X7X7X7X7X7X4X7X7X7X7X7X7X7X7X7X7X7X7X7X7X7X7X7X7X7X7X7X7X7X7X7X7X7X=Xv.J.",
"J.z.-X7X7X7X7X7X7X7X7X7X7X7X7X7X7X7X7X7X7X7X7X7X7X7X7X7X7X7X7X6X7X7X7X7X=Xb.C.7X7XI.g.#X7X7X7X7X7X7X7X7X7X7X7X7X7X7X7X7X7X7X7X7X7X7X7X7X7X7X7X7X7X7X7X7X7X2Xl.J.",
"J.v.=X7X7X7X7X7X7X7X7X7X7X7X7X7X7X7X7X7X7X7X7X7X7X7X7X7X7X7X7X7X7X7X7X7X2Xv.B.4X7XJ.s.,X7X7X7X7X7X7X7X7X7X7X7X7X7X7X7X7X7X7X7X7X7X7X7X7X7X7X7X7X7X7X7X7X7X8Xb.S.",
"V.v.].=X=X=X=X7X7X7X7X5X=X=X=X:X=X=X=X=X=X=X=X=X=X=X=X=X=X-X=X2X=X2X=X=X].N.n.7X7XV.v.`.9X=X,X:X1X,X=X,X,X=X=X;X=X=X=X-X=X=X=X=X=X=X=X=X=X=X=X=X2X=X=X=X=XXXv.S.",
"/.s.b.v.v.v.s.K.7X7X4XJ.d.v.v.v.v.v.v.v.v.v.v.v.v.v.v.g.v.v.v.v.v.v.m.v.v.s.U.7X7XI.s.m.v.v.b.v.v.v.v.b.n.v.v.v.v.v.v.v.v.v.v.v.v.v.v.v.v.v.v.v.v.v.v.v.v.v.s.K.",
"4XP.J.S.J.J.m.`.7X7X7XI.B.J.J.J.J.J.J.J.J.J.J.C.S.J.J.J.J.V.C.J.J.J.S.J.J.P.5X7X7X6XI.B.J.S.J.J.C.V.J.C.J.S.C.S.J.J.F.C.J.J.J.J.J.J.J.J.J.J.J.J.J.J.J.F.B.J.K.8X"
};
