/* XPM */
static char *e47a16ae649743a98aea6abd05cdcd63sXlBdQNA4S1cmbjc[] = {
/* columns rows colors chars-per-pixel */
"40 40 204 2 ",
"   c #010104",
".  c #00020B",
"X  c #010113",
"o  c #010419",
"O  c #010B1C",
"+  c #07141C",
"@  c #020A23",
"#  c #060923",
"$  c #031223",
"%  c #03142A",
"&  c #07192C",
"*  c #0B1A2D",
"=  c #091727",
"-  c #121A23",
";  c #131928",
":  c #0C1C31",
">  c #13242D",
",  c #1E202D",
"<  c #0E2334",
"1  c #0C2836",
"2  c #132335",
"3  c #192533",
"4  c #112438",
"5  c #1B2B3B",
"6  c #182839",
"7  c #1D313E",
"8  c #262E3E",
"9  c #122C42",
"0  c #1D2A42",
"q  c #1A3143",
"w  c #272F44",
"e  c #2E3443",
"r  c #263944",
"t  c #23334A",
"y  c #29374A",
"u  c #2D3B4A",
"i  c #243947",
"p  c #333A49",
"a  c #313747",
"s  c #2C3C52",
"d  c #363F50",
"f  c #37444E",
"g  c #2E4150",
"h  c #354453",
"j  c #394655",
"k  c #3A4956",
"l  c #3C4C5B",
"z  c #384858",
"x  c #3E545F",
"c  c #3F5064",
"v  c #434C56",
"b  c #434E5D",
"n  c #4B4C50",
"m  c #43525C",
"M  c #4B545E",
"N  c #525453",
"B  c #454D60",
"V  c #445463",
"C  c #4A5665",
"Z  c #475863",
"A  c #4C5A65",
"S  c #4D5B69",
"D  c #515C65",
"F  c #525D6B",
"G  c #585D63",
"H  c #53626C",
"J  c #5A646B",
"K  c #4E6273",
"L  c #566472",
"P  c #5B6574",
"I  c #5D6974",
"U  c #5E6C7A",
"Y  c #5E667B",
"T  c #5F717F",
"R  c #616A6F",
"E  c #626C75",
"W  c #626B7A",
"Q  c #656776",
"!  c #64737E",
"~  c #6A747C",
"^  c #70757B",
"/  c #6C7682",
"(  c #6B7A85",
")  c #6C798B",
"_  c #737584",
"`  c #717C85",
"'  c #7A7D86",
"]  c #76818B",
"[  c #7A828C",
"{  c #798287",
"}  c #7E8490",
"|  c #7C8A93",
" . c #788793",
".. c #90958F",
"X. c #8B8D94",
"o. c #898F99",
"O. c #858C96",
"+. c #87919D",
"@. c #8A969E",
"#. c #8E9397",
"$. c #949A9F",
"%. c #92929C",
"&. c #81868A",
"*. c #8999A4",
"=. c #939BA5",
"-. c #999CA3",
";. c #969EAA",
":. c #969AA5",
">. c #94A2A5",
",. c #9BA1A6",
"<. c #9BA4AB",
"1. c #9FA9B2",
"2. c #A1A4AC",
"3. c #AEAEAD",
"4. c #A3A8AB",
"5. c #B3B3AF",
"6. c #A3ABB3",
"7. c #ABADB5",
"8. c #A1A5B0",
"9. c #ABB2B6",
"0. c #ADB4BB",
"q. c #B4B4B4",
"w. c #B6B8B7",
"e. c #BAB9B7",
"r. c #B5B6BA",
"t. c #B9B7B9",
"y. c #B6B9BB",
"u. c #BABABA",
"i. c #B9B5B2",
"p. c #C2BEBD",
"a. c #BEC2BC",
"s. c #C3C2BD",
"d. c #B3BBC2",
"f. c #BCBDC3",
"g. c #BFBFC9",
"h. c #C3BFC2",
"j. c #BCC2C5",
"k. c #BDC6CA",
"l. c #B8C6C9",
"z. c #C4C4C3",
"x. c #C9C5C4",
"c. c #C4C8C7",
"v. c #CCCAC6",
"b. c #C3C6CA",
"n. c #CBC5C9",
"m. c #C5CACC",
"M. c #CBCBCB",
"N. c #D1CCC9",
"B. c #CDD3CD",
"V. c #D3D4CF",
"C. c #CDCED1",
"Z. c #C3C6D1",
"A. c #D4CED3",
"S. c #CCD2D5",
"D. c #CAD4D9",
"F. c #D4D4D4",
"G. c #DAD5D6",
"H. c #D4D9D5",
"J. c #DAD9D6",
"K. c #D5D6DA",
"L. c #D9D6DC",
"P. c #D5DBDC",
"I. c #DBDBDB",
"U. c #E4DFDC",
"Y. c #DCE0DD",
"T. c #E3E2DD",
"R. c #DDDCE2",
"E. c #D7DFE1",
"W. c #E0DEE1",
"Q. c #DEE2E2",
"!. c #E3E3E3",
"~. c #EAE5E4",
"^. c #ECEBE6",
"/. c #E5E5E8",
"(. c #EAE6EB",
"). c #E5E9ED",
"_. c #ECEDEC",
"`. c #E4E9E3",
"'. c #F1EEEC",
"]. c #F0E9E3",
"[. c #EDF1ED",
"{. c #F4F2EE",
"}. c #FBF3EB",
"|. c #F7F5EB",
" X c #ECEEF2",
".X c #E6EDF6",
"XX c #F3EFF1",
"oX c #EEF1F3",
"OX c #EDF5F7",
"+X c #F3F2F3",
"@X c #FBF6F3",
"#X c #F5F8F5",
"$X c #FDFAF6",
"%X c #F3F5FA",
"&X c #F6FBFB",
"*X c #FEFEFA",
"=X c #FAFEFE",
"-X c #FFFFFD",
";X c #FEFEFE",
":X c #FEFFFF",
">X c white",
",X c #FFFEFF",
"<X c #FDFEFE",
"1X c #FEFEFD",
/* pixels */
"F.q.q.t.t.t.q.q.p.$X_.q.y.y.u.q.y.t.t.t.t.t.t.y.y.q.q.w.5./.$Xz.q.t.q.q.t.t.q.F.",
"q.!.+X_._._._._.i.Q.m.M.'.'._.'._.'.+X+X+X+X'.^._._. XXXC.z.Q.q._._._.+X_.+X/.q.",
"3.+X>X>X>X>X>X>Xb.R.n.I.=X>X*X>X>X>X>X>X>X>X>X>X=X>X=X>XT.x.W.f.>X*X>X>X>X>X#Xt.",
"z._.>X>X>X>X>X>Xh.T.M.L.*X$X>XF.<.( H m H ~ ( =.S.1X1X>XP.z.Y.h.*X>X>X=X>X>X+Xt.",
">X>X>X>X>X>X>X>Xs.I.C.*X>X:.h $                 # s O.'.*XA.I.p.>X>X>X>X>X>X+Xe.",
"/.#X>X>X>X>X>X>Xe.@X$Xo.w       O 6 z Z m h 5 O       > ( XX*Xq.>X>X=X>X>X>X+Xu.",
"3._.>X>X>X>X>X>X_.P.M .   . s | m.oX>X>X>X>X%XC.@.h o X O j l.>X.XG _.>X>X>X+Xt.",
"q.+X>X>X>X>X>X>Xm.- . . p r.*X>X>X>X>X>X>X>X>X>X>X=Xj.K = X + <.f . R.>X>X>X#Xy.",
"u.f.n.n.x.z.+Xd.$ . X H P. XB.x.z.b.M.M.M.M.m.z.x.A.^.~.P = @ X o o O.~.s.v.f.y.",
"&XJ.K.J.F.~.k.> @ o ;.>X+XK.V.J.+X@X!.P.S.T.{.+XR.J.F.Q.*X>.o % = X L '.I.H.G.&X",
"/.n.M.M.K.!.h @.t R {.s.v.v.^.&X0.P Z l V V F 7.OX'.B.Y.-.* X % % O c H.F.M.v.!.",
"q.M.U.K.+XE ( | m $XT.P.J.@Xj.5 & C { <.6.} L 6 3 6.}.^.| e & . O 7 * k.Q.I.F.q.",
"t.#X1X>X/.F d.5 oX>X>X>X>X2.O Q  X>X^.+X+X!.>X=X} # } >X=X>XE.-.E 8   $.>X>X&Xt.",
"q. X>X>X( @.E [ >X1X*X>X:.. r.>X>X>Xs.}.*XC.=X*X>XS.o _ *X>X>X*X=XOX..2.*X>X+Xt.",
"t. X*X&XC >.d =X>X>X*XD.O Q.>X=X>X>X=X;.M b.*X$X>X*XP.. 9.=X>X1X>X>X>X>X*X>XXXt.",
"y.^.>X0.{ ) J >X>X>X=Xb W *.T / / / A z S u &X>X>X=X*X*.: 1X=X>X$X=X1X=X*X>X[.t.",
"t. X>X( ] ~ 7.>X=X>XH.O 1 Z P H A Y m s I y >X>X>X>X>X*X9 :.1X*X>X>X>X>X>X*XXXy.",
"q.&X>XW =. X>X>X>X*XE   q.>X*X>X>X=X>Xo.n C.K.a m [.=X*X| k =X>X>X>X#X_.+.*X>Xy.",
"q.v.T.C <._.J.F.H.F.} r.;.0 7 x ! b 2 A P z X ^ i Z (.}.b.% S.J.F.C.I.t.z F.F.q.",
"+XV.I.B r.T.F.F.B.N.*XY > >.9.[ v <.j.S.K.Z.O.v b j.$XJ.5 Z V.H.F.F.I.m.l k.L.'.",
"+XI.I.V d.`.H.L._.>X( : J.*XK.F M / 7.<.<.4.<.F +.9.*.2 b =X>X!.F.I.T.C.u m.R.{.",
"t.j.I.S -.J.M.M.q._.s >.}.!.] 1 E X l / H g j ( U h t o.P.=.(.i.v.C.Y.f.h S.M.5.",
"q.&X*X! ,.>X>X*Xb.|.C I >X>X>X/ p S.=X' 6.>X=X>X>X>X>X+X- r ~.n.>X>X=XK.F >X1Xt.",
"t._.*X.X).>X>X*Xa.$X,.< >X>X>X*X>X>XP v z D ] ` ( ` ~ q . =.1Xa.>X).~ [ I >X+Xy.",
"t._.>X>X*X>X*X>Xz.T.+X$ +.>X*X>X>X=Xp S h y I D F S ~  .4 R.].u.>XX.K &.] >X{.u.",
"t._.>X$X#X>X=X>Xu.J.|.<.o I.=X>X$X>X!.v ` =X>X>X=X>X>X0 ` #XI.h.>Xk =.T K.>X_.t.",
"t._.>X>X%.N 7.OX(.>XG.*X| o P.>X*X=X>X$X1X>X>X*X*X{.* F *XM.P.U.Z.l 6.V *X>X+Xt.",
"q.#X>X>Xf.  o l A <.g.(.>X_ # $.>X>X>X>X>X>X*X*X7.; S >X+Xa.!.'.l 6.U 0.>X>X#Xt.",
"q.V.Q.!.R.3 r 4 X X o F _.*X-.; y ] 9.m.S.d.| t + [ *X/.j.z.>XF Z 1.h $XQ.T.F.q.",
"!.x.x.m.I.Y + % & O C b.F.v.|.).X.b h 5 7 s j ' I.+XF.x.u.>Xk.9 d.u u.!.b.v.x.!.",
"&XG.G.I.oX' X = @ # 6.>X!.P.F.T.#XT.I. X.XJ.T.#X~.K.F.T.>Xl.4 l.m ] {.K.J.J.F.@X",
"u.t.x.p.!.-.O o o O O _ '.!.m.z.a.c.q.@X$Xe.x.s.h.c.I.{.X.o $ e ( +Xx.z.x.b.t.u.",
"q.+X1X>X>X%X. W 0.+ . X W C.>X>X>X>XM.L.I.z.>X>X>X*XK.I o . . [ >X>X>X>X>X>X#Xq.",
"t._.>X*X>X%X#.=X*XC.8     O C 8.`.>X!.#X$XT.>X[.7.L $     , d.*X>X>X>X>X>X>X+Xt.",
"q._.>X>X>X=X>X>X=X>X&X) O   . . : l Z I ] S V 4 .     o P (.>X=X>X>X>X>X>X>X+Xu.",
"t._.>X>X>X>X>X*X$X*X=X>XR./ 3 X     X = o X     X 3 I m.>X>X*X$X>X>X>X>X>X>X+Xt.",
"q._.>X>X>X>X>X>X>X>X>X*X=X>X&X0.{ F Z k r g C ` 9. X=X=X>X>X>X>X>X>X>X>X>X>X_.t.",
"e.+X>X>X>X>X>X>X>X>X>X=X=X*X1X*X>X>XJ.I.!.F.>X>X*X>X>X>X>X>X=X>X>X>X>X>X>X>X#Xt.",
"q./._.+X>X#X_.+X%X{.'.{.'.[.[.OX+X#Xz.!.~.p.*X+XoXoX[.+X{.[.{.+X+X+X+X+X+X+X/.q.",
"F.q.q.x.*X!.3.t.t.t.t.t.u.t.u.e.f.t.w.+X#Xw.t.u.t.u.u.t.t.u.t.e.t.t.u.t.t.t.q.M."
};
