/* XPM */
static char *_6160_a685b75ae5f944cee086951fdfa34849f016731a755f3845cb7571712da2be04[] = {
/* columns rows colors chars-per-pixel */
"80 80 206 2 ",
"   c #051625",
".  c #051926",
"X  c #0A1A26",
"o  c #03172B",
"O  c #08172A",
"+  c #051A2D",
"@  c #091B2C",
"#  c #111F2C",
"$  c #031731",
"%  c #041C32",
"&  c #0A1D32",
"*  c #041E39",
"=  c #0A1E39",
"-  c #0D202F",
";  c #052035",
":  c #0B2134",
">  c #05213A",
",  c #0A223A",
"<  c #132432",
"1  c #11243A",
"2  c #152A3B",
"3  c #1B2C3B",
"4  c #1C2A34",
"5  c #1E303E",
"6  c #212E3D",
"7  c #26333E",
"8  c #042441",
"9  c #0D2A43",
"0  c #1E2E43",
"q  c #132C42",
"w  c #1E3143",
"e  c #1F354A",
"r  c #223444",
"t  c #263847",
"y  c #2B3946",
"u  c #23364A",
"i  c #2B3C4B",
"p  c #28384A",
"a  c #303B43",
"s  c #323E4A",
"d  c #303747",
"f  c #2E3E52",
"g  c #2E404E",
"h  c #35414D",
"j  c #3B444C",
"k  c #2E4256",
"l  c #344452",
"z  c #3B4954",
"x  c #3C4C5C",
"c  c #394855",
"v  c #3C5162",
"b  c #434C53",
"n  c #434F5A",
"m  c #495156",
"M  c #44515D",
"N  c #4A535B",
"B  c #4D585E",
"V  c #54585D",
"C  c #455463",
"Z  c #4B5663",
"A  c #465866",
"S  c #4C5A64",
"D  c #4B5C6B",
"F  c #525B64",
"G  c #525C69",
"H  c #555B63",
"J  c #4F616F",
"K  c #54626D",
"L  c #5A636C",
"P  c #5D6266",
"I  c #536473",
"U  c #5D6973",
"Y  c #5F6D7A",
"T  c #596573",
"R  c #5E707A",
"E  c #61666A",
"W  c #646A6E",
"Q  c #696C6E",
"!  c #626C73",
"~  c #636F79",
"^  c #65727D",
"/  c #6B747C",
"(  c #6E757B",
")  c #74797D",
"_  c #75787B",
"`  c #637381",
"'  c #6E7F8B",
"]  c #6E7883",
"[  c #727C85",
"{  c #7A7E82",
"}  c #727F89",
"|  c #797D88",
" . c #7C8185",
".. c #75808B",
"X. c #7B848B",
"o. c #7F888F",
"O. c #768187",
"+. c #7D8C9C",
"@. c #798994",
"#. c #7E909A",
"$. c #828484",
"%. c #818589",
"&. c #87898D",
"*. c #838C94",
"=. c #848E9A",
"-. c #888F95",
";. c #8D9295",
":. c #84919B",
">. c #8A949C",
",. c #939594",
"<. c #94999D",
"1. c #9D9E9E",
"2. c #939597",
"3. c #A6A29F",
"4. c #959BA3",
"5. c #9A9EA2",
"6. c #989FA9",
"7. c #8595A2",
"8. c #9AA1A4",
"9. c #96A2AB",
"0. c #9BA4AB",
"q. c #9CA6B1",
"w. c #9DA8B2",
"e. c #A5A5A6",
"r. c #A7A9A6",
"t. c #ACAAA7",
"y. c #A4A6A9",
"u. c #A9A7AA",
"i. c #A5AAAD",
"p. c #ABABAB",
"a. c #AAA6A4",
"s. c #B1AEAB",
"d. c #AEB0AE",
"f. c #B1B1AE",
"g. c #B8B1AB",
"h. c #A2A7B1",
"j. c #A2ABB3",
"k. c #ADAEB1",
"l. c #B1AEB1",
"z. c #ADB1B3",
"x. c #ABB4BB",
"c. c #B2B2B2",
"v. c #B2B6BB",
"b. c #B5BABD",
"n. c #BBBBBB",
"m. c #BAB8B5",
"M. c #C3C1BE",
"N. c #CFC4BE",
"B. c #BCBFC2",
"V. c #B2B9C2",
"C. c #C1BEC0",
"Z. c #BCC3C6",
"A. c #BCC3CB",
"S. c #BFC9CD",
"D. c #C2C2C2",
"F. c #C7C8C3",
"G. c #CAC9C6",
"H. c #C2C6CA",
"J. c #C4C9CD",
"K. c #CCCCCC",
"L. c #C9C5C6",
"P. c #D1CECD",
"I. c #CFD0CD",
"U. c #D3D1CE",
"Y. c #C5CAD1",
"T. c #CCCDD2",
"R. c #D1CFD0",
"E. c #CCD1D4",
"W. c #CCD3D9",
"Q. c #D4D4D4",
"!. c #D9D6D4",
"~. c #D5D8D6",
"^. c #DCDAD7",
"/. c #D4D6D9",
"(. c #D6D9DB",
"). c #DDDDDD",
"_. c #DAD5D9",
"`. c #E1DEDC",
"'. c #DEE2DF",
"]. c #E2E1DD",
"[. c #D3DBE1",
"{. c #DCDFE2",
"}. c #DADEE9",
"|. c #E0DFE4",
" X c #DDE1E4",
".X c #DEE6ED",
"XX c #E5E5E5",
"oX c #E9E6E5",
"OX c #E6E8E6",
"+X c #E9E8E5",
"@X c #E4E6EA",
"#X c #E6E9EC",
"$X c #ECECEC",
"%X c #E9E7E8",
"&X c #F2EDEB",
"*X c #F3F1EE",
"=X c #ECEEF2",
"-X c #E5ECF2",
";X c #EDF2F4",
":X c #EDF3F9",
">X c #F3F3F3",
",X c #FCF9F6",
"<X c #F3F6F9",
"1X c #F6FBFD",
"2X c #FEFFFE",
"3X c #FAF7F7",
/* pixels */
"2XQ.D.D.D.D.D.D.D.D.D.D.D.D.D.D.D.).2X2X2X$XD.D.D.D.D.D.Z.M.D.M.D.D.(.4.V Z Z Z Z B B S *.Q.M.D.M.D.D.D.D.D.M.D.D.D.%X2X2X2XXXC.M.D.D.D.D.D.D.D.D.D.D.D.D.D.Q.,X",
"Q.p.c.c.c.c.l.c.d.c.c.c.z.s.c.c.c.p.).2X,Xc.f.f.c.s.c.z.f.c.l.c.f.f.{.m < % : & = ; & , d _.m.s.c.p.z.c.d.f.z.z.c.p.c.%X2XOXc.l.k.c.c.c.c.p.c.c.z.f.c.c.c.c.u.K.",
"D.p._.OX%XOX%XOXOXOX%X%XOX%XOXOXQ.u.K.2X{.f.D.XXOX@X*X&XOXOX%X XXXOX>X] ; % o + + + % : L ;X].%XXXOX#X%X$X*XXXOX%XG.p./.2XQ.r.P.%XOX%XOX%X%XOX%X%XOX%XOX%X).c.D.",
"D.c.$X2X2X2X2X2X2X2X2X2X2X2X2X2XXXr.K.2X).p.K.2X,X2X2X2X2X2X2X2X2X2X2X0.O % o O + + o & @.1X2X2X2X2X2X2X1X2X2X2X2XU.r.^.2XK.e.).2X2X2X2X2X2X2X2X2X2X2X2X2X>Xc.D.",
"D.c.%X2X2X2X2X2X2X2X2X2X2X2X2X2X Xr.Q.2X].p.J.2X2X2XJ K 2X2X2X2X2X2X[.I @ + + ; % + + + C W.2X2X2X2X2X2X^ C 1X2X2XI.p._.2XQ.r./.2X2X2X2X2X2X2X2X2X2X2X2X2X=Xc.D.",
"D.c.OX2X2X2X2X2X2X2X2X2X2X2X2X2X).p.K.2XXXp.D.2X2XY ; + K 2X2X2Xv.M + + + O % o % + + o $ @ i w.<X2X2X] O % C 2X2XJ.p.^.2XQ.p.Q.2X2X2X2X2X2X2X2X2X2X2X2X2X&Xc.D.",
"m.i.OX2X2X2X2X2X2X2X2X2X2X2X2X2X).u.K.2XXXe.{.2X^ % o O + Y i.t + + + % + @ . + O . . + + + + + 6 9...+ o + + C 2X;Xe.Q.2XU.p._.2X2X2X2X2X2X2X2X2X2X2X2X2X$Xc.D.",
"_.n.>X2X2X2X2X2X2X2X2X2X2X2X2X2X|.r.U.2X).n.<XW ; O + % O o % o + + + + + + % O % o % % + O + @ O % + + + + + > V .XJ.!.2XU.u.(.2X2X2X2X2X2X2X2X2X2X2X2X2X$Xc.D.",
"2X2X2X2X2X2X2X2X2X2X2X2X2X2X2X2X{.r.P.2X%X/.n % + + + o % o + % + + + + i Y O.4.5.@.` l o + ; + + + . + o + . + + i J.&X2XK.t.(.2X2X2X2X2X2X2X2X2X2X2X2X2X&Xc.D.",
"2X2X2X2X2X2X2X2X2X2X2X2X2X2X2X2X).r.U.2X&Xy % @ + o + O O % o + + t >.#X2X2X2X1X2X2X2X2X=X4.k o + + + % ; + % + O & 3 ).2XQ.p.Q.2X2X2X2X2X2X2X2X2X2X2X2X2X$Xc.D.",
"2X2X2X2X2X2X2X2X2X2X2X2X2X2X2X2X`.r.E.2XXXO > o + ; + @ . & + @ *.2X2X2X2X2X2X;X;X1X2X2X2X2X2X8.< o + + O + o + + > ; G.,XQ.u.^.2X2X2X2X2X2X2X2X2X2X2X2X2X$Xc.D.",
"_.D.>X2X2X2X2X2X2X2X2X2X2X2X2X2X`.r.E.2X>Xv.< , + + + O % o t (.2X2Xz @ Z 2XY.r < 8.2XX.- 4 ;X,X.Xx + o % O + + % @ <.<X2XE.p.!.2X2X2X2X2X2X2X2X2X2X2X2X2X=Xc.D.",
"n.e.OX2X2X,X2X2X2X2X2X2X2X2X2X2X{.p.K.,X).U.K.x % + + + o l :X2X2X2X@ % 2 2Xi.< @ *.2XD % % }.2X2X2XZ + + ; + o p z.`.Q.2XU.p.Q.2X2X2X2X2X2X2X2X2X2X2X2X2X$Xc.D.",
"D.c.OX2X2X2X2X2X2X2X2X2X2X2X2X2X Xu.U.2XXX3.2X9.= o % & i :X2X2X2X2X*.K 4.2X%X~ / {.2XV.L ~ 2X2X,X2X2XM + o + - ..2Xa._.2XP.u.(.2X2X2X2X2X2X2X2X2X2X2X2X2X$Xc.D.",
"D.c.OX2X2X2X2X2X2X2X2X2X2X2X2X2X`.u.U.2X).Z.J.7 % + + + .X2X2X>X X'.2X2X2X X#X2X2X;X@X,X2X2X X X;X2X2X2X3 % o % < v.K./.2XU.p.(.2X2X2X2X2X2X2X2X2X2X2X2X2X>Xc.D.",
"D.s.$X2X2X2X2X2X2X2X2X2X2X2X2X2X].i.K.2X).^.W ; O + + 9.2X2X2XZ.% O >.2X} o @ 1X2Xc : } 2XT.@ % q.2X,X2XS.@ % % % P ^.(.2XE.u.^.2X2X2X2X2X2X2X2X2X2X2X2X2X>Xc.D.",
"B.c./.OX%XOXOX%XOXOX%XOXOXOXOXOXQ.p.K.2XoXH.5 ; o % w 3X%X#X3X<., > U 2XZ , > I.$X, > l 2X0.: > ) 1X%X%X2Xb & + ; , x.].2XK.k.P.%XOXOX%X%XOXOXOX%XOXOX%X%X).c.D.",
"Q.p.c.c.l.c.l.c.c.c.l.c.c.l.c.l.p.F.2X2X2Xi.@ o % & [ ].D.G.^.,.x F ,.2X[ x S C.!.F x ! &Xz.F M %.Q.G.K._.*.> o @ % $.2X2X2XK.s.c.c.c.s.z.c.c.c.l.f.z.l.c.c.p.K.",
"2XQ.D.D.D.D.D.D.D.D.D.D.D.D.D.D.P.i.0.j.i.n @ @ % + F.U.z.y.i.K. XK.c.5.P.].U.i.r.E.).!.e.k.J.).P.c.i.i.D.Q.3 + . ; j y.w.h.0.P.B.D.D.M.D.D.D.D.C.D.D.D.D.n.E.,X",
"2X2X2X,X2X2X,X2X2X2X2X2X2X2X2X2X2XM : + O & + + @ F 2X;Xx 1 A 2X2X| o 1 =X2Xk.* = 4.2X2Xf o Z 2X2X:.; + /.2X%.& % + @ & + @ i 2X2X2X2X2X2X2X2X2X2X2X2X2X2X2X2X2X",
"2X$X).). X).XX).XX).).XX).'.XXXX#Xl % ; % % + % ;  .1XJ.2 9 r ;X3XN 8 , Z.,Xi.> ; 7.2X[.: 8 e %X2XI , , x.2X1.; % + o % % % e {.%X X).XX{.].'.XX).'.'.).'.).%X2X",
"%Xc.p.p.r.p.u.r.p.p.p.p.p.u.u.p.F.g % o @ o + O = _ %Xu.B m E H.G.( M m e.`.i.] / y.`.f.V M P n.K. .m b <.XX>.+ + % + + % @ 3 c.m.p.u.p.p.p.u.u.u.p.u.u.p.u.k.).",
"D.c.G.T.P.K.K.Q.K.K.Q.K.K.K.K.Q.].h : O o % + + & x.2X$X2X2X,X@XOX,X2X2XOXC.).2X2X%XC.].2X2X2X@X%X1X2X2X=X3XJ.+ O % . O @ & r U.Q.K.K.K.K.K.K.K.U.K.K.Q.K.G.c.D.",
"C.c.%X2X2X2X2X2X2X2X2X2X2X2X2X2X2XD % + + % + + + c S D S F D S D D V D C s l C S j y C D S S D G F F D D Z m % + + + % + o k 2X2X2X2X2X2X2X2X2X2X2X2X2X2X>Xc.D.",
"D.f.OX2X2X2X2X2X2X2X2X2X2X2X2X2X2XZ + + + % % + + + % + % % % % % % % + % & % % % % & % % & % & @ + % % % X + % + o % X @ o g 2X2X2X2X2X2X2X2X2X2X2X2X2X2X>Xc.D.",
"D.z.%X2X2X2X2X2X2X2X2X2X2X2X2X2X2XM + + O + O . + + + & o o + O % o % o % + % + + % + + % + o % + + . % % + % o O ; % O + % i 2X2X2X2X2X2X2X2X2X2X2X2X2X2X$Xc.D.",
"D.c.OX2X2X2X2X2X2X2X2X2X2X2X2X2X2Xy % o % + + + % + o + @ @ + @ o % + + + + + + + + % + + + + + + x x.5 + + % + O + + + % % - 2X2X2X2X2X2X2X2X2X2X2X2X2X2X$Xc.D.",
"D.c.%X2X2X2X2X2X2X2X2X2X2X2X2X2X2X>.C D Z 3 + % + + + O + @ % + + + + + + + + + + + + + + + + + % ..2X:.+ o + @ + O 3 A Z A X.2X2X2X2X2X2X2X2X2X2X2X2X2X2X$Xc.D.",
"D.z.OX2X2X2X2X2X2X2X2X2X2X2X2X2X2X2X,X2X2Xx.X o + + + + + + + % + + + + + + + + + @ + + + + + + o ^ 2X>.+ + ; . % . >.2X2X1X2X2X2X2X2X2X2X2X2X2X2X2X2X2X2X$Xc.D.",
"D.f.%X2X2X2X2X2X2X2X2X2X2X2X2X2X2X2X2X2X2X2X< % + + + o + + + ; + + + + + + + + + + + + + + + + + ^ 2X-.+ + o . + @  X,X2X2X2X,X2X2X2X2X2X2X2X2X2X2X2X2X2X*Xc.D.",
"D.c.OX2X2X2X2X2X2X2X2X2X2X2X2X2X2X2X2X2X2X2X^ $ + + ; + o @ M 4 + + + + + + + + + + + + + + + + o ^ 2X=.+ + ; + % M 2X2X,X2X2X2X2X2X2X2X2X2X2X2X2X2X2X2X2X$Xc.C.",
"D.c.OX2X2X2X2X2X2X2X2X2X2X2X2X2X2X2X2X2X2X2X[.@ + + + + - M 1Xj.% @ % @ + + + + + + + % + + + + o ^ 2X:.+ + o O + A.2X2X2X2X2X2X2X2X2X2X2X2X2X2X2X2X2X2X2X$Xc.D.",
"D.c.#X2X2X2X2X2X2X2X2X2X2X2X2X2X2X2X2X,X2X2X1X*.@ o + @ o D 2Xv.o & % + + @ O % + + + + + + + + + ` 2X:.. + O + L 2X2X2X2X2X2X2X2X2X2X2X2X2X2X2X2X2X2X2X2X$Xc.D.",
"D.f.OX2X2X2X2X2X2X2X2X2X2X2X2X2X2X2X2X2X,X2X2X..+ + + + & C 2Xi.@ o + + + o + + o + & o + + + + @ R 2X:.+ + + + J 2X2X,X2X2X2X2X2X2X2X2X2X2X2X2X2X2X2X2X2X;Xc.D.",
"C.c.%X2X2X2X2X2X2X2X2X2X2X2X2X2X2X2X2X2X2X2X} O + @ % + % A 2Xi.o & O + + % o + % o o : + + + + @ ` 2X@.; . + % % T 2X2X2X2X2X2X2X2X2X2X2X2X2X2X2X2X2X2X2X$Xc.D.",
"D.c.%X2X2X2X2X2X2X2X2X2X2X2X2X2X2X2X2X2X,X` o + + + o % o A 2Xz.& o o + + o ; O + % + + o + + + + ^ 2X>.+ + + + X % D ;X2X2X,X2X2X2X2X2X2X2X2X2X2X2X2X2X2X>Xm.n.",
"n.c.OX2X2X2X,X2X2X2X2X2X2X2X2X2X,X2X2X2X,X- > o % + + + % C 2X0.& . + o @ X % + + o ; o % + O % + ^ ,X*.% O + + @ > & #X2X2X2X,X2X2X2X2X2X2X2X2X2X2X2X2X2X%Xc.C.",
"G.c.D.D.H.G.D.D.D.D.D.D.D.D.D.D.D.D.D.Z.Q.x.- ; o % + & % h 3X .; @ ; < V./ % + + + o + + o + + , N 2XW , o o % % @ 0._.Z.M.D.D.D.D.D.D.D.D.D.D.D.D.D.D.D.D.c.D.",
">Xn.p.c.p.p.c.k.c.z.c.c.p.c.l.l.z.c.l.z.d.^.i.@ % o o % % s >X( % + % e 1Xp.@ % + + @ + + + @ o & s 2XP % @ % + % 1.`.f.z.k.c.l.s.k.c.p.c.l.l.s.l.s.c.c.c.p.n.OX",
"2X2X>X$X>X>X*X$X>X&X>X>X>X*X>X=X<X$X+X%X%XXX2X/.u & % o & M 2X-., % & i ,XH.@ % O A +.2 + + + % , ] 2X{ > o ; , J.,X+X%X+X%X-X*X;X*X>X>X>X>X>X=X>X;X>X$X>X>X2X2X",
"2X2X2X2X1X2X2X2X2X2X2X2X1X2X2X2X2X2X2X2X2X2X,X2X).# & > & M 3X/.h X % i 2XG.& % + 6.,XT & = % l h.2X2X>.+ > + G.2X,X2X2X2X2X2X2X2X1X2X2X1X2X2X2X2X2X1X2X2X2X2X2X",
",XD.c.m.n.m.m.c.v.n.m.m.n.m.m.b.c.G.,X2X2X(.v.m.XXx.@ @ % h Q.Q.@X.., 3 ).,.+ % > L 2XV * n 0.K.2X2X2X .; 1 <.%Xm.v.Q.2X2X2XK.c.n.m.m.m.n.m.m.b.m.m.n.m.m.m.n.>X",
"K.p.m.n.m.n.n.n.m.m.n.m.m.m.n.m.n.p._.2X$Xc.m.v.m.(.D./ ; k I.n.+X<.; 3  X,.: + ; P 2Xb , e.>XN.*X2X2X .1 U ,Xm.m.m.k.XX2XXXk.m.n.n.n.m.m.m.b.m.n.v.n.n.b.n.c.D.",
"Z.c.|.>X<X>X>X>X<X>X>X>X>X<X>X<XQ.p.I.2XOXu.G.>X>X;X2XJ.: x ,X<X,Xb.% t 2XZ.+ % + %.2XT = b.1X2X2X,X2X#.O #.2X>X<XK.p.Q.2XK.p.Q.>X>X>X>X<X>X>X>X>X>X>X>X>XXXc.n.",
"D.l.$X2X2X2X2X2X2X2X2X2X2X2X2X2XXXu.K.2X).p.G.2X2X2X2XJ.+ C 2X2X2XJ.@ i 2XW.+ o % =.2X^ o J.2X1X2X,X2X+.O 9.2X2X2XI.p.^.2XQ.e._.2X2X2X2X2X2X2X2X2X2X2X,X2X>Xc.D.",
"D.l.%X2X2X2X2X2X2X2X2X2X2X2X2X2X(.u.Q.2XXXu.G.2X2X2X2XA.O n 2X2X2XA.+ u 2XY.. O o -.2XR . Z.2X2X2X2X2X+.O 0.2X2X2XU.i.(.2XK.p.~.2X2X2X2X2X2X2X2X2X2X2X2X2X$Xc.D.",
"D.c.XX2X2X2X2X2X2X2X2X2X2X2X2X2X].u.R.2XXXp.K.2X2X,X2XA.+ C 2X2X2XA.+ i 2X3X[.[.[.$X2XR + C.2X2X2X2X2X) + ` 2X2X2XK.p._.2XQ.p.Q.2X2X2X2X2X2X2X2X2X2X2X2X2X$Xc.D.",
"D.d.XX2X2X2X2X2X2X2X2X2X2X2X2X2X).p.Q.2X{.p.G.2X2X2X2XA.o C 2X2X,XA.+ p 2X2X2X2X2X2X2XT % H.2X2X2X2X2XB.@ + x.2X2XQ.p.(.,XQ.p._.2X2X2X2X2X2X2X2X2X2X2X2X2X*Xc.D.",
"D.c.OX2X2X2X2X2X2X2X2X2X2X2X2X2X).u.E.2XXXu.D.2X2X2X2XZ.% v 2X2X2XZ.o i 2X2X2X2X2X2X2XY O Z.2X2X,X2X,X2X=.% %  X2XG.s.~.2XQ.u.Q.2X2X2X2X2X2X2X2X2X2X2X2X2X$Xc.D.",
"D.c.OX2X2X2X2X2X2X2X2X2X2X2X2X2X].u.U.2X].p.K.2X2X2X2XK.+ v 2X2X2XA.o t 2X2X2X2X2X2X2XY + Z.2X2X2X2X2X2X2XT o r 1X*Xe.(.,XQ.k.Q.2X2X2X2X2X2X2X2X2X2X2X2X2X=Xc.D.",
"D.c.OX2X2X2X2X2X2X2X2X2X2X2X2X2X`.u.Q.2XXXp.G.2X2X2X2XA.o c 1X2X2XZ.% i 2X2X2X2X2X2X2XY + Z.2X2X2X2X2X2X,X2Xf % S #Xv.~.2XQ.r._.2X2X2X2X2X2X2X2X2X2X2X2X2X$Xc.M.",
"D.l.%X2X2X2X2X2X2X2X2X2X2X2X2X2X).r.E.2XXXu.D.2X2X2X1Xh % ! 2X2X2XZ.o i 1X2X2X2X2X2X2XR + Z.2X2X2X2X2X1X2X2X-X0 @ &._._.2XQ.p.~.2X2X2X2X2X2X2X2X2X2X2X2X2X*Xc.D.",
"D.c.OX2X2X2X2X2X2X2X2X2X2X2X2X2X).p.K.2XXXp.G.2X2X2XM o g <X,X2X2XH.o i 2X2X2X2X2X2X2XY + A.2X2X,X2X2X2X2X,X2XG ; *.!.(.2XQ.r.~.2X2X2X2X2X2X2X2X2X2X2X2X2X$Xc.D.",
"D.z.%X2X2X2X2X2X2X2X2X2X2X2X2X2X'.u.U.2X`.p.H.2X2X..+ < .X2X2X2X2XB.+ t 2X2X2X,X2X2X2XY + Z.2X2X2X2X2X2X2X2X2XC % ;.I._.,XQ.p.Q.2X2X2X2X2X2X2X2X2X2X2X2X2X$Xc.D.",
"D.c.OX2X2X2X2X2X2X2X2X2X2X2X2X2X).u.Q.2XXXu.G.2Xx.+ + A.2X2X2X,X2XH.% i 2X2X2X2X2X2X2X~ + Z.2X2X2X2X2X,X2X2X1XC % ;.Q._.2XE.t._.2X2X2X2X2X2X2X2X2X2X2X2X2X=Xc.D.",
"D.f.OX2X2X2X2X2X2X2X2X2X2X2X2X2X'.u.K.2XXXp.`.$X% % 9.2X,X2X2X2X2X Xo i 2X2X2X2X2X2X2XY + Z.2X2X2X2X2X2X2X,X2XC : ,.^.XX2XQ.r._.2X2X2X2X2X2X2X2X2X2X2X2X2X$Xc.D.",
"D.c.$X2X2X2X2X2X2X2X2X2X2X2X2X2X.Xr.P.2X].r.1Xn.% i 2X2X2X2X2X2Xv.Y % 2 #.*.:.+.+.T.2XR ; J.2X2X2X2X,X2X2X2X2XZ + 2.!. X2X].e.Q.2X2X2X2X2X2X2X2X2X2X2X2X2X>Xc.C.",
"D.c.K.Q.Q.Q.~.Q.Q.Q._.Q.Q.Q.Q.Q.G.p.T.2XXXp.@X5.; r ^.).Q.!.$Xx.o > % % @ @ : + @ . (.E , 8.%X_./.E.*X>.k t t % ; : 2 e M b.D.K.Q.Q.Q.Q.Q.Q._.Q.Q.Q.Q._.!.E.c.D.",
"XXf.p.u.u.p.u.p.p.p.p.p.p.u.p.u.t.m.OX2X3XD.G. .> 3 z.m.i.r.U.) : < ! P H G ! N % % y.H % ,.Q.u.u.m.c.- ; + . + + @ : % & / >Xu.u.p.p.u.p.p.p.p.u.p.u.r.p.p.p._.",
"2XXXQ.Q.Q.Q./.Q.Q.Q.Q.Q.Q.!.Q.~.U.%X2X2X2X,X$X8.; r ~.^.!.!.%X8., n 2X2X2X,X2XK.% & Q.L > %.2XQ.^.(.~.6 % } J.b.c.n.[...@ -.2XQ.(.Q.Q.Q.Q.Q.Q.Q.^.Q.~.Q.Q.Q.).2X",
"2X2X2X2X2X2X2X2X2X2X2X2X2X2X2X2X2X2X2X2X2X,X2X X& i 2X2X2X2X2XJ.> C 2X2X2X2X2X{.: % 2Xi.; 1 %X2X2X2X2Xf > x.2X2X2X2X2X<.% :.2X2X2X2X2X2X2X2X2X2X2X2X2X2X2X2X2X2X",
"2X_.J.D.K.G.G.K.G.G.G.K.K.G.K.G.K.J.K.I.O./ _ F % < / / ( 5.*X,.> l ^.P.D.!.2X{.& % n.2Xb 8 6 K.].I.K.0 :  .+XG.J.K.%XQ 9 U %XK.G.K.G.K.G.K.G.G.G.K.J.K.K.D.Q.2X",
").p.p.f.u.p.d.u.p.k.p.p.p.u.p.p.t.p.K. .> > , , * > = @ , : XX&.> t G.k.c.r.*X X; @ 2. XD.2 > a Q.G.g.3 , Q ^.p.k.t.).V ; K _.t.p.p.p.p.p.p.p.p.p.u.p.p.p.z.p.Q.",
"C.c.Q.`.).XX).).).XX|.).'.XX`. X]. X>X$.= u %.X.%. .*.' + 0 $Xc., m 2X2X1XQ.3X;X> % 1.XX,XU.* = ! 1X].u * ;.>X'.].`.:X[ > ) *X'.).).XX).{.XX]. X).XX).].`.~.c.C.",
"C.z.$X2X2X2X2X2X2X2X2X2X2X2X2X2X2X2X2Xz.+ K 2X2X2X2X2X2XO t 2XE.+ c Y.Y.m.&.8.5.> o ,.2X2X,XS.: ; =X2Xg @ A.2X2X2X2X2X9.@ :.2X2X2X2X2X2X2X2X2X2X2X2X2X2X2X>Xc.D.",
"M.c.%X2X2X2X2X2X2X2X2X2X2X2X2X2X2X2X2X0.o C 2X2X,X2X2X(.O w 2XW.% % % % > ; ; ; % @ u.>X2X2X1Xt % XX2X2 o v ^ ^ ` ^ ^ k + O.2X2X2X2X2X2X2X2X2X2X2X2X2X2X2X>Xc.D.",
"D.f.OX2X2X2X2X2X2X2X2X2X2X2X2X2X2X2X2Xw.+ C 2X2X2X2X2X).% e 2X2Xo.N M C x i k M F { T.%X2X2X2Xr o  X2XK + o o % % o @ O O j.2X2X2X2X2X2X2X2X2X2X2X2X2X2X2X$Xc.D.",
"D.z.OX2X2X2X2X2X2X2X2X2X2X2X2X2X2X2X2Xw.o M 2X2X2X2X2X(.% w 2X2X2X2X2X2X2XG.U.2X2X(.z.XX,X2X2Xw + (.2X2Xj.i.w.w.q.i.0.w.V.2X2X2X2X2X2X2X2X2X2X2X2X2X2X2X2X$Xc.D.",
"D.k.%X2X2X2X2X2X2X2X2X2X2X2X2X2X2X,X2X0.o K 2X2X2X2X2X2Xo 5 2X,X2X1X2X2X3Xn.C.2X2XD.z.%X2X2X2Xe o  X,X2X2X,X2X2X2X2X2X2X2X2X2X2X2X2X2X2X2X2X2X2X2X2X2X2X2X&Xc.D.",
"D.c.OX2X2X2X2X2X2X2X2X2X2X2X2X2X2X2X2X8.+ i w.0.w.0.w.>.+ w 2X2X2X2X2X2X+Xc.n.1X2XZ.s.2X2X2X2Xt + :X2X2X2X2X2X2X2X,X2X2X2X2X2X2X2X2X2X2X2X2X2X2X2X2X2X2X2X$Xc.D.",
"D.c.%X2X2X2X2X2X2X2X2X2X2X2X2X2X2X2X2Xx.o @ X @ o @ o o o e 2X2X2X2X2X2X&Xv.B.1X2XD.R.>.D M N % + c C C / :X2X2X2X2X2X2X,X2X2X2X2X2X2X2X2X2X2X2X2X2X2X2X2X$Xc.D.",
"D.f.OX2X2X2X2X2X2X2X2X2X2X2X2X2X2X2X2X1X+.A C C C C A M K S.2X,X2X2X2X2X&Xc.n.,X2XK.n.@ % + o + % O + O X i.1X2X2X2X2X2X2X2X2X2X2X2X2X2X2X2X2X2X2X2X2X2X2X$Xc.D.",
"D.c.OX2X2X2X2X2X2X2X2X2X2X2X2X2X2X2X2X2X2X2X2X2X2X2X2X2X2X2X2X2X2X2X2X2X$Xc.B.,X2XQ.k.o & V.Z.Z.A.Z.Z.l % 9.2X2X2X2X2X2X2X2X2X2X2X2X2X2X2X2X2X2X2X2X2X2X2X$Xc.D.",
"D.c.OX2X2X2X2X2X2X2X2X2X2X2X2X2X2X2X2X2X2X2X2X2X2X2X2X2X2X2X2X2X2X2X2X2X$Xm.n.1X2XQ.l.+ + 2X2X2X2X2X2XD o w.2X2X2X2X2X2X2X2X2X2X2X2X2X2X2X2X2X2X2X2X2X2X2X$Xc.D.",
"D.c.%X2X2X2X2X2X2X2X2X2X2X2X2X2X2X2X2X2X2X2X2X2X2X2X2X2X2X2X2X2X2X2X2X2X$Xm.n.,X2XQ.k.@ @ <X2X,X,X2X2XN % 0.2X2X2X2X2X2X2X2X2X2X2X2X2X2X2X2X2X2X2X2X2X2X2X;Xc.D.",
"D.p.%X2X2X2X2X2X2X2X2X2X2X2X2X2X2X2X2X2X2X2X2X2X2X2X2X2X2X2X2X2X2X2X2X2X=Xc.n.2X2XK.c.o % :X2X2X2X2X2XC o i.2X2X2X2X2X2X2X2X2X2X2X2X2X2X2X2X2X2X2X2X2X2X2X&Xc.D.",
"D.c.$X2X2X2X2X2X2X2X2X2X2X2X2X2X2X2X2X2X2X2X2X2X2X2X2X2X2X2X2X2X2X2X2X2X>Xc.b.,X2XQ.z.O : 2X2X2X2X2X2XD o j.2X2X2X2X2X2X2X2X2X2X2X2X2X2X2X2X2X2X2X2X2X2X2X>Xv.M.",
"C.c.).$X$X$X$X2X2X2X2X<X$X$X$X*X$X$X$X$X$X$X$X$X$X$X$X$X$X$X$X$X&X>X=X$XXXm.v.2X2XK.c.@ @ 2X2X2X2X2X2XC : <.1X$X%X$X$X$X$X$X$X$X$X$X$X$X$X$X$X$X=X$X$X&X$XXXc.D.",
"Q.k.c.c.c.c.p.G.2X2X,XD.u.c.c.c.c.c.c.c.c.c.c.c.c.c.c.c.c.c.c.c.c.c.c.c.c.p.G.2X2X^.1.. + 7 j s y g j   : E ^.c.c.c.c.c.c.c.c.c.c.c.c.c.c.c.c.c.c.c.c.c.c.c.p.G.",
",XK.D.C.D.D.m./.2X2X2XK.n.D.D.D.D.D.D.D.C.D.D.D.D.D.D.D.D.D.D.D.D.D.D.D.D.D.>X2X2X2XP.k 9 @ % > & % & ; q >.`.D.D.D.D.D.D.D.D.D.D.D.D.D.D.D.D.D.D.D.D.D.n.D.K.>X"
};
