/* XPM */
static char *_b54760056194f25835e7ef4bed52096TgV7HSuBKLLwjQuT[] = {
/* columns rows colors chars-per-pixel */
"40 40 202 2 ",
"   c #010103",
".  c #080000",
"X  c #01020D",
"o  c #08020E",
"O  c #010214",
"+  c #00051B",
"@  c #010B1C",
"#  c #070A17",
"$  c #010521",
"%  c #020C23",
"&  c #060D2A",
"*  c #080E24",
"=  c #031223",
"-  c #0B1525",
";  c #03162B",
":  c #09152C",
">  c #041A2C",
",  c #0B1B2D",
"<  c #141B27",
"1  c #111D2D",
"2  c #001630",
"3  c #031A33",
"4  c #0A1B32",
"5  c #081839",
"6  c #0D2128",
"7  c #16242D",
"8  c #0C2234",
"9  c #022038",
"0  c #092038",
"q  c #142433",
"w  c #1B2935",
"e  c #15273C",
"r  c #1D2E3D",
"t  c #192533",
"y  c #222B3B",
"u  c #2C363E",
"i  c #1D2E43",
"p  c #1F3646",
"a  c #252D40",
"s  c #233445",
"d  c #2C3448",
"f  c #29394D",
"g  c #25384D",
"h  c #373D4B",
"j  c #293D54",
"k  c #2B424A",
"l  c #38414A",
"z  c #2D4155",
"x  c #354453",
"c  c #394454",
"v  c #3B4A56",
"b  c #31445D",
"n  c #3C4B5B",
"m  c #334A52",
"M  c #3A4E62",
"N  c #3E5263",
"B  c #3B5168",
"V  c #424C59",
"C  c #44405B",
"Z  c #44525C",
"A  c #4C565F",
"S  c #445463",
"D  c #495463",
"F  c #4B5964",
"G  c #4C5C6B",
"H  c #525D66",
"J  c #565F6E",
"K  c #535E74",
"L  c #56636D",
"P  c #59636C",
"I  c #59686F",
"U  c #536271",
"Y  c #5A6475",
"T  c #5C6A74",
"R  c #5B667A",
"E  c #5A6B7B",
"W  c #626E75",
"Q  c #66737D",
"!  c #6B737C",
"~  c #6A7183",
"^  c #6B7983",
"/  c #6E7788",
"(  c #6B7989",
")  c #737B84",
"_  c #7A7C86",
"`  c #737C8A",
"'  c #7A7E8B",
"]  c #777C90",
"[  c #76828B",
"{  c #7C848D",
"}  c #7D8995",
"|  c #868A89",
" . c #838C93",
".. c #888F95",
"X. c #879797",
"o. c #85929C",
"O. c #8A929C",
"+. c #8B9096",
"@. c #929796",
"#. c #93969B",
"$. c #838EA0",
"%. c #8C9AA2",
"&. c #8794A1",
"*. c #949CA4",
"=. c #999DA5",
"-. c #939EA8",
";. c #9E9EAD",
":. c #A09FAD",
">. c #9CA1A4",
",. c #9CA5AA",
"<. c #9DA9AC",
"1. c #A0A6AC",
"2. c #A5ABAD",
"3. c #ADAEAD",
"4. c #A2A6A5",
"5. c #AEB2AF",
"6. c #A4ACB5",
"7. c #ABAEB2",
"8. c #ABADB9",
"9. c #ABB2B4",
"0. c #A4B1BA",
"q. c #AEB3BB",
"w. c #A5B8BF",
"e. c #B5B5B5",
"r. c #B9B9B5",
"t. c #B4B5BB",
"y. c #B5B9BC",
"u. c #BABABA",
"i. c #B9B5B4",
"p. c #C0BFBD",
"a. c #B6C0B8",
"s. c #BFC1BE",
"d. c #C1C1BC",
"f. c #B5BCC4",
"g. c #BABDC1",
"h. c #B7BEC8",
"j. c #BDBCCA",
"k. c #BAC2C5",
"l. c #BCCACD",
"z. c #B7C5C6",
"x. c #BFCCD2",
"c. c #C4C4C4",
"v. c #CAC4C5",
"b. c #C6C8C5",
"n. c #CBCBC6",
"m. c #C3C5CA",
"M. c #C9C6CC",
"N. c #C3CACC",
"B. c #CBCBCB",
"V. c #D0CFCD",
"C. c #CED0CD",
"Z. c #D3D3CF",
"A. c #D8D8CE",
"S. c #C4CBD3",
"D. c #CACDD4",
"F. c #C4C7D0",
"G. c #D2CFD2",
"H. c #CBD2D4",
"J. c #CDD4DB",
"K. c #CFDDDD",
"L. c #D4D4D4",
"P. c #DAD4D4",
"I. c #DCDAD5",
"U. c #D5D3D9",
"Y. c #D9D6DA",
"T. c #DBDBDB",
"R. c #D6D9D8",
"E. c #DFE2DD",
"W. c #E8E1D7",
"Q. c #E2E3DC",
"!. c #EAE7DF",
"~. c #DBDEE2",
"^. c #D7DDE9",
"/. c #E2DDE3",
"(. c #DEE2E4",
"). c #E4E4E4",
"_. c #EAEAE4",
"`. c #E5EAE9",
"'. c #EDEDED",
"]. c #E8E7E9",
"[. c #F2EDEC",
"{. c #EEF2ED",
"}. c #F3F4EC",
"|. c #ECECF1",
" X c #EAEDF4",
".X c #F4EEF1",
"XX c #ECF0F3",
"oX c #F3F3F2",
"OX c #FAF6F5",
"+X c #FEFDF6",
"@X c #F4F5FA",
"#X c #F5FCFD",
"$X c #FBFFFF",
"%X c #FBFDFC",
"&X c #FDFDFD",
"*X c #FFFFFD",
"=X c #FEFEFE",
"-X c white",
";X c #FFFEFF",
":X c #FDFEFE",
">X c #FEFEFE",
",X c #F3F8F4",
/* pixels */
"L.e.e.u.u.u.e.e.g.%X'.5.I.Y = r y = W I.r.y.e.y.r.e.r.i.e.).-Xc.e.u.u.u.e.u.e.L.",
"e.).oX'.'.'.'.'.u.T.M.C.+XZ [ OX@XU V -X'.'.'.'.|.'.`.oXB.c.E.e.'.'.'.'.'.oX).e.",
"3.oX-X-X-X-X-X-Xm.~.M.I.-XS %.-X-X~ S -X-X-X-X-X-X-X-X-X).B.T.c.-X-X-X-X-X-XOXu.",
"c.'.-X-X-X-X-X-Xd.Q.B.T.-Xv P |. Xx n $X-X-X-X-X-X$X-X+XW.).`.u.-X-X-X-X-X-XoXu.",
"-X-X-X-X-X-X-X-Xs.).M.~.-X%.< e w 7 =.-X*X-X-X-X*X` i b r N D.P.-X-X-X-X-X-XoXu.",
").OX-X-X-X-X-X-Xu.oX.X[.+X*X$XM S oX*X-X-X-X-X-X#Xq ` 0.>.; -.).-X-X-X-X-X-XoXu.",
"3.'.-X-X-X-X-X-XT.*.V v H P %XQ E -X*XJ. .+.+.f.@Xx ~.$X*Xf -.Q.-X-X-X-X-X-XoXu.",
"e.oX-X-X-X-X-X-X'.7 q o.$.@ =.o.n *XoX8 z Y S 8 k.S L.-X+Xi *.Q.-X-X-X-X-X-XOXe.",
"u.u.b.b.b.b.b.b.P.k { -X%XZ K I.+ 6./.@ f.OXE.g =.x s T v % f.Z.c.b.b.b.c.B.u.u.",
"OXL.T.T.T.T.T.L.oXN -.-X-XZ S -X6.6 6.s B.+X}.g 7.S. .= W h.$X'.L.T.T.T.T.T.L.oX",
").B.B.B.B.B.B.B.Q.d - [ ` + F Q.+XZ J s %.9.q.; @.%XQ.j f.oXu.v.B.B.B.B.B.B.B.).",
"e.B.T.T.T.T.T.T._.j.~ = , _ H._.'.T P ` u s @ c H._.[.i 1.!.I.Y.T.T.T.T.T.T.L.e.",
"r.oX-X-X-X-X-X-X-X-X$XY ' -X#X-X$XT F -X[.H.n H.-X-X:.1 |.-X*X-X-X-X-X-X-X-XOXu.",
"e.'.-X-X-X-X-X-X-X+X*Xn [ *X$X-X$XY D -X[.V.M N.-Xl.O y.-X-X%X-X-X-X-X-X-X-XoXu.",
"u.'.-X-X-X-X-X-X-X*X*X^ r #X-X*X-XJ D -X).B.M S.-Xp ' -X-X-X-X-X-X-X-X-X-X-X'.u.",
"e.'.-X-X-X-X-X-X-X$X*X-Xr L $X-X#XT Z -X,XB.M n.*Xj m.-X*X-X*X-X-X-X-X-X-X-XoXu.",
"u.'.-X-X-X-X-X-X-X-X-X*X|.= 0.-X*XY A OXT.B.B N.-Xz q.-X-X-X-X-X-X-X-X-X-X-XoXu.",
"e.OX-X-X-X-X-X-X-X*X-X-X-XU { -X-XE ) ) # 7.Y H.-Xn k.$X-X-X*X-X-X-X-X-X-X-X-Xu.",
"e.c.L.L.L.L.L.L.Z.P.U.Z.+XD ] }.-XE _ P   ,.G U.oXs ,.-XP.L.L.L.L.L.L.L.L.T.b.e.",
"oXL.L.L.L.L.L.L.L.v.c.oX2.@ =.{.' - q.$.O u.m P ).x # =.oXb.b.Z.L.L.L.L.L.L.L.'.",
"oXT.T.T.T.T.T.L.).-X-Xm.@ O g.)   X F k = (.S   M.T X + t.-X*X].L.T.T.T.T.T.T.oX",
"e.c.L.B.B.B.B.B.5.-X2.  + % 7.L O , + $ 5 H i @ b.R O @   =.-X3.B.B.B.B.B.L.b.e.",
"e.oX-X-X-X-X-X-Xc.{.9.< % @ m.( O > 4 > > O % > F.I X : - 4.[.c.-X-X-X-X-X-XOXu.",
"u.'.-X-X-X-X-X-Xd.R.-X8.+ @ j.^ O > : 3 > , % ; (.Q X + ,.-XY.u.-X-X-X-X-X-XoXu.",
"u.'.-X-X-X-X-X-Xd.].*XH O % z.^ O ; > > > > ; = o.V @ + F OX!.p.-X-X-X-X-X-X'.u.",
"e.'.-X-X-X-X-X-XB.%XG.@ + % U.[ + ; > > > 3 3 > + ; 3 = $ m.&XB.-X-X-X-X-X-XoXu.",
"u.'.-X-X-X-X-X-X;.h s = 2 @ *.R O 4 > > > : ; , : > > ; % s h O.-X-X-X-X-X-XoXu.",
"e.oX-X-X-X-X-X-X..  % 8 = O O O O O O + O O O O + + X % 8 @   ) -X-X-X-X-X-XOXu.",
"e.L.T.T.T.T.T.oX .+ ; + l  . .) ) O.! } ..! %.) ^ X.| x @ > X ' oXT.T.T.T.T.L.e.",
").c.b.b.b.B.b.'.|   + O ( -XC m.R.n +X[ ! +Xn B.).n -X} X %   ) '.b.b.b.B.b.b.T.",
"OXT.T.T.T.T.T.).;.h s O b T.c q.J.v }.%.o.OXc S.c.Z T.D X s l %.).T.T.T.T.T.T.OX",
"u.u.c.c.c.c.b.c.G.%XA.;   <.-X9., n.c k.N.f T.q =.-Xq.X + D.*XL.u.c.c.c.c.c.u.u.",
"e.oX-X-X-X-X-X-X-X-X-X{   v *X'.G `.^ t.9.T #XU ~.-XN   ! *X$X-X-X-X-X-X-X-XOXe.",
"e.'.-X-X-X-X-X-X-X-X*Xz.+ X ~ -X*Xd 2.` / 9.a *X-X) O O w.*X-X-X-X-X-X-X-X-XoXu.",
"u.'.-X-X-X-X-X-X-X%Xq.= % = X L ).O.b.#.>.n.O.'.T X * : @ 6.-X-X-X-X-X-X-X-XoXu.",
"u.'.-X-X-X-X-X-X%X-Xf.O + 9 +   4 <.1.L.R.,.0.e   + 0 O o 6.-X-X-X-X-X-X-X-XoXu.",
"u.'.-X-X-X-X-X-X-X-X-XK.- . y x     + , ; @     x y   % x.$X*X&X-X-X-X-X-X-X'.u.",
"u.oX-X-X-X-X-X-X-X*X-X+XH.u J.-X7.D % & & % V 2.-X^.u l.+X-X-X-X-X-X-X-X-X-XOXu.",
"e.).oXoX-XoX'.oX{..X}. X-X#X%X%X-XD.O + + O f.-X%X-X#X*XoXXX[.{.oXoXoXoXoXoX).e.",
"L.e.e.b.-X).3.u.u.u.u.u.a.v.u.r.U.>.w p s t @.Y.r.u.n.g.u.u.u.u.u.u.u.u.u.u.e.B."
};
