/* XPM */
static char *_207_4f75c51f7aeed601b7df17fa337a54ed45ede9895e24ec5ede43d20635a3d741[] = {
/* columns rows colors chars-per-pixel */
"80 80 208 2 ",
"   c #041626",
".  c #091625",
"X  c #061926",
"o  c #091927",
"O  c #03172B",
"+  c #051A2D",
"@  c #091B2C",
"#  c #041C32",
"$  c #091E33",
"%  c #041E39",
"&  c #0C1E3A",
"*  c #041732",
"=  c #0E202D",
"-  c #15222D",
";  c #1B252F",
":  c #052035",
">  c #0C2134",
",  c #05213A",
"<  c #0A233B",
"1  c #0E283F",
"2  c #132434",
"3  c #1A2732",
"4  c #11263B",
"5  c #162A3C",
"6  c #1A2C3C",
"7  c #1A2A36",
"8  c #24323D",
"9  c #2C363F",
"0  c #20293A",
"q  c #062541",
"w  c #0C2E47",
"e  c #162D44",
"r  c #1D2E43",
"t  c #1D3142",
"y  c #173247",
"u  c #233444",
"i  c #253846",
"p  c #2C3D4C",
"a  c #283848",
"s  c #333E4A",
"d  c #2A3E51",
"f  c #2E404E",
"g  c #33424E",
"h  c #3A424D",
"j  c #2D4153",
"k  c #334453",
"l  c #384552",
"z  c #3C4954",
"x  c #3C4B5B",
"c  c #354857",
"v  c #3F515D",
"b  c #434F5A",
"n  c #434C55",
"m  c #43525E",
"M  c #4B535C",
"N  c #4A5155",
"B  c #445464",
"V  c #485462",
"C  c #4C5864",
"Z  c #4D5D6B",
"A  c #44596A",
"S  c #545D64",
"D  c #5A5D62",
"F  c #535F6A",
"G  c #4B5D71",
"H  c #5A626B",
"J  c #58636A",
"K  c #536372",
"L  c #596673",
"P  c #5E6974",
"I  c #5F6E7D",
"U  c #576872",
"Y  c #63686D",
"T  c #636B73",
"R  c #626E7A",
"E  c #696F74",
"W  c #65727C",
"Q  c #6A737C",
"!  c #677176",
"~  c #75797B",
"^  c #76787C",
"/  c #7B817F",
"(  c #647483",
")  c #6D7984",
"_  c #737C83",
"`  c #737E8A",
"'  c #7A7D86",
"]  c #7C8285",
"[  c #7E858C",
"{  c #79838B",
"}  c #7E8A94",
"|  c #7D8996",
" . c #7F919D",
".. c #838486",
"X. c #81868C",
"o. c #838A8E",
"O. c #88898B",
"+. c #838C94",
"@. c #8A8E91",
"#. c #838E99",
"$. c #8E9294",
"%. c #85919C",
"&. c #8C969C",
"*. c #92969A",
"=. c #949A9C",
"-. c #999A9B",
";. c #979697",
":. c #A2999C",
">. c #A1A19F",
",. c #8A97A2",
"<. c #939CA4",
"1. c #9A9EA3",
"2. c #95A0A5",
"3. c #9CA2A4",
"4. c #9DA4AC",
"5. c #99A4AA",
"6. c #9CA6B1",
"7. c #9EA8B3",
"8. c #A5A5A5",
"9. c #ACAAA6",
"0. c #A4A6AC",
"q. c #A4A9AE",
"w. c #ACACAB",
"e. c #A8A6A7",
"r. c #B0AEAD",
"t. c #ADB0AD",
"y. c #B3B1AE",
"u. c #B9B4AE",
"i. c #A4ABB2",
"p. c #ABADB1",
"a. c #A0AEB9",
"s. c #B1AFB1",
"d. c #AEB1B3",
"f. c #ACB4BC",
"g. c #B2B2B2",
"h. c #BABAB6",
"j. c #B3B6BA",
"k. c #B6BABC",
"l. c #BCBCBC",
"z. c #B8B7B4",
"x. c #C2BFBD",
"c. c #BEC0BF",
"v. c #C2C1BD",
"b. c #C9C2BF",
"n. c #AFB9C1",
"m. c #B3BCC3",
"M. c #BEBDC2",
"N. c #C1BFC1",
"B. c #BDC2C4",
"V. c #B5C1CA",
"C. c #BDC5CB",
"Z. c #B7C0C5",
"A. c #C2C2C2",
"S. c #CCC7C4",
"D. c #CBC9C5",
"F. c #C4C5CA",
"G. c #C6C9CA",
"H. c #CCCCCC",
"J. c #C9C7C8",
"K. c #D0CFCD",
"L. c #CED0CF",
"P. c #D3D1CE",
"I. c #C5CBD1",
"U. c #CBCED2",
"Y. c #D1CDD2",
"T. c #CDD2D4",
"R. c #CFD6DA",
"E. c #CBD5DB",
"W. c #D3D3D3",
"Q. c #DAD6D3",
"!. c #D9D9D6",
"~. c #D2D6DA",
"^. c #D6DADD",
"/. c #DCDCDC",
"(. c #D6D8D8",
"). c #E1DEDC",
"_. c #DFE1DE",
"`. c #E3E2DE",
"'. c #D6DFE5",
"]. c #DCDEE1",
"[. c #D9D7E2",
"{. c #C9DAE2",
"}. c #E0DFE3",
"|. c #DCE1E3",
" X c #DEE3EA",
".X c #E5E5E5",
"XX c #E8E6E4",
"oX c #E7E8E5",
"OX c #EBE9E5",
"+X c #E4E6EA",
"@X c #E9E6E9",
"#X c #E4E9EC",
"$X c #ECECEC",
"%X c #F1EBE9",
"&X c #EBF2EA",
"*X c #F3F1EE",
"=X c #F8F3EF",
"-X c #E5EDF4",
";X c #EDEFF2",
":X c #EDF2F4",
">X c #EFF8FC",
",X c #EEF6FB",
"<X c #F3F3F3",
"1X c #FAF5F3",
"2X c #FBFBF5",
"3X c #F3F6FA",
"4X c #F5FBFE",
"5X c #FFFFFE",
/* pixels */
"5XW.A.A.A.A.A.A.A.A.A.A.A.A.A.A.M./.5X5X5X@XG.x.A.A.A.A.A.A.A.A.A.A.A.A.A.A.A.A.A.A.A.A.A.A.A.A.A.A.A.A.A.A.A.A.l.A.+X5X5X5X.XA.c.A.A.A.A.A.A.A.A.A.A.A.A.B.P.2X",
"W.w.g.g.g.g.d.g.y.g.d.g.y.g.d.g.z.w..X5X3Xz.w.d.g.g.g.s.g.g.d.g.d.r.g.g.w.g.r.g.g.g.g.w.g.g.g.g.w.g.r.g.g.g.g.w.g.g.g.$X5X@Xd.y.g.g.g.y.g.d.g.g.g.g.g.s.g.g.w.H.",
"A.p.!..X@XoX@X.X.X@XoX@X@XoX.XoXH.w.H.5X_.w.A.OXoX@X.X.X@XoXoX@X.X.X.X.X.X.X.X@X.X.X.X.X.X.X.X.X.X.X.X@X.X.X.X.X@XJ.w.W.5XK.e.H..X@X@X.X.X.X@XoX@X.X.X.X.X/.g.A.",
"v.g.$X5X5X5X5X5X5X5X5X5X5X5X5X5X.Xw.H.5X/.w.H.5X5X5X5X5X5X5X5X5X5X5X5X5X5X5X5X5X5X5X5X5X5X5X5X5X5X5X5X5X5X5X5X5X5XW.e.(.5XH.w./.5X5X5X5X5X5X5X5X5X5X5X5X5X<Xz.M.",
"A.g.oX5X5X5X5X5X5X5X5X5X5X5X5X5X|.8.W.5X.Xw.G.5X5X5X5X5X5X5X5X5X5X5X5X5X5X5X5X5X5X5X5X5X5X5X5X5X5X5X5X5X5X5X5X5X5XY.w.(.5XW.w.W.5X5X5X5X5X5X5X5X5X5X5X5X5X;Xg.A.",
"A.g..X5X5X5X5X5X5X5X5X5X5X5X5X5X/.w.K.5X).w.H.5X5X5X5X5X5X5X5X5X5X5X5X5X5X5X5X5X5X5X5X5X5X5X5X5X5X5X5X5X5X5X5X5X5XU.e.(.5XW.w.W.5X5X5X5X5X5X5X5X5X5X5X5X5X$Xg.A.",
"h.e..X5X5X5X5X5X5X5X5X5X5X5X5X5X/.w.H.5X.Xe.G.5X5X5X5X5X5X5X5X5X5X5X5X5X5X5X5X5X5X5X5X5X5X5X5X5X5X5X5X5X5X5X5X5X5XH.w.W.5XW.w.W.5X5X5X5X5X5X5X5X5X5X5X5X5X*Xg.A.",
"!.M.3X5X5X5X5X5X5X5X5X5X5X5X5X5X/.e.W.5X.Xw.J.5X5X5X5X5X5X5X5X5X5X5X5X5X5X5X5X5X5X5X5X5X5X5X5X5X5X5X5X5X5X5X5X5X5XP.w.!.5XW.w.W.5X5X5X5X5X5X5X5X5X5X5X5X5X$Xg.A.",
"5X5X5X5X5X5X5X5X5X5X5X5X5X5X5X5X/.w.H.5X.Xw.G.5X5X5X5X5X5X5X5X5X5X5X5X5X5X5X5X5X5X5X5X5X5X5X5X5X5X5X5X5X5X5X5X5X5XW.w.!.5XW.e.W.5X5X5X5X5X5X5X5X5X5X5X5X5X;Xg.N.",
"5X5X5X5X5X5X5X5X5X5X5X5X5X5X5X5X/.w.W.5X/.w.G.5X5X5X5X5X5X5X5X5X5X5X5X5X5X5X5X5X5X5X5X5X5X5X5X5X5X5X5X5X5X5X5X5X5XH.w.^.5XW.w.(.5X5X5X5X5X5X5X5X5X5X5X5X5X$Xz.x.",
"5X5X5X5X5X5X5X5X5X5X5X5X5X5X5X5X/.w.P.5X.Xw.G.5X5X5X5X5X5X5X5X5X5X5X5X5X5X5X5X5X5X5X5X5X5X5X5X5X5X5X5X5X5X5X5X5X5XW.w.!.5XY.w.W.5X5X5X5X5X5X5X5X5X5X5X5X5X$Xz.B.",
"!.N.<X5X5X5X5X5X5X5X5X5X5X5X5X5X/.w.H.5X/.w.G.5X5X5X5X5X5X5X5X5X5X5X5X5X5X5X5X5X5X5X5X5X5X5X5X5X5X5X5X5X5X5X5X5X5XH.w.W.5XW.w.(.5X5X5X5X5X5X5X5X5X5X5X5X5X$Xg.A.",
"l.8..X5X5X2X5X5X5X5X5X5X5X5X5X5X].w.K.5X.Xw.G.5X5X5X5X5X5X5X5X5X5X5X5X5X5X5X5X5X5X5X5X5X5X5X5X5X5X5X5X5X5X5X5X5X5XY.w.!.5XK.w.W.5X5X5X5X5X5X5X5X5X5X5X5X5X$Xg.A.",
"A.g.@X5X5X5X5X5X5X5X5X5X5X5X5X5X/.e.T.5X).w.G.5X5X5X5X5X5X5X5X5X5X5X5X5X5X5X5X5X5X5X5X5X5X5X5X5X5X5X5X5X5X5X5X5X5XU.w.!.5XW.w.(.5X5X5X5X5X5X5X5X5X5X5X5X5X$Xg.A.",
"A.g..X5X5X5X5X5X5X5X5X5X5X5X5X5X/.e.W.5X`.w.H.5X5X5X5X5X5X5X5X5X5X5X5X5X5X5X5X5X5X5X5X5X5X5X5X5X5X5X5X5X5X5X5X5X5XW.w.!.5XW.e.(.5X5X5X5X5X5X5X5X5X5X5X5X5X*Xg.A.",
"A.g.$X5X5X5X5X5X5X5X5X5X5X5X5X5X.Xw.H.5X/.w.G.5X5X5X5X5X5X5X5X5X5X5X5X5X5X5X5X5X5X5X5X5X5X5X5X5X5X5X5X5X5X5X5X5X5XP.w.W.5XY.e./.5X5X5X5X5X5X5X5X5X5X5X5X5X3Xg.v.",
"l.g.(.@X.X@XoX.X@X@X+X@XoX@XoX#XY.e.^.5X5XA./.5X5X5X5X$X.X#X.XOXoX@X@XOX.X@X@XOX+X@XoX@X.X@X.XoX@X.XoX@X.X.X@XoXoXG.w.Q.5XU.w.U.OX.X@X@X#XoXOX@X.X@XoX+X@X/.g.B.",
"W.w.z.w.z.p.g.g.r.g.g.t.y.y.y.y.z.h.W.'.H.3.-.=.-.-.;.w.z.t.z.w.z.t.d.w.g.d.g.r.g.g.g.w.g.g.s.g.g.g.g.d.g.g.g.g.g.g.d.@X5XoXy.y.g.g.t.y.g.t.y.d.g.w.g.g.g.g.w.H.",
"5XW.A.A.x.B.A.A.N.A.A.v.A.B.B.x.F.4X) & % = $ @ X + > ] /.A.B.A.A.A.B.A.A.A.A.A.A.v.A.A.A.A.B.v.A.A.A.A.A.A.A.A.N.A..X5X5X2X.Xb.B.A.J.J.A.G.A.B.A.A.A.B.A.x.P.3X",
"5X5X5X5X5X5X5X5X5X5X5X5X5X5X5X5X5X2XW * + + * * # : % 5.5X5X5X5X5X5X5X5X5X5X5X4X5X5X5X5X5X5X5X5X5X5X5X5X5X5X5X5X5X5X5X5X5X5X5X5X5X5X5X5X5X5X5X5X5X5X5X5X5X5X5X5X",
"5X;X!././..X/./.].5X<X^.}.).).].).&XS & + + + + + X : *.*X.X`./.)./._.1X2XOX5X5X5X2X<X^.|.)./..X/..X.X/./.)..X/._./.^./.oXe.K Z Z Z G Z F F _ OXOX/.!.].}.!.$X5X",
".Xz.w.w.w.w.w.w.W.^ *.U.r.9.w.l.(.&Xm $ + + + + + + % ~ 3XT.t.w.w.w.W.X.O.H.(.5X5X.Xg.w.w.w.w.w.w.w.w.w.w.w.w.w.w.e.w.z.l.. : * : + , % + % $ E W.w.w.w.w.w.w./.",
"A.g.G.K.H.H.H.5X] > $ F.OX).,X~.+.b - * + + + + + + o 0 S 1..X1X[.2X*.$ $ 0.`.4X5XA.g.A.K.H.H.H.G.H.H.H.H.H.H.H.H.K.U.W.K.t , T $.O.o.o.*.u : H $XH.H.W.G.G.g.A.",
"l.g.@X5X5X5X5Xw.$ + % y 3X5X$.p @ $ # + + + + + # + + # % @ B 7.5XG.+ % : @ 0.5X5XA.g.$X5X5X5X5X5X5X5X5X5X5X5X5X5X5X5X5X5Xj # !.5X5X5X5X2XZ : +.5X5X5X5X5X<Xg.x.",
"A.w.$X5X5X5X7.= + + # + y j $ + + # + + O + + # + + + + + + : # c + + * + @ o {.5Xl.p.#X5X5X5X5X5X5X5X5X5X5X$X<. .%.#.%.%.5 @ C.5X5X5X5X5XB # #.5X5X5X5X5X*Xg.B.",
"A.z..X5X5Xa.+ # + + + + + + # # $ +   @ @ a a @ + + + + + @ + + : + + # * + $ e R.<Xw.XX5X5X5X5X5X4X5X5X5XI.5 * +   @ + + # O C.2X5X5X5X5Xm o +.5X5X5X5X5X$Xg.A.",
"A.w.OX5X7.o + + + + + + O # # O + a { C.#X5X#Xo # + + @ o + + + + + # + + + + + + a.D.OX5X5X5X5X5X5X5X5X7.+ + x +.+.| +.#.4 @ A.5X5X5X5X5XB + +.5X5X5X5X5X$Xg.A.",
"A.g.5X'.o + + + + + o + # +   h n.5X5X5X5X5X'.* + + +   # + + + + +   $ + + + X $ ; /.5X2X5X5X5X5X5X5X]   + Q 5X5X5X5X5X5Xp @ }.5X5X5X5X5XK + +.5X5X5X5X5X$Xg.A.",
"A.g.$X3XP + + + + + + # + + } 4X5X5X_.3.i.;X#X+ + + + + * + + + X + + + + + + # # > x P ( I R R P W v + X 2.5X5X5X4X5X5X5Xu + I +.+.+.} %.d + { 5X5X5X5X5X$Xz.A.",
"A.r..X5X5XW + X + + + + @ m.5X5X5X5X<.4 > I.5X  + @ + + + # + + + + + + # : % # + % < # # + + + + + X > V.5X5X5X5X5X5X2X5Xi # + # + + +   + + m.5X5X5X5X5X$Xg.A.",
"A.g.OX5X5X4XZ + + + + @ F.5X5X5X5X5X+.= @ (.5X  + + @ + # + C i.i.i.q.p.1.~ ~ e.q.^ Q ,.0.q.3.q.7.6.q. X5X5X5X5X5X2X5X5X5XR.%.+. .+.+.} +.+.4.5X5X5X5X5X5X$Xg.A.",
"A.d.@X5X5X5Xl + + * @ f.5X5X5X5X5X5X.Xm.m.2X+X# + + + + + + d.5X5X5X5X5X5X@X:X5X5X).K.5X5X5X5X5X5X5X5X5X5X5X5X5X5X5X5X5X5X5X5X5X5X5X5X5X5X5X5X5X5X5X5X5X5X$Xg.A.",
"A.g.$X2X5Xf.+ + # # Q 5X4X5XH.K L G.5X5X5X5XW.@ + + + + + + 5 A V V B A m s g A (.+Xw..X5X5X5X5X5X5X5X5X5X5X5X5X~.( ( ( R ( ( W ( } 5X5X5X5X5X5X5X5X5X5X5X$Xz.A.",
"A.s.@X5X4Xu # + O - 5X2X5X5X<.+ % 0.5X,X>X5X^.* + + + + + + O + # # # + + # $ > S 5X!.5X5X5X5X5X5X5X5X5X5X5X5X5Xp @ + O o + + +   @ <.5X5X5X5X5X5X5X5X2X5X*Xg.M.",
"J.h.*X5XT.@ O + + 5.5XV.l.:XC.@ > ].I.2 - .X2X# + + + + + + @ + + + + X # # + + + L T _ +.+.#.+.+.+.+.} #.+.#.#.2 O I #.+.| +.#.m * _ 5X5X5X5X5X5X5X5X5X4X$Xg.A.",
"K.j.-X5X} @ + + $ 5XR.+ + <.5X5X5X5X#.# + R.5X+ + + + * + + + + X + + # + : : o # 1 , < : # $ % % : # % % # # # o + #X5X5X5X5X5X6.+ #.5X5X5X5X5X5X5X5X5X5X<Xz.x.",
"x 8 p d + + # # Z 5Xk.: < +.5X5X5X5Xf.Z J .X:X+ + + + + + + + + + @ + + 6 T T } +.Y J ~ } o.] X.X.X.X.X.X.X.X.X.5 # M.5X5X5X5X5X+.% +.5X5X5X5X5X5X4X5X5X5X@Xg.B.",
"o # * % + + # : W %Xw._ _ x.*.t u @.$XoXoX/.8.  + + + + + + + + + + : + h 5X5X5X5X5X<X5X5X5X3X*X<X3X3X<X<X<X2X5Xu , $..XA.A.A.oXY 1 Y .XA.v.x.J.J.A.A.A.A.A.g.A.",
"4 @ o + @ o + + ^ Q.S.3X4X1XS , : Y $XW.(.W.@.@ $ + + + + + + @ # O + # @ l H Q W H M M N S z.z.y.d.w.y.g.y.h.h.6 : ..Q.w.g.r./.D q H Q.g.w.g.s.r.p.g.g.g.w.l.@X",
"1 + X + + + + : j.3XG.H C A.G.K K J.M.b b ^.@X# + + + + # + + + X + + + + # % + + # % : : 2 >X*XOX@X@X$X*X:X3X<Xu : P.5X5X5X5X5X$.q ' 5X<X<X;X;X<X*X<X$X<X<X2X5X",
"4 + + + + @ # < |.5Xj.w y &.5X5X5X5X&., , _.5X+ + + + + + * + # + * + + + + + * = + + # # i 3X5X5X5X5X5X5X5X5X5Xi + ( ,.&.&.,.%.C $ ` 5X5X2X5X5X5X5X5X5X2X2X5X5X",
"2 + + + + @ + $ :.<X[ + 5 o.v.^ ) !.1., , d.v.# + + + @ + + + + + + + @ + + + @ # # + + : 7 c.B.*X5X5X/.w.z.A.G.2 < < @ # : * & : < ! .Xj.h.k.j.z.l.j.k.h.k.l.*X",
"2 @ + + + + + , / #Xk.z.z.!.' e q E *X/.T.b.-.: + + + @ + + + @ + + + + # $ o 2.J.g.y.y.d.j.J.~.5X5X5X<XF.H.H./.t.S n M C c g g s U A.h.l.x.Y..X.X.X@X.X@X|.H.Q.",
": + # # # + + @ *.1X3X5X3X5Xj.< > Y 5X5X5XW.1.+ + + # + + + + + + + + # * # o 5.5X4X5X5X5X=X.X:X<X3X<X3XoX.X.X.X5X(.g.@X5X5Xh.`.5X5X2X*X;X5X~.=.<.*.=.<.<.@.~ e.",
"2 @ $ + O + + + ` 5XU.a i f.3Xd.;.0.B.m.4.c.w.+ + + + + + + + + + + + * + + + @ e # : # & @ + : + * + > : # : : : + # : ` *XJ.!.5X5X5X5X5X:Xt # # # $ % # , < e ",
"0.X.d.C.C + + + t 5XC.O + { 5X5X5X@XH > % -.c.: + + + + + + + + + + + @ + X * # # = 5 e 6 6 y 5 6 6 6 6 5 7 6 6 t 7 6 + , a j.5X2X5X5X5X5X~.+ # m B B V B m   # ",
"W.K.5X5XZ.@ + * + T.*XK Z T.~.V z k.~ : % 3.v.@ + + + + + + + + + + + + + + + + o #X5X5X5X5X5X2X5X5X5X5X5X5X5X5X5XW.S.k.i : = Z.5X5X5X4X5X3X+ X 5X5X5X5X5X4Xo + ",
"A.y.oX5X-X+ @ + X c 5X5X5X5Xi.  q ] W.i.&.k.w.+ * @ + + + + + + + + + X # + # X l 5X5X5X5X5X5X5X5X5X5X5X5X5X5X5X5X^.p.5X<Xx < + <.C.B.B.A.q.+ = 3X5X5X5X5X@XX # ",
"x.g.#X5X5X|   + #   k.5X5X5Xf.o > Q 5X5X5XK.1.@ + # + # # + + + @ +   +   + + O f.5X5X5X5X2X5X5X5X5X5X5X5X5X5X5X5XH.w.W.5X$Xm : % + @ + # + @ 5 <X5X5X5X5X|.o + ",
"A.g..X5X5X<X3 # X * > :X5X5X>X$XH.e.K.<X(.A.0.$ * o @ o + + + + # # # + * + + d 5X2X5X5X5X5X5X5X5X5X2X5X2X5X5X5X5XW.w.^.5X.X(.^ B m b V m c + > 3X5X5X5X5X#X  % ",
"A.g..X5X5X5XP # + # O h 5X2X5X5X*XW._ e 4 e.k.# # @ m.U.U.U.U.U.U.U.U.U.T.U.T.3X5X5X5X5X5X5X5X5X4X5X5X5X5X5X5X5X5X^.A.2X5X$XH.5X5X5X5X5X5X:X@ + 5X5X2X5X5X*Xo % ",
"v.g..X5X5Xm.2 + + X + # c 5X5X5X/._.U , < 1.A.@ # + -X5X4X5X5X5X5X5X5X5X5X5X5X5X5X5X5X2X5X5X5X5X5X5X2X5X5X5X5X5X5XK.] 8.B.2.' 3.C.G.4X5X2X|.+ + #X<X<X3X<X^.  @ ",
"A.g.oX5Xm.  # + + + + + $ p '.5X*XJ.+.B c w.z.+ + @ + p g a f p p p p p p p p p s a t t t r p 1.5X5X5X5X5X5X5X5X$Xu # $ # # > $ +   b ,X5XR.+ # + + X + + # * # ",
"A.r.5X'.$ # + + + + # + + # 2 *.|.U.<X5X<XK.2.+ + + + O # + + + + + # * + + + + # # + + + * + + T 5X5X5X5X5X5X5Xm.# # > 4 > = > 2 # # R.5X:XP 2 @ + + O : # 2 Z ",
"C.y.*X-XC   # + + + + + # +   > 7 E z.5X5X*XB.+ # + $ + + +   @ * + # + + + + + @ | |.+X@X'.5.@ @ V -X5X4X5X5X5X~.= 8 `.*XA.>.|.:X$ + ^.5X5X5X:X<X<X3X<X3X`.w.W.",
"A.g..X5X5XK + + + + + + + + # + + % % j J ! S @ + + @ + + # # + + + + + $ + + $ +.5X5X5X5X5X5XI.y + 3 I.^./.^.!.7.: 8 5X5X Xz.5X5X: @ /.5X5X5X5X5X5X5X5X5X5XA.A.",
"v.w.$X5X5X5XJ + + + + @ # # # # + @ + * + > % + + + @ + + # + # o : # + + + : &.5X5X5X5X5X5X5X5X3Xz $ % : # : # + : a %X5XY.w.$X5X: $ /.5X5X5X5X5X5X5X5X5X<Xg.M.",
"A.k.G.W.W..X,Xl , X + # | >.9 : : * %   o   @ + * # # + + : > x f.S : + + > T 5X!.W.W.W.W.W.W.(.*X|.S 7 3 - 3 7 - : u *X5XH.w.^.U.# $ k.@XW.W.W.W.W.W.W.W.U.z.A.",
".Xw.w.w.9.9.A.T.s $ % W `.).A.' z o $ * + % + + + + + + - M O.H..XW.N : $ S /.z.w.w.w.w.w.w.w.w.e.x.U.k.h.M.h.[.+.: k 5X5X5XD.P.z.@ @ $.F.e.w.e.w.w.w.w.w.w.w.!.",
"5X@XW.Q.W.P.W.$X.XU Q 2X}.T./.2X*X_.F + + + + X + # = W |.3X*X).K.+X<XP ( 5X!.T.W.H.W.!.W.W.W.W.Q.W.(..X/._./.3Xe.$ B <X<X3X`.P.k.X @ g..XW.(.(.W.W.!.W.W.W./.5X",
"5X5X5X5X5X5X5X5X5X2X5X5X5X5X5X5X5X4X` $ + + + + + + = f.5X5X5X5X5X5X5X5X5X5X5X5X5X5X5X5X5X5X5X5X5X5X5X5X5X5X5X5Xh.: # 2 : 1 5 q < , # ^.5X5X5X5X5X5X5X5X5X5X5X5X",
"5X/.A.G.H.G.G.H.G.U.H.J.D.H.G.G.H..XM $ + + + @ + # o [ .XJ.H.G.D.G.G.G.J.W.5X5X5X5X!.A.G.G.G.H.G.G.G.H.J.H.J.W.C.u # @ + + $ $ # = p W.K.D.G.J.H.G.G.H.H.A.W.5X",
"^.w.w.p.e.p.t.w.r.p.w.9.w.9.w.p.s.T.i < , : : % : : > J !.p.w.w.r.w.w.e.d.w.T.2X5XW.g.w.r.w.w.w.w.w.w.w.r.w.w.w.B.y.-.$.-.;.;.;.*.*.m.h.w.e.d.w.w.w.r.w.w.g.w.W.",
"A.g.W.`./..X/.)._.)./.#X].`./.`.).$Xw.X.X...X.[ ..[ } F.%X).]./..X|..X`.W.z.z.5X5Xl.g.W.!..X/.`..X/.).`.]./.]././.%X<X>X=X3X<X<X1X1X@X!..X).].)./.)./..X/.W.z.l.",
"A.g.$X5X5X5X5X5X5X5X5X5X5X5X5X5X5X5X5X5X5X5X5X5X5X5X5X5X5X5X5X5X5X5X5X5X<Xz.k.5X5XN.r.$X5X5X5X5X5X5X5X5X5X5X5X5X5X5X5X5X5X5X5X5X5X5X5X5X5X5X5X5X5X5X5X5X5X3Xz.M.",
"A.g.@X5X5X5X5X5X5X5X5X5X5X5X5X5X5X5X5X5X5X5X5X5X5X5X5X5X5X5X5X5X5X5X5X5X;Xz.h.5X5XN.d.@X5X5X5X5X5X5X5X5X5X5X5X5X5X5X5X5X5X5X5X5X5X5X5X5X5X5X5X5X5X5X5X5X5X*Xg.A.",
"A.g..X5X5X5X5X5X5X5X5X5X5X5X5X5X5X5X5X5X5X5X5X5X5X5X5X5X5X5X5X5X5X5X5X5X$Xg.l.4X5XA.w.@X5X5X5X5X5X5X5X5X5X5X5X5X5X5X5X5X5X5X5X5X5X5X5X5X5X5X5X5X5X5X5X5X5X$Xg.A.",
"A.r.@X5X5X5X5X5X5X5X5X5X5X5X5X5X5X5X5X5X5X5X5X5X5X5X5X5X5X5X5X5X5X5X5X5X$Xz.M.2X5XA.y.oX5X5X5X5X5X5X5X5X5X5X5X5X5X5X5X5X5X5X5X5X5X5X5X5X5X5X5X5X5X5X5X5X5X$Xg.A.",
"A.g..X5X5X5X5X5X5X5X5X5X5X5X5X5X5X5X5X5X5X5X5X5X5X5X5X5X5X5X5X5X5X5X5X5X$Xj.M.2X5XA.g..X5X5X5X5X5X5X5X5X5X5X5X5X5X5X5X5X5X5X5X5X5X5X5X5X5X5X5X5X5X5X5X5X5X$Xg.A.",
"A.g.@X5X5X5X5X5X5X5X5X5X5X5X5X5X5X5X5X5X5X5X5X5X5X5X5X5X5X5X5X5X5X5X5X5X$Xs.l.2X5XA.g..X5X5X5X5X5X5X5X5X5X5X5X5X5X5X5X5X5X5X5X5X5X5X5X5X5X5X5X5X5X5X5X5X5X$Xg.N.",
"A.g.@X5X5X5X5X5X5X5X5X5X5X5X5X5X5X5X5X5X5X5X5X5X5X5X5X5X5X5X5X5X5X5X5X5X$Xz.l.5X5XA.g..X5X5X5X5X5X5X5X5X5X5X5X5X5X5X5X5X5X5X5X5X5X5X5X5X5X5X5X5X5X5X5X5X5X$Xz.B.",
"A.t..X5X5X5X5X5X5X5X5X5X5X5X5X5X5X5X5X5X5X5X5X5X5X5X5X5X5X5X5X5X5X5X5X5X$Xg.l.3X5XA.w..X5X5X5X5X5X5X5X5X5X5X5X5X5X5X5X5X5X5X5X5X5X5X5X5X5X5X5X5X5X5X5X5X5X$Xg.x.",
"A.g..X5X5X5X5X5X5X5X5X5X5X5X5X5X5X5X5X5X5X5X5X5X5X5X5X5X5X5X5X5X5X5X5X5X$Xz.N.2X5XA.g..X5X5X5X5X5X5X5X5X5X5X5X5X5X5X5X5X5X5X5X5X5X5X5X5X5X5X5X5X5X5X5X5X5X$Xg.A.",
"A.g.@X5X5X5X5X5X5X5X5X5X5X5X5X5X5X5X5X5X5X5X5X5X5X5X5X5X5X5X5X5X5X5X5X5X$Xj.h.4X5XA.g..X5X5X5X5X5X5X5X5X5X5X5X5X5X5X5X5X5X5X5X5X5X5X5X5X5X5X5X5X5X5X5X5X5X$Xg.A.",
"A.g.oX5X5X5X5X5X5X5X5X5X5X5X5X5X5X5X5X5X5X5X5X5X5X5X5X5X5X5X5X5X5X5X5X5X$Xz.k.2X5XA.g..X5X5X5X5X5X5X5X5X5X5X5X5X5X5X5X5X5X5X5X5X5X5X5X5X5X5X5X5X5X5X5X5X5X*Xg.A.",
"A.y.+X5X5X5X5X5X5X5X5X5X5X5X5X5X5X5X5X5X5X5X5X5X5X5X5X5X5X5X5X5X5X5X5X5X$Xz.l.5X5XA.s..X5X5X5X5X5X5X5X5X5X5X5X5X5X5X5X5X5X5X5X5X5X5X5X5X5X5X5X5X5X5X5X5X5X:Xg.A.",
"A.g.$X5X5X5X5X5X5X5X5X5X5X5X5X5X5X5X5X5X5X5X5X5X5X5X5X5X5X5X5X5X5X5X5X5X<Xz.z.2X5XA.g.@X5X5X5X5X5X5X5X5X5X5X5X5X5X5X5X5X5X5X5X5X5X5X5X5X5X5X5X5X5X5X5X5X5X<Xg.M.",
"l.g./.$X$X$X$X5X5X5X5X3X$X$X$X;X$X$X$X$X$X$X$X$X$X$X$X$X$X$X$X$X$X<X;X$X].z.j.5X5Xl.g./.@X*X:X*X$X$X;X$X$X$X$X$X@X$X$X$X$X$X$X$X$X$X$X$X$X$X$X$X$X$X;X$X$X.Xz.x.",
"W.w.z.z.z.g.w.G.5X5X2XA.w.g.g.g.g.g.z.g.g.g.g.g.g.g.g.g.g.g.z.g.g.g.g.g.g.w.G.5X5XP.w.g.g.g.g.g.z.g.g.g.z.g.g.g.g.g.g.g.g.g.g.g.z.g.g.g.z.g.g.g.z.g.g.g.g.z.w.G.",
"5XG.A.l.B.A.z.W.5X5X5XH.h.N.A.A.A.B.A.A.x.A.A.A.A.A.N.A.A.B.A.A.A.A.A.v.N.G.<X5X5X3XH.A.A.N.A.A.A.A.A.A.A.A.A.A.A.A.A.A.A.A.A.A.A.B.A.A.A.M.A.A.A.A.A.A.l.A.G.<X"
};
