/* XPM */
static char *_4437c94b48349d7880115cdf8ea32a4RW3SbEr22ryhsQSs[] = {
/* columns rows colors chars-per-pixel */
"40 40 202 2 ",
"   c #010103",
".  c #080000",
"X  c #01010B",
"o  c #010215",
"O  c #000B16",
"+  c #02051B",
"@  c #010B1C",
"#  c #07101F",
"$  c #010622",
"%  c #020D22",
"&  c #010D2A",
"*  c #021324",
"=  c #0A1224",
"-  c #02142A",
";  c #031B2C",
":  c #091A2B",
">  c #031B27",
",  c #051B32",
"<  c #0A1B34",
"1  c #0B1C3B",
"2  c #131F35",
"3  c #0E2335",
"4  c #142635",
"5  c #1B2332",
"6  c #142C3D",
"7  c #1C2B3A",
"8  c #142A37",
"9  c #222C35",
"0  c #272D3C",
"q  c #253039",
"w  c #28303D",
"e  c #1D2F40",
"r  c #193751",
"t  c #232D44",
"y  c #242E49",
"u  c #243345",
"i  c #2B3543",
"p  c #26374B",
"a  c #2A374B",
"s  c #243A4A",
"d  c #2B3C4C",
"f  c #293B45",
"g  c #313548",
"h  c #2B3B53",
"j  c #333E50",
"k  c #33424C",
"l  c #3E434E",
"z  c #2E4356",
"x  c #2E425A",
"c  c #344454",
"v  c #3A4453",
"b  c #3F4954",
"n  c #374B5B",
"m  c #394B58",
"M  c #3D505E",
"N  c #3F4E62",
"B  c #414F5C",
"V  c #43525C",
"C  c #4A515B",
"Z  c #464E61",
"A  c #445363",
"S  c #4A5564",
"D  c #4B5C65",
"F  c #4B5D6A",
"G  c #465C67",
"H  c #585F67",
"J  c #515C6A",
"K  c #545864",
"L  c #495B71",
"P  c #52636E",
"I  c #5C626D",
"U  c #566373",
"Y  c #566A73",
"T  c #5D6874",
"R  c #5D6A79",
"E  c #5B6576",
"W  c #60606C",
"Q  c #606777",
"!  c #656C73",
"~  c #626E7B",
"^  c #64727C",
"/  c #6C757D",
"(  c #72757C",
")  c #6A7182",
"_  c #6D7D8C",
"`  c #727C86",
"'  c #7F7F87",
"]  c #757F89",
"[  c #727787",
"{  c #7A868D",
"}  c #798187",
"|  c #7C8A94",
" . c #788494",
".. c #85888F",
"X. c #828A97",
"o. c #8A8E96",
"O. c #838A98",
"+. c #859194",
"@. c #8F9596",
"#. c #85939A",
"$. c #8C939D",
"%. c #91969C",
"&. c #919B9E",
"*. c #99969F",
"=. c #9BA09C",
"-. c #8D94A1",
";. c #8D98A1",
":. c #9397A4",
">. c #949CA5",
",. c #9A9EA2",
"<. c #959EAB",
"1. c #93A0A4",
"2. c #99A3A5",
"3. c #9AA3AB",
"4. c #9EABAC",
"5. c #93A0A9",
"6. c #9BA7B2",
"7. c #A0A3A7",
"8. c #A4A5AB",
"9. c #A1ACAE",
"0. c #ADADAD",
"q. c #B1ADAC",
"w. c #A3A7B0",
"e. c #A4ACB4",
"r. c #ABAFB9",
"t. c #AFAFB1",
"y. c #B3AFB0",
"u. c #A4B1B2",
"i. c #ACB3B6",
"p. c #ADB2BB",
"a. c #A9B5B8",
"s. c #B4B4B4",
"d. c #BAB6B4",
"f. c #B9BAB7",
"g. c #B2B5B9",
"h. c #B6BBBB",
"j. c #BABABA",
"k. c #B5B8B1",
"l. c #C2BEBD",
"z. c #BFC0BA",
"x. c #C2C2BE",
"c. c #B4BCC3",
"v. c #BDBCC2",
"b. c #B2B9C5",
"n. c #C1BEC3",
"m. c #BCC3C4",
"M. c #BFC9CF",
"N. c #B8C3CA",
"B. c #C4C4C4",
"V. c #C6C9C3",
"C. c #C3C5CA",
"Z. c #C4CACD",
"A. c #CACACB",
"S. c #CAC7C7",
"D. c #D0CFCD",
"F. c #CCD3CB",
"G. c #D2D3CD",
"H. c #C7CCD2",
"J. c #D3CFD0",
"K. c #CBD1D5",
"L. c #CFD7D9",
"P. c #D4D4D4",
"I. c #DAD5D2",
"U. c #DBDAD5",
"Y. c #D3D6DA",
"T. c #D2DADA",
"R. c #DBDBDB",
"E. c #D6D8D9",
"W. c #E1DFDC",
"Q. c #DEE0DD",
"!. c #E4E3DD",
"~. c #DADCE2",
"^. c #D5DDE4",
"/. c #E2DFE6",
"(. c #DDE2E4",
"). c #DAE3E7",
"_. c #E4E3E3",
"`. c #EAE3E2",
"'. c #E4E5E9",
"]. c #EDEDEC",
"[. c #E5F2EC",
"{. c #F4F2ED",
"}. c #F3F9EF",
"|. c #ECEEF1",
" X c #F1EFF0",
".X c #EDF2F3",
"XX c #F2F3F3",
"oX c #FBF5F4",
"OX c #FCFBF6",
"+X c #F4F4FA",
"@X c #F4FCFB",
"#X c #FEFEF9",
"$X c #FBFFFF",
"%X c #F8FCFF",
"&X c #FDFDFD",
"*X c #FEFEFE",
"=X c white",
"-X c #FFFEFF",
";X c #FEFEFE",
":X c #FEFEFE",
">X c #F6F5F8",
",X c #F9EBEA",
/* pixels */
"P.s.s.j.j.j.s.s.v.OX].r.j.B.f.k.P.8.9 p p q *.P.k.d.B.j.s._.OXB.s.j.j.j.s.j.s.P.",
"s._.XX].].].].].d.'.V.S.#X%X#X+X=XZ.o @ % o h.=X>X#X%XOXA.l.'.s.].].].XX].XX_.s.",
"0.XX=X=X=X=X=X=XS.U.m.=X).l ~.%Xv.J @ & & + S g.%X'.l ^.#XB.R.l.=X=X=X=X=X=X>Xj.",
"B.].=X=X=X=X=X=XB.U.oXZ.7   w Z X   o * % +     A a . : M.>XU.n.=X=X=X=X=X=XXXj.",
"=X=X=X=X=X=X=X=Xx.{.c.@ o < %   - $.i.~.(.i.:.<   @ 1 o o p.XXz.=X=X=X=X=X=XXXj.",
"_.>X=X=X=X=X=X=Xn.>Xw.X - :   S R.$.|.C.i.+X$.R.J X * : o >.oXm.=X=X=X=X=X=XXXj.",
"0.].=X=X=X=X=X=XB.R.#X3.- X P =X%Xu m.-.` L.7 %X=X^ X $ #.#X~.l.=X=X=X=X=X=XXXj.",
"s.XX=X=X=X=X=X=Xn.R.#X/   f =XXXT _.-.m.T.-..X~ _.=XM   ! oXR.n.=X=X=X=X=X=X>Xs.",
"j.j.S.S.S.S.S.B.x.=X!.% . 3.=Xt.@ F.h @.4.t W.: ,.=Xp.  @ I.=XB.B.S.S.S.S.S.j.j.",
">XR.P.R.R.R.R.R.p.W n o a _.D i.P.V  X] ^ XXS c.C.V E.N X v I e.R.P.R.R.P.R.R.XX",
"].S.S.S.S.A.S.].{   o o [ =Xd C.E.a #X#.| #Xg m.).g #XX.o o   / ].A.S.A.A.S.S._.",
"s.P.R.R.R.R.R.].%.o * + B 7.4.1.&.9.' ,.2.} 9.>.%.2.9.V $ * o | ].R.R.R.R.R.P.s.",
"s.XX=X=X=X=X=X=X3.  + < % O & + % * $ % @ $ * % @ + O * < $   $.=X=X=X=X=X=X>Xj.",
"j.].=X=X=X=X=X=Xp.i 8 - , * - - * - - * - - * o S ;.* - @ 6 w w.=X=X=X=X=X=XXXj.",
"j.].=X=X=X=X=X=X=X=X_.> @ ; * o - : ; ; ; ; : o ~ /.- o @ P.=X#X=X=X=X=X=X=XXXj.",
"j.].=X=X=X=X=X=X=X=X=X~ o @ d { : * ; ; : ; ; o Y V.- o P =X=X=X=X=X=X=X=X=XXXj.",
"j.].=X=X=X=X=X=X=X=X=XH.+ o U ].< % > ; ; , > o Y M.= o b.=X#X=X=X=X=X=X=X=XXXj.",
"s.>X=X=X=X=X=X=X%X=XA.9 - o S Y.3 + + ; : , : o R K.* + 5 B.=X=X=X=X=X=X=X=X=Xj.",
"s.B.P.P.P.P.P.P.P.R.@.  + @ A j.* 4 C 1 & @ ; o S g.* $   +.~.P.P.P.P.P.P.R.S.s.",
"XXP.P.P.P.P.P.P.P.S.XXg.# X F g.  c '., 6 b @   E h.+ o u.{.Z.G.P.P.P.P.P.P.P.].",
"XXR.R.R.R.R.R.R.'.#X=XXX>.X d _.U s j.@ ^ s.* ~ +XZ.@ X.XX=X=X_.P.R.R.R.R.R.R.XX",
"s.B.P.S.A.S.A.A.q.].P.d.>Xw.e ].P.c u.o F :.P #X=X7.n #Xv.V.].y.S.A.S.S.S.P.S.s.",
"s.XX=X=X=X=X=X=XB.R.B.R.=XY.c =XY.m L.= ) <.Q =X=X$.G =X`.B.U.n.=X=X=X=X=X=X>Xj.",
"j.].=X=X=X=X=X=XB.(.A.I.#XN.h =XK.u [.'.OX#.F =X=Xb.* .XXXB.R.n.=X=X=X=X=X=XXXj.",
"s.].=X=X=X=X=X=Xm._.Z.E.=XT.s =XK.t .X=X#X#.L %X=X=XH r oXP.~.l.=X=X=X=X=X=XXXj.",
"j.].=X=X=X=X=X=XB.W.A.I.=X>.4 =XK.y [.=X#X$.J OX#X=X%Xh K {.R.x.=X=X=X=X=X=XXXj.",
"s.].=X=X=X=X=X=Xl.!.Z.{.~.o e.=XZ.y }.#X=X#.F =X=X=X=X>.7 ].!.v.=X=X=X=X=X=XXXj.",
"j.XX=X=X=X=X=X=XB.R.Y.Q.a X.=X=XT.y +X=X=X;.G =X=X%X=X3.c =XXXv.=X=X=X=X=X=XXXj.",
"s.P.R.R.R.R.R.R.s.W.].&.3 '.oXR.A + k k } } Y ,X].Y.o.u @ ) p.x.R.R.R.R.R.R.P.s.",
"_.S.S.S.S.S.S.S.D.=X#Xp.e P.oX=.; w.1.^ 2 K G {.Q.! o T ( 0 N {.S.S.S.S.S.S.S.R.",
"%XP.R.R.R.R.R.R.!._.c.] * o.K.g.f oX#X>Xh p.4 6.=XI m %X#Xe.x `.R.R.R.R.R.R.P.>X",
"j.j.S.B.B.B.S.B.U.2.* c F p d <.j _.oX_., V.r.+ J./ n OX=X7.z I.S.B.B.B.B.B.j.j.",
"s.XX=X=X=X=X=X=X%Xg.u =X#XQ.z Z.6 F J a $ C.#XS | 3.* <.6.S f %X=X=X=X=X=X=X>Xs.",
"s.].=X=X=X=X=X=X%Xg.d =X=X|.d .Xb.] ! [ 3.P.=X .T oXK b A v 3.=X=X=X=X=X=X=XXXj.",
"j.].=X=X=X=X=X=X=Xi.- a.N.;.: ].=X%X].#XOXG.=XY M #X=X#X%X=X%X=X=X=X=X=X=X=XXXj.",
"j.].=X=X=X=X=X=X=X'.n 7 d 5 E #X&X=XC.R.@X..i 4 6 9 $.=X=X=X=X=X=X=X=X=X=X=XXXj.",
"j.].=X=X=X=X=X=X=X=X=X{.XX>X%X#X#X=XB.R.=Xq k ).^.G d #X#X#X#X#X=X=X=X=X=X=X].j.",
"j.XX=X=X=X=X=X=X=X=X=X=X=X=X=X=X%X=XA.R.=Xu _ =X#X5.n &X=X=X=X=X=X=X=X=X=X=X>Xj.",
"s._.XXXX=XXXXXXX{.XX|..X.X.XXX{.XX{.x.P.=Xq R =XOX{ m #X.XXX{.{.XXXXXXXXXXXX_.s.",
"P.s.s.S.=X_.0.j.f.j.j.f.f.f.j.j.j.g.s.XX=X~ * i d > S I.j.d.j.v.j.j.j.j.j.j.s.A."
};
