/* XPM */
static char *_12300bb45b54943ca9871be6a52313clSx7PxhFM5mQlPvV[] = {
/* columns rows colors chars-per-pixel */
"40 40 205 2 ",
"   c #020103",
".  c #01010C",
"X  c #09000F",
"o  c #010214",
"O  c #020A15",
"+  c #01031B",
"@  c #010B1C",
"#  c #02121E",
"$  c #030E24",
"%  c #060B24",
"&  c #021223",
"*  c #0A1424",
"=  c #031826",
"-  c #0C1A25",
";  c #02152B",
":  c #041B2C",
">  c #0A1A2B",
",  c #101123",
"<  c #041B32",
"1  c #0C1C33",
"2  c #091B38",
"3  c #181F32",
"4  c #0E222B",
"5  c #062132",
"6  c #0F2132",
"7  c #09223B",
"8  c #142434",
"9  c #12253B",
"0  c #1D253A",
"q  c #162C3B",
"w  c #1B2A3B",
"e  c #102B36",
"r  c #1D333F",
"t  c #153039",
"y  c #222A35",
"u  c #162C42",
"i  c #1C2C41",
"p  c #1F3344",
"a  c #1F384A",
"s  c #232E42",
"d  c #253243",
"f  c #293646",
"g  c #253947",
"h  c #233349",
"j  c #2C3B4C",
"k  c #283A4B",
"l  c #363D4C",
"z  c #313743",
"x  c #2D3E53",
"c  c #353E54",
"v  c #274149",
"b  c #3D424E",
"n  c #2D4154",
"m  c #334352",
"M  c #34465A",
"N  c #3E445B",
"B  c #374B58",
"V  c #3B4C5B",
"C  c #394756",
"Z  c #3C5359",
"A  c #3C4B62",
"S  c #3E5469",
"D  c #404D5B",
"F  c #44475A",
"G  c #41525C",
"H  c #47585F",
"J  c #434F61",
"K  c #435465",
"L  c #4C5664",
"P  c #4A5B64",
"I  c #4B556A",
"U  c #4B5B6B",
"Y  c #465B6C",
"T  c #535D6A",
"R  c #565B61",
"E  c #4C5C75",
"W  c #48606C",
"Q  c #54636B",
"!  c #5B646D",
"~  c #526164",
"^  c #596572",
"/  c #5B6B76",
"(  c #596778",
")  c #5E7079",
"_  c #6B6D7A",
"`  c #656E77",
"'  c #6A7475",
"]  c #67747E",
"[  c #6C727B",
"{  c #707B7F",
"}  c #6B7481",
"|  c #6E7E8C",
" . c #697A82",
".. c #747A83",
"X. c #747D8A",
"o. c #737586",
"O. c #75818B",
"+. c #7B848A",
"@. c #748386",
"#. c #7E8691",
"$. c #838A96",
"%. c #8A8E94",
"&. c #838F9A",
"*. c #888F9F",
"=. c #8D9495",
"-. c #8B929A",
";. c #8D999F",
":. c #83969A",
">. c #94989E",
",. c #8E99A1",
"<. c #8994A2",
"1. c #9296A4",
"2. c #919AA4",
"3. c #979AA5",
"4. c #9CA2A6",
"5. c #9CA3AC",
"6. c #9BA5AD",
"7. c #9FA6B0",
"8. c #9EA8B2",
"9. c #A1AAAC",
"0. c #ACACAE",
"q. c #A5A4A2",
"w. c #B1B1AC",
"e. c #A5AEB3",
"r. c #A9AEB9",
"t. c #ADB2B3",
"y. c #ACB4BB",
"u. c #AAB7BC",
"i. c #B5B5B5",
"p. c #B3B4B9",
"a. c #B5BABA",
"s. c #BABABA",
"d. c #B8BAB6",
"f. c #C3BBB7",
"g. c #C0BCBD",
"h. c #BEC1BA",
"j. c #C4C2BE",
"k. c #ADB7C0",
"l. c #B6BDC4",
"z. c #BABCC3",
"x. c #B7B7C1",
"c. c #BEC2C2",
"v. c #BEC7CC",
"b. c #BFCACE",
"n. c #BFC8D1",
"m. c #C4C4C4",
"M. c #CAC5C6",
"N. c #C4CAC4",
"B. c #C9C9C5",
"V. c #C5C5CA",
"C. c #CAC6CB",
"Z. c #C4CACA",
"A. c #CACACB",
"S. c #D0CFCE",
"D. c #CFD1CF",
"F. c #D3D2CD",
"G. c #D8D6CF",
"H. c #C4CBD2",
"J. c #CCCDD2",
"K. c #CBD2D4",
"L. c #D4D5D3",
"P. c #D5D9D5",
"I. c #DADAD6",
"U. c #D5D6DA",
"Y. c #D6DADC",
"T. c #DCDCDB",
"R. c #DAD6D9",
"E. c #E0D9D1",
"W. c #D7E0DF",
"Q. c #DDE1DB",
"!. c #E2E2DE",
"~. c #EBE0DE",
"^. c #DDDCE0",
"/. c #D7DBE4",
"(. c #DCE1E3",
"). c #E3E3E2",
"_. c #EAE6E4",
"`. c #E3EAE4",
"'. c #EAE9E3",
"]. c #E6E5E9",
"[. c #E9E7E9",
"{. c #E6EAEC",
"}. c #EDEDEC",
"|. c #F3ECEC",
" X c #ECF1EB",
".X c #F4F2ED",
"XX c #EEEEF2",
"oX c #E6EBF1",
"OX c #F3EFF0",
"+X c #EEF0F3",
"@X c #F2F2F2",
"#X c #FCFBF6",
"$X c #FDF7FC",
"%X c #F5FCFC",
"&X c #FAFAFA",
"*X c #FFFFFA",
"=X c #FDFDFD",
"-X c gray99",
";X c #FCFFFF",
":X c #FEFEFE",
">X c white",
",X c #FEFFFF",
"<X c #FEFDFE",
"1X c #FEFEFE",
"2X c #F7F5F8",
/* pixels */
"L.i.i.s.s.s.i.i.s.&X}.i.s.s.i.s.i.i.i.i.i.i.i.i.s.i.i.s.i.].&Xm.i.s.s.s.i.s.i.L.",
"i.).@X}.}.}.}.}.s.).A.A.}.}.}.}.}.}.}.}.}.}.}.}.}.}.}.@XA.B.T.i.}.}.}.}.}.@X).i.",
"0.@X>X>X>X>X>X>Xm.).B.T.>X>X>X>X>X>X>X>X>X>X>X>X>X>X>X>XT.m.T.s.>X>X>X>X>X>X&Xs.",
"m.}.>X>X>X>X>X>Xm.).A.R.>X>X>X>X>X>X>X>X>X>X>X>X>X>X>X>XT.A.T.s.>X>X>X>X>X>X@Xs.",
">X>X>X>X>X>X>X>Xm.T.A.L.>X>X>X>X>X>X>X>X>X>X>X>X>X>X>X>XR.A.T.h.>X>X>X>X>X>X@Xs.",
"].&X>X>X>X>X>X>Xm.).A.L.>X>X>X>X>X>X>X>X>X>X>X>X>X>X>X>XR.A.).s.>X>X>X>X>X>X@Xs.",
"0.}.>X>X>X>X>X>Xs.).A.R.>X>X>X>X>X>X>X>X>X>X>X>X>X>X>X>XT.B.).s.>X>X>X>X>X>X@Xs.",
"i.@X>X>X>X>X>X>Xs.}.T.}.>X>X>X>X>X>X>X>X>X>X>X>X>X>X>X>X).m.R.s.>X>X>X>X>X>X&Xi.",
"s.d.V.M.V.V.V.m.d.(.Z.i.m.V.Z.M.M.N.m.N.j.B.B.N.V.B.M.B.i.D.+Xz.A.F.F.A.m.Z.g.s.",
"$XR.T.K.'.'.L.R.&XP @ ; X P }.P.F._.}.F.U.I.P.T.T.T.P.T.R.<X*X'.A.J.L.(.I.U.P.2X",
"[.B.C.}.P.Y.'.@X&Xj + # . K >X.X{.L.Y.>X>XG.M.A.A.A.J.S.F._.3.j M m d <._.A.A.).",
"w.B.].).* x }.7.l # o ; : ; F y.].8 - &X@X0.P.I.T.P.'..XQ.%XQ w t.y.H w '.T.K.t.",
"p.>X#Xv o % k o   & d w & : o : u @ . S ].(.*X>X>X>X-XT A E > } >X<X5.x >X>X$Xs.",
"A.+Xh   5 ;   & O.R.*XX.o < = @ + @ ;   g }.>X>X>Xv.- V 8.e.l T *X>X&.p >X>XXXs.",
"m. X} % = . j !.>X| u.6.  > > < 1 1 : : o f B m m & O.-X*X>X7.& K K > Y >X>X.Xs.",
"i.-X>Xk   h &X>X>X[ p.2.. ; & 4.Y.L.i.V.v.>.z.l.y.Y.>X>X>X-X2Xy.r.e.0.[.*X>X@Xa.",
"c.>XH.O O 2X>XD I >X>X} . : ; M P Y V b Z.>X>X-X*X>X-X>X} y V S ! -X>X-X>X>X|.s.",
"M.-XT   1.u.| k.H.D #.y.  : > @ o + + o 6 K I G J K K b @ 1.y.y.9 6.>X*X>X-X>Xa.",
"f r : @ a.;./ t.r.p.Y.[ o : : : 1 + ` Z.i.1.5.%.=.$.,.+.8 K.*X#XV -._.F.L.P.M.i.",
"& + @ 1 B.V.N.! ^ s.L.} + < < : : & v ( W N Q @X|.XX>X Xq y.}.|.m -.{.K.J.L.S.}.",
"7 = @ 2 }.U N H.P.M  .4.. : : : : > $ @ & o 4 ].>X>X}.[.d m Y M @ 5._..X*X#X&X*X",
"o o O ; s.L.R.K p >X@XG + : < * : : o ~ J.y.r.x.(.R.t.V.*.T ;.' 5.P.E.s.-.2.%.9.",
"! ) 8 o K.&.L OXm./ ,.' + 1 : < : < : 6 v K K j a j x x J z ` >X-X>X>Xw i n k : ",
"T.*XX.  ^ Q.k./ T X.$...+ & & @ $ % &   { {.].`.{._.{.`.P.z.n 0 i.K.6.4 (.&X].> ",
"i.>XXX3   b.<X:.^ #X$XH + 9 e 9 9 8 > d %X>X>X>X>X>X>X>X[..X>X[ n C 0 u >X*X>X5 ",
"i.>X-Xh . $ K.>X>X6 ^ ..+ V.).R.Y.Y.U.}.>X}.].>X*X-X>X*X).9.l.i.A.%XL.= n.).J.; ",
"C. Xa . : + & 5..Xz.F.] . x B C V B V c 3 g q s A.>X-X>X$.o 4 5 , 8.-Xn > w 8 h ",
"j.$X) o ; < .   r e.H.Z % @ + o   + o   O.oXXX@.$ 3.`.W.c _ ).).Q K >X-X[.XX/.j.",
"0.T.-X^   @ R 8   . @ ; < $ . i L .   O.>X}.}.>Xq.& 8 t o e.*X<X .V |._..X|.{.f.",
"].j.G.#X/ X.>XY.=.q @ = # s >.].>X] ...XV.Z.B.A.}.^.c.^.l o.+XT.k C [.A.N.N.N.^.",
"$XP.L.!.}.[.R.XX>Xj   +   I >X_.^.`..X>X*X!.T.R.L.~.'.$X} o > 7 o o.}.^.T.R.L.&X",
"h.s.V.h.M.Z.f.M.D._ D P V O.G.c.m.m.i.{.}.w.c.m.j.c.z.Z.F.i.i.r.s.F.B.j.m.V.s.s.",
"i.@X>X>X>X>X>X>X>X>X>X>X>X>X>X>X>X>XA.L.T.m.>X>X>X>X>X>X>X>X>X>X>X>X>X>X>X>X&Xi.",
"i.}.>X>X>X>X>X>X>X>X>X>X>X>X>X>X>X>XB.R.).m.>X>X>X>X>X>X>X>X>X>X>X>X>X>X>X>X@Xs.",
"s.}.>X>X>X>X>X>X>X>X>X>X>X>X>X>X>X>XA.T.).B.>X>X>X>X>X>X>X>X>X>X>X>X>X>X>X>X@Xs.",
"s.}.>X>X>X>X>X>X>X>X>X>X>X>X>X>X>X>XB.T.).m.>X>X>X>X>X>X>X>X>X>X>X>X>X>X>X>X@Xs.",
"s.}.>X>X>X>X>X>X>X>X>X>X>X>X>X>X>X>XA.T.T.m.>X>X>X>X>X>X>X>X>X>X>X>X>X>X>X>X}.s.",
"s.@X>X>X>X>X>X>X>X>X>X>X>X>X>X>X>X>XA.R.T.B.>X>X>X>X>X>X>X>X>X>X>X>X>X>X>X>X&Xs.",
"i.].@X@X>X@XXX@X@X@X@X@X@X@X@X@X@X@Xs.R.T.s.@X@X@X@X@X@X@X@X@X@X@X@X@X@X@X@X].i.",
"L.i.i.B.>X'.0.s.s.s.s.s.s.s.s.s.s.s.i.@X@Xs.s.s.s.s.s.s.s.s.s.s.s.s.s.s.s.s.i.A."
};
