/* XPM */
static char *_6444_06434daa2193f1e19ef75a35404635f723c3dda36d139dd289cd0ff4784f49e0[] = {
/* columns rows colors chars-per-pixel */
"80 80 213 2 ",
"   c #051626",
".  c #061927",
"X  c #03172B",
"o  c #09172A",
"O  c #051A2D",
"+  c #091B2C",
"@  c #0B1826",
"#  c #121F2F",
"$  c #041C32",
"%  c #091D32",
"&  c #031E3A",
"*  c #062035",
"=  c #0B2135",
"-  c #05223B",
";  c #0B223A",
":  c #142534",
">  c #182531",
",  c #172935",
"<  c #1B2935",
"1  c #11263C",
"2  c #14293B",
"3  c #1B2C3C",
"4  c #1D303D",
"5  c #17323D",
"6  c #19232D",
"7  c #222D3A",
"8  c #222F37",
"9  c #23323E",
"0  c #2B353E",
"q  c #042442",
"w  c #0A2344",
"e  c #0F2B41",
"r  c #112B44",
"t  c #1B2E43",
"y  c #1C3244",
"u  c #173044",
"i  c #212C42",
"p  c #243442",
"a  c #293541",
"s  c #263845",
"d  c #2B3945",
"f  c #20364A",
"g  c #2C3C4B",
"h  c #233A48",
"j  c #323C42",
"k  c #313E4C",
"l  c #383F45",
"z  c #263C51",
"x  c #2F414F",
"c  c #35414D",
"v  c #3A444E",
"b  c #344452",
"n  c #3A4652",
"m  c #3D4955",
"M  c #3D4D5B",
"N  c #36485B",
"B  c #3F5265",
"V  c #424C55",
"C  c #414E59",
"Z  c #43515E",
"A  c #4A535D",
"S  c #4D595F",
"D  c #4B5256",
"F  c #445363",
"G  c #495663",
"H  c #4B5965",
"J  c #4D5D6B",
"K  c #475866",
"L  c #525B63",
"P  c #575F6B",
"I  c #4E606E",
"U  c #54616D",
"Y  c #5D656B",
"T  c #5D656B",
"R  c #5C6772",
"E  c #5C6974",
"W  c #5E6C7A",
"Q  c #566673",
"!  c #5F717F",
"~  c #62666A",
"^  c #66686A",
"/  c #646B73",
"(  c #6C6F72",
")  c #626E79",
"_  c #6B7274",
"`  c #64717D",
"'  c #6B747C",
"]  c #6B7477",
"[  c #72767B",
"{  c #737A7D",
"}  c #797679",
"|  c #67726E",
" . c #647382",
".. c #687581",
"X. c #6F7B84",
"o. c #737C83",
"O. c #7C7E82",
"+. c #777F8C",
"@. c #6F8088",
"#. c #7D8286",
"$. c #73838E",
"%. c #7D848B",
"&. c #7F888F",
"*. c #7A8692",
"=. c #7C8995",
"-. c #768492",
";. c #828484",
":. c #8B8B8E",
">. c #83878A",
",. c #8A918F",
"<. c #848D95",
"1. c #8B8D92",
"2. c #838E99",
"3. c #8C9194",
"4. c #849099",
"5. c #8B939B",
"6. c #8B949A",
"7. c #939495",
"8. c #93969B",
"9. c #9A9B9D",
"0. c #969B9A",
"q. c #8F9CA5",
"w. c #999FA4",
"e. c #919EA6",
"r. c #9DA2A6",
"t. c #9CA4AB",
"y. c #9FA9AB",
"u. c #9FAAB2",
"i. c #9DA7B0",
"p. c #A4A4A5",
"a. c #ACA9A6",
"s. c #A2A5A9",
"d. c #A5AAAD",
"f. c #ABABAB",
"g. c #A8A7A4",
"h. c #B2AFAF",
"j. c #ACB0AF",
"k. c #B3B0AF",
"l. c #B8B0AD",
"z. c #A3ABB4",
"x. c #ABAEB1",
"c. c #A8AFB9",
"v. c #B1AFB3",
"b. c #ABB2B4",
"n. c #ACB3BA",
"m. c #A6B2BD",
"M. c #B2B2B2",
"N. c #B6B8B7",
"B. c #B9B9B6",
"V. c #B5B6B9",
"C. c #B3BABC",
"Z. c #BBBBBB",
"A. c #B8B6B4",
"S. c #C1BDBD",
"D. c #C2C1BE",
"F. c #B4BDC4",
"G. c #BDBEC2",
"H. c #A7B9C7",
"J. c #C1BFC6",
"K. c #BCC2C4",
"L. c #BDC4CA",
"P. c #BEC7D0",
"I. c #C2C2C2",
"U. c #C3C6CA",
"Y. c #C4CACC",
"T. c #CBCCCC",
"R. c #C8C7C4",
"E. c #D1CDCA",
"W. c #D2D1CE",
"Q. c #CDCED1",
"!. c #C5CED3",
"~. c #D1CFD2",
"^. c #CED2D3",
"/. c #CBD4DB",
"(. c #D4D4D4",
"). c #DAD6D2",
"_. c #D6D8D6",
"`. c #DBD9D5",
"'. c #D4D6D9",
"]. c #DAD7D9",
"[. c #D5DADB",
"{. c #DDDDDD",
"}. c #E1DDDB",
"|. c #DEE0DE",
" X c #E1E0DE",
".X c #D5DBE1",
"XX c #DBDDE1",
"oX c #DCE1E4",
"OX c #DEE5EA",
"+X c #E5E5E5",
"@X c #E7E9E7",
"#X c #EDE9E6",
"$X c #E5E5EB",
"%X c #E6EAEC",
"&X c #ECECEC",
"*X c #EAE6E5",
"=X c #F1EDEC",
"-X c #F4EDE7",
";X c #EEF0ED",
":X c #F2F2EF",
">X c #E5ECF2",
",X c #ECEEF2",
"<X c #EDF2F4",
"1X c #EFF5FA",
"2X c #F3F3F3",
"3X c #F8F5F4",
"4X c #F5F8F6",
"5X c #FEFBF6",
"6X c #F2F6F9",
"7X c #F5FAFD",
"8X c #FEFFFE",
"9X c #F9F7F8",
"0X c #F4EEF2",
/* pixels */
"8X(.I.I.I.I.J.I.I.I.I.I.I.I.I.I.D.{.8X8X8X&XI.D.I.W.B.f ; O * % * % % r h S.(.D.I.I.I.I.I.I.I.I.I.I.I.I.I.I.I.I.D.D.@X8X8X8X+XI.S.I.I.I.I.I.I.I.I.I.I.I.D.I.(.9X",
"(.f.M.M.M.M.k.M.M.M.M.M.M.v.k.M.V.f. X8X3XV.h.M.M.'.O.% X 7 , > > 3 > $ + ,.R.M.M.M.v.j.k.k.M.M.f.M.M.M.M.M.v.j.M.M.M.&X8X+XM.v.v.M.M.M.k.b.M.v.M.v.M.k.M.M.f.T.",
"I.f.].+X@X@X@X+X+X+X@X@X@X@X+X@XT.f.T.8X|.f.U.+X@X2Xx.% C 8X7X8X7X8X<X$ + I.,X$X+X+X+X+X+X+X+X+X+X+X+X+X+X+X+X+X+XR.f.'.8X(.g.T.@X@X@X+X*X@X@X@X@X+X@X+X@X{.M.I.",
"I.M.&X8X8X8X8X8X8X8X8X8X8X8X8X8X+Xf.T.8X{.f.T.8X8X8XY.% G 8X8X8X8X8X5X$ % oX8X8X8X8X8X8X8X8X8X8X8X8X8X8X8X8X8X8X8X(.g.'.8XT.f.{.8X8X8X8X8X8X8X8X8X8X8X8X8X2XV.S.",
"I.M.@X8X8X8X8X8X8X8X8X8X8X8X8X8X+Xp.T.8X+Xf.R.8X8X8XL.X F 8X7X8X8X8X3XO $ .X8X8X8X8X8X8X8X8X8X8X8X8X8X8X8X8X8X8X8XQ.f.{.8XT.f.(.8X8X8X8X8X8X8X8X8X8X8X8X8X,XM.I.",
"I.M.+X8X8X8X8X8X8X8X8X8X8X8X8X8X{.f.(.8X{.x.T.8X8X8XL.O F 8X8X8X8X8X<X$ O XX8X8X8X8X8X8X8X8X8X8X8X8X8X8X8X8X8X8X8X^.g.].8X(.f.].8X8X8X8X8X8X8X8X8X8X8X8X8X=XM.I.",
"Z.f.+X8X8X8X8X8X8X8X8X8X8X8X8X8X{.f.Q.8X+Xf.T.8X8X8XG.O H 8X8X8X8X8X8XO O XX8X8X8X8X8X8X8X8X8X8X8X8X8X8X8X8X8X8X8X(.f.].8X(.f._.8X8X8X8X8X8X8X8X8X8X8X8X8X&XV.I.",
"].Z.2X8X8X8X8X8X8X8X8X8X8X8X8X8X{.g.(.8X}.f.R.8X8X8XK.O m ]..XXX{.[.^.@ O [.8X5X8X8X8X8X8X8X8X8X8X8X8X8X8X8X8X8X8X&XI.8X8XT.f.(.8X8X8X8X8X8X8X8X8X8X8X8X8X&XM.I.",
"8X8X8X8X8X8X8X8X8X8X8X8X8X8X8X8X{.f.(.8X}.f.U.8X8X8XK.. & X O O O O O O $ {.8X8X8X8X8X8X7X8X8X8X8X8XXX+.`  .` ` ` L V $.8X`.f.'.8X8X8X8X8X8X8X8X8X8X8X8X8X&XM.I.",
"8X8X8X8X8X8X8X8X8X8X8X8X8X8X8X8XXXf.T.8X+Xf.T.8X8X8X5XU d p 4 $ $ 3 0 g  .9X8X8X8X8X8X8X8X8X8X8X8X8XK O X $ @ O & ; - - d.8Xf.`.8X8X8X8X8X8X8X8X8X8X8X8X8X&XV.I.",
"8X8X8X8X8X8X8X8X8X8X8X8X8X8X8X8X{.f.Q.8X+Xf.R.8X5X8X8X8X8X8X1X+ O 7X8X8X8X8X8X8X8X8X8X8X8X8X8X8X5X8Xm X  .=.2.2.<.O.9 & %.8Xf.(.8X8X8X8X8X8X8X8X8X8X8X8X8X&XM.I.",
"].I.3X8X8X8X8X8X8X8X8X8X8X8X8X8X{.f.T.8X8XI.#X8X8X8X8X8X8X8X8X. $ 8X5X8X8X8X8X8X5X8X8X8X8X8X8X8X8X8XF O oX8X8X5X8X3XS % 5.8Xf.(.8X8X8X8X8X8X8X8X8X8X8X8X8X=XM.I.",
"Z.p.+X8X8X9X8X8X8X8X8X8X8X8X8X8X}.g.*XoXz.#.7.L.L.L.L.U.8X5X1X$ O 2X8X8X9X8X8X8X8X8X8X8X8X8X8X8X8X8XB $ K.8X8X8X8X&XM & 4.8Xg.(.8X8X8X8X8X8X8X8X8X8X8X8X8X&XM.I.",
"I.M.+X8X8X8X8X8X8X8X8X8X8X8X8X8XXXU.i.= * * ; $ O O O X E 8X4XO O 2X8X8X8X8X/.] ! ` ` ) ` W ` =.8X5XB $ K.8X8X8X8X#XV ; 5.8Xa.].8X8X8X8X8X8X8X8X8X8X8X8X8X&XM.I.",
"I.M.+X8X8X8X8X8X8X8X8X8X8X8X8X8X}.`.| + = n c A K B b O X 8X8XO O 8X8X7X8X8Xp . O O + O + X + O b.8XF . K.8X8X8X7X:Xm & 5.8Xa.[.8X8X8X8X8X8X8X8X8X8X8X8X8X<XM.I.",
"I.M.&X8X8X8X8X8X8X8X8X8X8X8X8X8X+X(.o.= b OX+X8X8X8X[.+ = 8X8X* O K.8X8X8X5X$ $ =.z.n.n.c.m.x + z.8XK O oX8X8X8X8X5XS - 5.8Xg.XX8X8X8X8X8X8X8X8X8X8X8X8X8X3XM.D.",
"I.M.(.@X@X+X+X@X@X+X+X@X@X@X+X+X(.).{ - k W.T.%X%X7XV.& = }.4X' - = (.8X$X{.* * Q.8X8X8X8X8XK ; 8.8Xn + -.i.z.z.t.8.s + =.8Xf.^.+X+X*X@X@X@X+X@X@X+X+X@X+X{.M.I.",
"(.f.M.M.M.M.M.M.M.M.M.M.M.v.M.M.V.`.#.q n ).A.M.l.(.;.+ % g.^.{.j - , I.[.p.+ = ;.(.M.f.N.R.d ; [ 6Xy ; $ + O   - % $ $ t.8Xh.k.M.M.M.M.M.v.M.M.M.v.M.M.M.M.f.T.",
"8X(.I.I.I.G.I.I.I.I.I.Z.I.I.J.D.I.9Xr.- H 3XT.J.I.XX,.* % C.E.`.T.3 - c 2XK.% % 7.{.I.I.R.(.c - } :X3.L S L , $ x Y ` $.6X8X+XS.I.I.I.Z.G.I.I.I.J.I.I.I.K.S.(.9X",
"8X8X8X9X8X8X8X8X8X8X8X8X8X8X8X8X8X8Xb.$ I 8X8X8X8X8XT.& ; 9X8X8X8XXXy * 8.8X1 $ S.7X8X8X8X8XF - f.8X8X8X8X8XK ; (.8X8X8X8X8X8X8X8X8X8X8X8X8X8X8X8X8X8X8X8X8X8X8X",
"8X&X{. X}.{.+X{.+X{.{.+X+X{.{.+X{.<X>.; n XX(.(.W.@Xs.% + ^.@XoX{.8X0.* n 2X2 $ $X8X8X7X8X8XC ; 1.<X|.+X$X%Xm * d.=X{.XX`.`.{.XX+X{.{.+X{.+X{.{.{.{.XX{.}.XX*X8X",
"@XM.f.f.f.f.f.g.f.f.f.f.f.f.f.f.a.'.T ; X   @ . O     $ + p.S.d.f.R.p.- c Z.O % <.r._ ( ' O.7 = ~ (.f.f.M.I.0 - #.(.f.f.a.f.f.f.f.f.f.f.f.f.f.f.f.a.g.f.f.f.b.{.",
"I.M.R.Q.~.T.T.^.T.T.(.T.R.T.T.T.E.XXZ.g : O $ & $ $ = 2 ` +XE.^.T.}.d.- l |.3 + $ = = % & % & $ 1.%XT.T.(.oXc - 9.*XT.T.T.W.T.T.T.T.T.T.T.T.T.(.(.R.^.(.T.R.V.I.",
"J.M.@X8X8X8X8X8X8X8X8X8X8X8X8X8X8X8X5X8X1X1X/.@ 0 <X<X2X8X8X5X8X8X8XoX* a >X7. .` A Z W p o H 4.8X5X8X8X8X8XS & F.8X8X8X8X8X8X8X8X8X8X8X8X8X8X8X8X8X8X8X8X2XM.S.",
"I.M.+X8X8X8X8X8X8X8X8X8X8X8X8X8X8X8X8X8X8X8X%XO h 8X5X8X8X8X7X8X8X8X{.* a T.(.8X8X{.(.8XQ $ .X8X8X8X8X8X8X/.1 X (.8X8X8X8X8X8X8X8X8X8X8X8X8X8X8X8X8X8X8X8X&XM.I.",
"I.k.+X8X8X8X8X8X8X8X8X8X8X8X8X8X8X8X8X8X8X8X[.X 9 8X5X8X8X8X8X8X8X8XXX$ p (.R.5X8XI.N.8XU O U.8X8X5X8X8X&X: O ..8X8X8X8X8X8X8X8X8X8X8X8X8X8X8X8X8X8X8X8X8X&XM.I.",
"I.M.@X8X8X8X8X8X8X8X8X8X8X8X8X8X8X8X8X8X8X8X.XO 9 8X8X7X8X8X8X8X8X8XXX$ a (.G.7X8XI.M.8XJ $ K.8X8X8X8X8Xv O M 8X8X8X8X8X8X8X8X8X8X8X8X8X8X8X8X8X8X8X8X8X8X&XM.I.",
"I.M.@X8X8X8X8X8X8X8X8X8X8X8X8X8X8X8X8X8X8X8X[.O h 8X8X8X5X8X8X8X8X8X[.& 9 (.I.7X8XI.C.8XI O L.8X8X8X8XE O 3 7X5X8X8X8X8X8X8X8X8X8X8X8X8X8X8X8X8X8X8X8X8X8X,XM.I.",
"I.M.@X8X8X8X8X8X8X8X8X8X8X8X8X8X5X8X8X8X8X8X'.+ 1 >X5X8X8X8X8X5X8X8X[.& a Q.I.9X8XI.M.8XU X L.8X8X8Xt.. : .X8X8X8X8X8X8X8X8X8X8X8X8X8X8X8X8X8X8X8X8X8X8X8X&XM.I.",
"I.v.@X8X8X8X8X8X8X8X8X8X8X8X8X8X8X8X8X8X8X8X9XH O p 8X8X8X7X8X8X8X8XXX$ a (.I.5X8XI.N.8XJ $ L.8X8X8XH O q.8X8X8X8X8X8X8X8X8X8X8X8X8X8X8X8X8X8X8X8X8X8X8X8X2XV.D.",
"I.k.+X8X8X8X8X8X8X8X8X8X8X8X8X8X8X8X8X8X8X8X8X1X9 O R 8X8X8X8X8X8X8XXX$ a ^.K.9X8XK.M.8XJ $ K.8X8X8X .X n.8X8X8X8X8X8X8X8X8X8X8X8X8X8X8X8X8X8X8X8X8X8X8X8X&XM.D.",
"I.M.@X8X8X8X8X8X8X8X8X8X8X8X8X8X8X8X8X8X8X8X9X8XoX$ $ <.8X8X8X8X8X8X[.; a (.K.5X8XR.M.8XI O L.8X8X8X) O t.8X8X8X8X8X8X8X8X8X8X8X8X8X8X8X8X8X8X8X8X8X8X8X8X&XM.I.",
"I.M.@X8X8X8X8X8X8X8X8X8X8X8X8X8X8X8X8X8X8X8X8X8X8XK.X O c.8X8X8X8X8X[.% a Q.U.8X8X~.Z.8XJ $ K.5X8X8XW $ t.5X8X8X8X8X8X8X8X8X8X8X8X8X8X8X8X8X8X8X8X8X8X8X8X&XM.I.",
"I.v.@X8X8X8X8X8X8X8X8X8X8X8X8X8X8X8X8X8X8X8X8X8X8X8X@.O P 8X8X5X8X8X{.$ a ).S.,X6XF.l.8XI $ P.8X8X8X` O y.8X8X8X8X8X8X8X8X8X8X8X8X8X8X8X8X8X8X8X8X8X8X8X8X:XM.I.",
"I.M.@X8X8X8X8X8X8X8X8X8X8X8X8X8X8X8X8X8X8X8X8X8X8X8XL.O W 8X8X8X8X8X[.& p 2X#.3 : ; } 8XU   L.8X8X8X) O t.8X8X8X8X8X8X8X8X8X8X8X8X8X8X8X8X8X8X8X8X8X8X8X8X&XV.I.",
"I.v.@X8X8X8X8X8X8X8X8X8X8X8X8X8X8X8X8X8X8X8X8X8X8X5Xn.O ! 8X8X8X8X8XXX- s 3Xo.- $ - ( 8XU O U.8X8X8X' O f.8X8X8X8X8X8X8X8X8X8X8X8X8X8X8X8X8X8X8X8X8X8X8X8X2XM.Z.",
"Z.M.+X8X8X8X9X8X8X8X8X8X8X8X8X8X8X8X8X8X8X8X7X8X8X8Xf.= W 8X8X8X8X8X].= s 3XO.% + % [ 8XH * G.8X5X8X` = z.8X8X8X8X8X8X8X8X8X8X8X8X8X8X8X7X8X8X8X8X8X8X8X8X@XM.J.",
"R.M.K.R.I.T.I.I.I.I.I.I.I.I.I.I.I.I.I.I.I.R.I.I.K.2X4.= A {.T.S.I.;XD.+ d 2X} $ O + o.3Xc ; 9.%XI.oXG $ ] {.{.Z.I.I.I.I.I.I.I.I.I.I.I.I.I.I.R.I.I.I.I.I.I.I.M.I.",
"2XZ.f.M.f.f.M.f.k.k.M.M.k.M.h.b.M.M.M.M.M.M.f.M.(.I.p & D W.V._.|.n./ O c 3X1.- $ & o.2Xd ; >.;X^.(.V - O , z.+XV.h.M.M.v.M.v.j.x.k.M.h.M.M.f.M.v.v.j.M.M.f.Z.@X",
"8X8X2X=X2X2X=X<X2X,X2X2X,X:X2X2X2X&X@X+X#X@X&X8X<X8 % & E 2X8XZ.T = $ - b 8XT.& O % g.8XB $ + M U.:X~ $ $ * : (.8X&X@X@X*X@X@X2X2X=X2X:X,X2X2X=X2X;X2X=X2X2X8X8X",
"8X8X8X8X8X8X9X8X8X9X8X9X8X8X8X9X8X8X5X8X5X8X8X2XN & X $ / 8Xz.; & $ O O + H.=.@ O * s.8XZ * O = -.8X..O O $ + t oX8X5X8X8X8X8X8X8X9X8X9X8X8X8X8X8X8X8X8X8X8X8X8X",
"9XI.M.B.A.Z.Z.V.Z.B.Z.Z.B.C.Z.A.A.U.8X8X8X9XG.3 % O O & D 8XD & + X O O O + @ O + $ &.8Xn * O X 4.8X` O O O   & + d.8X5X8X5X^.M.B.V.Z.Z.B.C.V.Z.Z.A.B.V.Z.B.Z.2X",
"T.f.Z.Z.Z.V.Z.Z.Z.V.Z.Z.Z.Z.Z.Z.Z.f.'.7X8XC.< $ O O $ % A 8XT = O % O   O O O O X = / OXs $ O O 4.8X` O O $ O O $ : w.8X8X{.f.Z.Z.Z.Z.Z.Z.Z.A.Z.N.A.Z.Z.V.Z.j.I.",
"I.M.oX2X2X2X:X2X2X2X2X2X2X2X2X2X(.f.(.8X+X@ - O O O O $ / 8X%.$ @ @ $ O O $ O O O $ . 6 + $ X + <.8X` O O O O $ @ - O T.8X^.f.(.2X2X2X2X2X2X2X2X2X2X2X2X2X+XV.I.",
"I.M.&X8X8X8X8X8X8X8X8X8X8X8X8X8XoXf.T.8X*Xp & O $   O + ' 8X6.$ O O O O O X O O O O + + O O O + 4.8X` X O O + $ + & , (.8XT.f.].8X8X8X8X8X8X8X8X8X8X8X8X8X3XM.Z.",
"I.v.@X8X8X8X8X8X8X8X8X8X8X8X8X8X{.g.(.8X&X(.n % $ + O X ` 8X<.O O $ O O X + O O O $ X O O O O O 4.8X` O O O @ $ % a U.:X8X^.f.[.8X8X8X8X8X8X8X8X8X7X8X8X8X&XM.I.",
"S.M.+X8X8X8X8X8X8X8X8X8X8X8X8X8X{.f.W.8X].J.<XW $ @ O + ) 8X<.$ O O O O O O X * O O O $ O O O O 4.8X` O O O X $ K $XI.(.8XW.f.(.8X8X8X8X8X8X8X8X8X8X8X8X8X&XM.I.",
"I.M.+X8X8X8X8X8X8X8X8X8X8X8X8X8X{.f.T.8X+Xg.8X:.&   $ O  .8X2.O O O O O O O O O O O O O O O O $ 5.8X..O O $ + % _ 8Xd.[.8XW.f._.8X8X8X8X8X8X8X8X8X8X8X8X8X<XM.S.",
"I.b.*X8X8X8X8X8X8X8X8X8X8X8X8X8X{.g.(.8XoXT.j.+ $ . O O ` 8X1.O O O O O $ O O O O O O O O O O $ 6.7X..+ O $ O O O r.(.'.8X(.d.).8X8X8X8X8X8X8X8X8X8X8X8X8X&XM.I.",
"I.M.+X8X8X8X8X8X8X8X8X8X8X8X8X8XoXf.Q.8X+X'.H $ O + O $ ` 8X4.O O O O O O O O O O $ O O O O O O a -., + O O X O * V {.`.8X^.f.(.8X8X8X8X8X8X8X8X8X8X8X8X8X<XV.D.",
"I.M.@X8X8X8X8X8X8X8X8X8X8X8X8X8X|.a.Q.8X#XZ.: & X X X $ ` 8X1.O + $ O O O O + O O + O O O O O + O X % X O O % O $ $ p.-X8X(.a.[.8X8X8X8X8X8X8X8X8X8X8X8X8X&XM.D.",
"I.M.@X8X8X8X8X8X8X8X8X8X8X8X8X8X`.S.;X8X8X;.+ O + O O X ` 8X<.$ O X O O O + O O O O O + O O O O $ $ O O O O X O $ % / 8X8X2XD.(.8X8X8X8X8X8X8X8X8X8X8X8X8X&XM.I.",
"I.M.@X8X8X8X8X8X8X8X8X8X8X8X8X8X;X~ L  .) < % O + X * X X.8Xi.O O O O + O O O O O O O O O O O O O O O O + . O O O % : E ..P T  X8X8X8X8X8X8X8X8X8X8X8X8X8X&XM.I.",
"I.v.@X8X8X8X8X8X8X8X8X8X8X8X8X8X6X< ; $ + $ O O O O O O 4 m.Q O O O O O O O O O O O O O O O O O O O . + O O $ O O O % $ $ & O {.8X8X8X8X8X8X8X8X8X8X8X8X8X,XM.I.",
"I.k.+X8X8X8X8X8X8X8X8X8X8X8X8X8X6Xp & O O $ O $ O O O O % O X O O O $ O O $ O O O O O O O O O O O O O X O O O O O O $ O $ $ < [.8X8X8X8X8X8X8X8X8X8X8X8X8X=XM.I.",
"I.M.+X8X8X8X8X8X8X8X8X8X8X8X8X8X3X0 % + O O @ O $ . O O O $ O + O O O O + O O O O X % O O O O O O O $ $ $ $ O O O O O + @ % > {.8X8X8X8X8X8X8X8X8X8X8X8X8X&XV.I.",
"Z.M.@X8X8X8X8X8X8X8X8X8X8X8X8X8X3X0 = $ X + O O $ 2 3 u 3 p t i t t 3 4 t t t y 5 i i 4 5 3 t y 3 4 t t t 3 < $ O O + O O O , |.8X8X8X8X8X8X8X8X8X8X8X8X8X2XM.D.",
"I.V.T.(.(.(.].(.(.(.(.(.(.(._.].XXk $ O + X $ $ $ 9.].Q.&X@XXXT.R.{.&X@XT.D.(.@X@X(.I.R.@X>X+XK.I.[.,X@XQ.(.b.+ O . O O O & p R.{.(.(.(.(.(._.(.(.(.(.[.(.E.V.K.",
"+XM.f.f.f.f.f.a.f.f.f.f.f.f.f.x.R.b $ O O O O X + :.2XM.( _ ;.T.W.1./ [ M.`.p.| _ 9.{.Z.[ _ ;.T.].3.| ( j.0X9.+ O O O $ O & p V.V.f.g.f.f.f.f.f.f.f.f.g.f.f.f.].",
"8X+X(.(.(.(.'.(.(.(.(.(.(.(.(.].*Xn & $ $ O O + - #.8XL.& q s @X2XM w & L.8X%.- w ` 8X/.; ; d %X9XQ r 2 c.8X6.% O O X O O . s [.{.(.(.'.(.(.(.(.(.(.].(.(.(.{.8X",
"8X8X8X8X8X8X8X8X8X8X8X8X8X8X8X8X8Xm - % $ $ O $ $ ) 8X<X+ - K 8X8X` $ ; <X8Xb.% $ r.8X8Xy $ U 8X8X<.1 z '.8X<.& $ $ % % * ; 3 8X8X8X8X8X8X8X8X8X8X8X8X8X8X8X8X8X",
"8X].R.I.T.R.T.R.R.T.R.R.T.R.T.R.'.4./ Y { d + $ % + E.(.9.9.r.(.*XT.g.7.(.,X8X'.^.7X2X`.7.y.U.*X].f.0.r.R.[.p O O O p { / Y :.(.R.T.R.T.T.T.R.R.T.R.R.T.T.I.(.8X",
"{.a.f.M.f.f.f.f.x.f.f.f.f.f.f.f.g.R.`.W.5X8.@ O $ & o.{.E.T.`.3.A E p.5X{ M ) 8X8X%.C _ 2XV./ A >.(.E.R.(.,.$ $   + ' 8X_.[.R.f.f.f.f.a.f.f.f.f.f.g.x.f.a.M.f.(.",
"Z.M.(.oXXX X{. X{.+X+X}.oX{.{.+X}.oXoX{.*XOX3 $ @ $ s 8X|.oX9X6.; ; E 8XZ w = %X8X$ w b 8Xw.= - X.9X{.oX8XA % O $ % /.#X}.|. XoX{.{.+XXX{.+X+X X{.+X{.+X{._.V.Z.",
"I.M.&X8X8X8X8X8X8X8X8X8X8X8X8X8X8X8X8X8X9X8X<.$ X O + K.5X5X8XK.X $ <.8Xo.: 3 &X8X$ % E 8XP.O $ e.8X5X8X/.% $ X $ ` 8X8X8X8X8X8X8X8X8X8X8X8X8X8X8X8X8X8X8X3XV.S.",
"I.M.@X8X8X8X8X8X8X8X8X8X8X8X8X8X8X8X5X8X8X8X6X: O O O 4 7X8X8X>X!.Y.8X8X<X#.r.8X8Xd.[ +X8X8X!.!.&X8X8X8Xs O O O O oX8X8X8X5X5X8X8X8X8X8X8X8X8X8X8X8X8X8X8X<XM.I.",
"I.j.*X8X8X8X8X8X8X8X8X8X8X8X8X8X7X8X8X8X8X8X8Xr.O O X $ M 7X5X8X8X8X8.X.r.<XN.2.*.d.9Xr.o.>.8X8X8X5X8XQ O O X O X.8X8X8X8X9X8X8X8X8X8X8X8X8X8X8X8X8X8X8X8X&XM.I.",
"I.M.@X8X8X8X8X8X8X8X8X8X8X8X8X8X8X8X8X8X9X8X8XH O O + $ $ H 7X8X8X7XO * > 8X[ ; r ] 8Xp & O &X8X8X8XW O $ O O O m <X8X8X8X8X8X8X8X8X8X8X8X8X8X8X8X8X8X8X8X&XM.I.",
"I.v.@X8X8X8X8X8X8X8X8X8X8X8X8X8X8X8X8X7X8X>XM X O O X O O O A >X8X8Xt $ n 7X#.% 1 >.3XZ $ $ 7X5X7XU O + O O O O O d >X8X8X8X8X5X8X8X8X8X8X8X8X8X8X8X8X8X8X;XM.I.",
"I.M.@X8X8X8X8X8X8X8X8X8X8X8X8X8X8X8X8X8X7X3 O O X O %   + O O , i.8X8X&X`.S.M./.'.Z.B.W.&X8X7XC.p O O O + $ $ O O $ , $X8X8X8X8X8X8X8X8X8X8X8X8X8X8X8X8X8X=XM.I.",
"I.M.@X8X8X8X8X8X8X8X8X8X8X8X8X8X8X8X8X8X7Xx + O O O O O . O O O O v V.8X8XW.@X8X8X&XQ.8X8XW.A $ $ $ O O O X $ O + X , >X5X8X9X8X8X8X8X8X8X8X8X8X8X8X8X8X8X&XM.I.",
"I.M.+X8X8X8X8X8X8X8X8X8X8X8X8X8X8X8X5X5X8X7XZ O O O $ $ O O + $ O O O w m ~ { n.C.O.~ M r + O O X O + O $ X O O O g 1X8X8X8X8X8X8X8X8X8X8X8X8X8X8X8X8X8X8X&XV.Z.",
"I.h.+X8X8X8X8X8X8X8X8X8X8X8X8X8X8X8X8X8X8X7X8XD $   O $ X O $   $ O O O $ * $ $ O = O $ X . O $ O % O O X O . $ j <X8X8X8X8X8X8X8X8X8X8X8X8X8X8X8X8X8X8X8X&XV.D.",
"I.M.+X8X8X8X8X8X8X8X8X8X8X8X8X8X8X8X8X8X8X8X8X5XA $ O O O F 2.< O O X O O O O O $ O O $ O O O X # -.W @ O O O x 7X8X8X8X8X8X8X8X8X8X8X8X8X8X8X8X8X8X8X8X8X=XM.I.",
"I.M.@X8X8X8X8X8X8X8X8X8X8X8X8X8X8X8X8X8X8X8X8X8X8XZ $ $ M 8X8X>X=.g X % O O + O $ X + O $ O s $.>X8X8XP X $ k 6X8X8X8X8X8X8X8X8X8X8X8X8X8X8X8X8X8X8X8X8X8X&XM.I.",
"I.v.@X8X8X8X8X8X8X8X8X8X8X8X8X8X8X8X8X8X8X8X8X8X8X8Xx b 8X8X8X8X8X8XL.Z . O X + $ . . O b F.8X8X8X8X8X8XF g 1X8X8X8X8X8X8X8X8X8X8X8X8X8X8X8X8X8X8X8X8X8X8X2Xj.D.",
"I.M.&X8X8X8X8X8X8X8X8X8X8X8X8X8X8X8X8X8X8X8X8X8X8X8X8X8X8X8X8X8X8X8X8Xt.X $ O X + X O O -.8X8X8X8X9X8X8X8X8X8X8X8X8X8X8X8X8X8X8X8X8X8X8X8X8X8X8X8X8X8X8X8X2XV.S.",
"Z.M.{.&X&X&X&X8X8X8X8X3X&X&X&X&X#X&X&X&X&X&X&X&X&X&X9X5X&X&X&X,X,X,X9X%.$ $ $ % O $ $ & R 4X#X=X&X<X&X&X9X5X&X&X@X&X&X@X&X&X&X&X&X&X&X&X&X&X&X&X,X&X;X=X&X+XV.K.",
"(.x.A.V.V.k.f.R.8X8X9XI.f.M.V.M.M.M.V.M.M.M.M.M.M.M.M.k.M.M.M.M.M.M.+XV 1 & X   O O O = j '.Z.M.M.M.V.M.A.k.M.b.M.M.M.v.V.M.M.M.V.M.M.M.V.M.M.M.M.M.M.M.M.V.f.R.",
"8XR.I.Z.I.I.B.(.8X8X8XT.Z.I.D.I.I.I.D.D.I.I.I.I.K.D.G.K.R.I.I.D.D.D.'.1.v C K G G H Z n o.'.D.I.D.I.I.I.K.I.D.R.K.I.I.I.S.I.I.I.D.I.I.I.D.I.I.I.I.I.I.I.Z.I.R.3X"
};
