/* XPM */
static char *_dd8a4b21fbd4ddd855123d69e326db9Q4GrZwxF398s9n9G[] = {
/* columns rows colors chars-per-pixel */
"40 40 213 2 ",
"   c #010003",
".  c #01010B",
"X  c #010113",
"o  c #010C15",
"O  c #02021B",
"+  c #010B1C",
"@  c #080014",
"#  c #17171F",
"$  c #020C23",
"%  c #030E28",
"&  c #090A23",
"*  c #031324",
"=  c #0A1425",
"-  c #03142C",
";  c #0B162B",
":  c #041A2B",
">  c #0A1A2C",
",  c #041A25",
"<  c #11192A",
"1  c #031531",
"2  c #031C32",
"3  c #091C32",
"4  c #0C1A35",
"5  c #151E32",
"6  c #01212C",
"7  c #0C2332",
"8  c #0B2439",
"9  c #0F283C",
"0  c #152436",
"q  c #182837",
"w  c #14253B",
"e  c #1A273B",
"r  c #152C3D",
"t  c #182A38",
"y  c #1F393A",
"u  c #1A232A",
"i  c #212E3F",
"p  c #23343D",
"a  c #29363C",
"s  c #1C2D43",
"d  c #112943",
"f  c #1F3741",
"g  c #252E41",
"h  c #243544",
"j  c #253C46",
"k  c #2A3B46",
"l  c #233549",
"z  c #2B364B",
"x  c #2A3B4C",
"c  c #263849",
"v  c #313B4D",
"b  c #3C3B49",
"n  c #243E53",
"m  c #2B3C53",
"M  c #2E414E",
"N  c #33424E",
"B  c #2B4052",
"V  c #2F455C",
"C  c #344253",
"Z  c #36455B",
"A  c #3B4C5C",
"S  c #394756",
"D  c #3D515E",
"F  c #3F5668",
"G  c #3B4B64",
"H  c #41455A",
"J  c #424D5A",
"K  c #444653",
"L  c #42525F",
"P  c #474C62",
"I  c #435363",
"U  c #4C5666",
"Y  c #4B5A65",
"T  c #45596B",
"R  c #4C5C6B",
"E  c #4F536C",
"W  c #535E64",
"Q  c #545F6B",
"!  c #4E5C76",
"~  c #4C606B",
"^  c #55636E",
"/  c #57666E",
"(  c #4F687C",
")  c #5B6674",
"_  c #5B6A74",
"`  c #5D6678",
"'  c #5E6D7D",
"]  c #556773",
"[  c #5B7079",
"{  c #626C75",
"}  c #646A77",
"|  c #687375",
" . c #64737C",
".. c #6A767E",
"X. c #667484",
"o. c #6D7682",
"O. c #6E7B87",
"+. c #767988",
"@. c #7D868E",
"#. c #7A8993",
"$. c #8A8B8D",
"%. c #848C93",
"&. c #858C9C",
"*. c #8B8E9A",
"=. c #848290",
"-. c #86949C",
";. c #8B939C",
":. c #8B9599",
">. c #929A9E",
",. c #919598",
"<. c #8A9AA6",
"1. c #9397A5",
"2. c #949AA1",
"3. c #989DA5",
"4. c #99A2AB",
"5. c #99A3A9",
"6. c #9FA8B2",
"7. c #A2ABAD",
"8. c #AEAEAE",
"9. c #A5A6AA",
"0. c #ACB6AD",
"q. c #B3B3AE",
"w. c #A4ABB2",
"e. c #ABADB2",
"r. c #AAAFBA",
"t. c #A6A8B5",
"y. c #ABB2B5",
"u. c #A5B3B9",
"i. c #AEB4B9",
"p. c #AFB8BE",
"a. c #A6B2B0",
"s. c #B5B5B5",
"d. c #B9B5B3",
"f. c #BCBCB5",
"g. c #B3B4BB",
"h. c #BCB5BD",
"j. c #B5BBBB",
"k. c #BABABA",
"l. c #B4BFB7",
"z. c #C1BDBD",
"x. c #C3C3BE",
"c. c #C9C1BF",
"v. c #B4BEC3",
"b. c #B9BDC2",
"n. c #BEC3C3",
"m. c #BEC3CB",
"M. c #BBC5C4",
"N. c #C4C4C4",
"B. c #C9C4C4",
"V. c #C5C9C5",
"C. c #CBC9C6",
"Z. c #C4C5CA",
"A. c #C8C7CA",
"S. c #C6C9CD",
"D. c #CBCBCB",
"F. c #D2CDCD",
"G. c #C7D2CD",
"H. c #CBD5CD",
"J. c #D2D3CE",
"K. c #DAD3CD",
"L. c #C5CBD1",
"P. c #CECDD3",
"I. c #D1CED4",
"U. c #CED2D2",
"Y. c #CBD5D3",
"T. c #D4D5D4",
"R. c #D9D6D4",
"E. c #D6DAD5",
"W. c #DBDAD6",
"Q. c #D4D5D9",
"!. c #DAD6DA",
"~. c #D3DBDC",
"^. c #DCDCDC",
"/. c #E1DCDF",
"(. c #E1D8D5",
"). c #E3E2DD",
"_. c #E6E9DE",
"`. c #DBDDE2",
"'. c #D4D6E2",
"]. c #E2DFE6",
"[. c #DDE2E2",
"{. c #DCE3ED",
"}. c #E3E3E3",
"|. c #EAE3E3",
" X c #E5EBE4",
".X c #EBEBE5",
"XX c #E3E6E9",
"oX c #EAE7E9",
"OX c #E5ECE9",
"+X c #EDECED",
"@X c #F1EDEB",
"#X c #F9EFED",
"$X c #ECF1EE",
"%X c #F3F2EE",
"&X c #EDEDF2",
"*X c #E6EAF3",
"=X c #F1EEF1",
"-X c #EFF3F7",
";X c #F2F2F2",
":X c #FAF5F4",
">X c #FEFBF6",
",X c #F8F7FB",
"<X c #F5FDFD",
"1X c #FFFFFB",
"2X c #FDFDFD",
"3X c gray99",
"4X c #FFFEFD",
"5X c #FEFEFE",
"6X c white",
"7X c #FEFFFF",
"8X c #FDFEFE",
"9X c #FEFEFE",
"0X c #F4F4F9",
/* pixels */
"T.s.s.k.k.k.s.s.k.6X+Xs.k.k.s.k.s.s.s.s.s.s.s.s.s.s.k.s.s.XX6XN.s.k.k.k.s.k.s.T.",
"s.}.;X+X+X+X+X+Xk.^.A.A.+X+X+X+X+X+X+X+X+X+X+X+X+X+X+X+XD.N.^.k.+X+X+X+X+X;X}.s.",
"8.;X6X6X6X6X6X6XN.}.N.^.6X6X6X6X6X6X6X6X6X6X6X6X6X6X6X6X}.N.}.k.6X6X6X6X6X6X,Xk.",
"N.+X6X6X6X6X6X6Xb.}.D.W.6X6X6X6X6X6X6X6X6X6X6X6X6X6X6X6XW.N.^.k.6X6X6X6X6X6X;Xk.",
"6X6X6X6X6X6X6X6XN.^.D.T.6X6X6X6X6X6X6X6X6X6X6X6X6X6X6X6XW.A.^.k.6X6X6X6X6X6X;Xk.",
"XX,X6X6X6X6X6X6XN.}.D.W.6X6X6X6X6X6X6X6X6X6X6X6X6X6X6X6XT.A.}.k.6X6X6X6X6X6X;Xk.",
"8.+X6X6X6X6X6X6XN.}.A.W.6X6X6X6X6X6X6X6X6X6X6X6X6X6X6X6X^.N.}.N.6X6X6X6X6X6X;Xk.",
"s.;X6X6X6X6X6X6XN.W.N.^.6X6X6X6X6X6X6X6X6X6X6X6X6X6X6X6X;X^.+Xk.6X6X6X6X6X6X,Xs.",
"k.z.V.N.V.F.J.D.h.;XE.q.A.Z.N.N.N.Z.Z.N.N.N.N.A.B.D.S.N.h.n.[.h.x.A.Z.Z.B.V.f.j.",
",XW.W.W.}.Q.D.D. X6X2X/.W.E.^.!.W.W./.T.J.XX+XJ.T.=X/   * & I :XR.T.)..XT.W.!.,X",
"oXA.C.oX<.m C Z z >.|.K.F.P.S.D.P.N.F.3X6X[.J.&X@X6X^ X * X q 0X6X).[.T.+XD.Z.).",
"s.L.W.+Xh C g.y.g J <X[.%X XW.W.!.W.8..X6Xu < ^.l.P 1 , % $ + z 3.&XS = Q.+XT.q.",
"d.,X6X6XC -.6X6X;.* ! G Q -X6X6X8X6X}.}.( . + s 2 . * , q h :   X n $ X f %X2Xj.",
"f.+X8X6Xk O.6X1X' a 7.7.J = b.6X6X6X:XA   1 * X + : : X  .1X}.#.;   , 2   w &XC.",
"d.+X6X6XR = I T * ;.1X1X6X%.= v C S M + - , > 8 : 1 > . <.u. .6X.XZ   : & } $XN.",
"j.+X6X6X+X8.w.r.s.&X6X6X6X6X[.y.j.h.1.b.S.y.Q.W.r., * . -.g.{ 6X6X6XC   p 6X6Xs.",
"k.+X1X6X6X6X6X{ L A g ] 6X8X6X1X6X1X6XT.H H T Y A - , X { 6X8X_ v 6X6X= X v.1XN.",
"s.,X6X6X6X1Xp.- 6.p.6.* b I I D L T U w . O O O + 3 , . w.&.N L.u.#.4.2.  P ,XC.",
"q.Z.Q.T.T.).5.x :X>X}.0 +.1.&.$.%.4.>.e.G.o.+ 1 : 1 : X  .Q.i.u.w.O.+.0.$ $ p h ",
";XP.U.T.D.+X5.s `..XM.7 }.8X,X>X6X_ H R ) N - : 1 1 : X  .R.k.} R x.v.W.w + O - ",
"1X>X>X>X:XoXw.+ V Y D r }.$XOX;X%Xy X * + $ > : : , : X >.X.c W.L.U B +Xc $ : 4 ",
"a.%.2.*.g.T.W.9.| 2.Q &.Z.k.s.g.g.g.g.I._ @ : > > 2 : O A =X6Xx A !.H.N.3 + . X ",
"6 l C s e <X6X6X6Xo.k I B m B n x A F j 8 : 2 : 2 > - O | ;.^ z.=X) X.Y.@ > [ ) ",
"= '.1X$Xa ;.U.b.g z j.K..XoX.XOX XoXXX@.  + $ % * + * X  .*.o./ ~ v.I.[   ' 6X).",
"2 %X6X6XS 5 S C { 6X>XXX6X6X6X6X6X6X6X<Xv = 0 w 9 e w X I >X>X{ @.6X`.  # {.1Xh.",
"$ m.XX~.q M.3XG.d.n.7.^.1X6X6X1X6XXXoX6X$XQ.`.~.~./.D.- | / - 6X6X~.; X r ,X6Xd.",
"c 0 i > l 8Xg.< 2 7 X o.2X3X6XY.l r j 5 z D S A S A M X { U.v..Xy.; X 3 X e OXC.",
"x.^.+XoX8X1XW R |.[...h `.XXt.% ..oX*X#.  X $ . X @ $ + A D.i.z . . - : . ` ,XN.",
"k.}.@X@X@X#XI  .1X6Xu.X q 0 = ,.6X+X@X6X%.. . I c . o 2 - % X   > W o   Y 8X).e.",
"].B.V.V.N.+XA k (.&X+.z ^.x.R.+XF.V.Z.Z.;X%.) 6X X3.z + * o w %.~.<X%.^ 0X(.k.}.",
"6XT.~.W.^.&X=.X 7 > @ ` :X_.|.~.T.!.).1X6X@X X[.|.6X^   X . d 3X;X^.XX+X}.R.T.,X",
"f.k.m.c.n.N.J.b.r.e.j.D.V.N.n.x.N.n.8.+XoXs.B.N.x.E.#.K E D { C.B.x.Z.V.x.Z.k.k.",
"s.;X6X6X6X6X6X6X6X6X6X6X6X6X6X6X6X6XA.T.^.N.6X6X6X6X6X6X6X6X6X6X6X6X6X6X6X6X,Xk.",
"s.+X6X6X6X6X6X6X6X6X6X6X6X6X6X6X6X6XN.W.}.N.6X6X6X6X6X6X6X6X6X6X6X6X6X6X6X6X;Xk.",
"k.+X6X6X6X6X6X6X6X6X6X6X6X6X6X6X6X6XA.^.}.N.6X6X6X6X6X6X6X6X6X6X6X6X6X6X6X6X;Xk.",
"k.+X6X6X6X6X6X6X6X6X6X6X6X6X6X6X6X6XN.^.}.N.6X6X6X6X6X6X6X6X6X6X6X6X6X6X6X6X+Xk.",
"k.+X6X6X6X6X6X6X6X6X6X6X6X6X6X6X6X6XA.^.^.N.6X6X6X6X6X6X6X6X6X6X6X6X6X6X6X6X;Xk.",
"k.;X6X6X6X6X6X6X6X6X6X6X6X6X6X6X6X6XA.^.^.N.6X6X6X6X6X6X6X6X6X6X6X6X6X6X6X6X,Xk.",
"s.XX;X;X6X;X;X;X;X;X;X;X;X;X;X;X;X;Xk.W.^.k.;X;X;X;X;X;X;X;X;X;X;X;X;X;X;X;XXXs.",
"T.s.s.N.6XXX8.k.k.k.k.k.k.k.k.k.k.k.s.;X;Xs.k.k.k.k.k.k.k.k.k.k.k.k.k.k.k.k.s.A."
};
