/* XPM */
static char *_abe0603d70e404ea5309fa7c23a112a2eXB5BH9m0IWI5IK[] = {
/* columns rows colors chars-per-pixel */
"40 40 209 2 ",
"   c #010102",
".  c #00010B",
"X  c #010214",
"o  c #010519",
"O  c #020B1C",
"+  c #080C19",
"@  c #01101E",
"#  c #03181D",
"$  c #000721",
"%  c #030D24",
"&  c #000E28",
"*  c #0C0F22",
"=  c #021324",
"-  c #0C1424",
";  c #02142B",
":  c #02182D",
">  c #0C1A2D",
",  c #051628",
"<  c #141A2D",
"1  c #161729",
"2  c #0D1D34",
"3  c #091B34",
"4  c #101D30",
"5  c #181E36",
"6  c #0E2132",
"7  c #0F263B",
"8  c #122335",
"9  c #1C2434",
"0  c #142439",
"q  c #1A2639",
"w  c #17293B",
"e  c #1B2A3B",
"r  c #1B2D37",
"t  c #1C313A",
"y  c #222731",
"u  c #242B3B",
"i  c #292B38",
"p  c #2A353C",
"a  c #162840",
"s  c #173140",
"d  c #1E3140",
"f  c #262C42",
"g  c #233645",
"h  c #2F3B42",
"j  c #2A3D4C",
"k  c #2A3547",
"l  c #343543",
"z  c #333B45",
"x  c #33354C",
"c  c #363D48",
"v  c #333B50",
"b  c #36434D",
"n  c #3E424D",
"m  c #2F4251",
"M  c #344553",
"N  c #3C4352",
"B  c #3B4954",
"V  c #3B4658",
"C  c #3B4C5B",
"Z  c #464555",
"A  c #414A59",
"S  c #414B57",
"D  c #4C535D",
"F  c #45535E",
"G  c #484560",
"H  c #475563",
"J  c #4E5362",
"K  c #4B5B67",
"L  c #4D5A6A",
"P  c #455867",
"I  c #535B65",
"U  c #545B6C",
"Y  c #5A5D62",
"T  c #54626F",
"R  c #5B646D",
"E  c #5C6471",
"W  c #5D6A74",
"Q  c #5E657A",
"!  c #5B6C7A",
"~  c #546473",
"^  c #5D737E",
"/  c #626C75",
"(  c #646E7C",
")  c #666976",
"_  c #716E75",
"`  c #64727B",
"'  c #6A737B",
"]  c #6F787F",
"[  c #74757A",
"{  c #716F84",
"}  c #6E7B83",
"|  c #6A7582",
" . c #727A84",
".. c #7B7E8C",
"X. c #757785",
"o. c #7A7F95",
"O. c #75818C",
"+. c #7A8189",
"@. c #7F888F",
"#. c #7D8085",
"$. c #83888C",
"%. c #848592",
"&. c #838B93",
"*. c #838D99",
"=. c #898E99",
"-. c #85919B",
";. c #8D949C",
":. c #849396",
">. c #93979F",
",. c #979A9D",
"<. c #8E99A2",
"1. c #969BA5",
"2. c #A09EAB",
"3. c #9DA3A9",
"4. c #99A5A9",
"5. c #9DABB3",
"6. c #A6A7A9",
"7. c #A3A6B1",
"8. c #A4ABB3",
"9. c #A6B3B4",
"0. c #ABB2B4",
"q. c #ADB2BD",
"w. c #A4B3B8",
"e. c #B6B6B6",
"r. c #B3B3BD",
"t. c #B4BBBD",
"y. c #BDBDBD",
"u. c #B9B6BD",
"i. c #C3BDBC",
"p. c #BEC0BD",
"a. c #C2C2BC",
"s. c #CBC7BD",
"d. c #B3BCC3",
"f. c #BDBDC2",
"g. c #BABDD0",
"h. c #C3BDC6",
"j. c #B1C0C7",
"k. c #BDC2C2",
"l. c #BDC6CD",
"z. c #C3C3C2",
"x. c #CAC5C4",
"c. c #CBCBC6",
"v. c #C3C4CA",
"b. c #CCC7CC",
"n. c #C5CACB",
"m. c #CCCCCC",
"M. c #C7CAC3",
"N. c #D1C7C8",
"B. c #D1CBCA",
"V. c #CED2CD",
"C. c #D4D3CD",
"Z. c #D5D8CF",
"A. c #C3CBD2",
"S. c #CCCDD3",
"D. c #CED4D2",
"F. c #CDD3DB",
"G. c #CAD8D8",
"H. c #D3D3D3",
"J. c #D5DAD4",
"K. c #D9DBD3",
"L. c #D1D5DB",
"P. c #D9D5DA",
"I. c #D4DADC",
"U. c #DBDBDB",
"Y. c #E1DDDA",
"T. c #DDE2DC",
"R. c #D4E0DC",
"E. c #E4E3DD",
"W. c #EAECDF",
"Q. c #C7D3E1",
"!. c #DBDEE2",
"~. c #D6DDE5",
"^. c #E3DDE1",
"/. c #DCE2E3",
"(. c #DAE5E9",
"). c #E3E3E2",
"_. c #EAE4E5",
"`. c #E5E8E3",
"'. c #EBEBE5",
"]. c #E6E6E9",
"[. c #E5EBEB",
"{. c #EBECEB",
"}. c #F3EEEB",
"|. c #EFF3EA",
" X c #ECF2E4",
".X c #F3F3ED",
"XX c #FCFBEF",
"oX c #F3F4E6",
"OX c #E6EBF2",
"+X c #EDEEF1",
"@X c #F3EFF3",
"#X c #EFF0F3",
"$X c #EFF4FA",
"%X c #F3F3F3",
"&X c #FCFDF6",
"*X c #F5F5FA",
"=X c #F5FBFC",
"-X c #FAFAFA",
";X c #FFFFFA",
":X c #F9FFFF",
">X c #FBFFFF",
",X c #FDFDFD",
"<X c gray99",
"1X c #FEFEFE",
"2X c white",
"3X c #FFFFFF",
"4X c #FFFDFD",
"5X c #FEFEFE",
"6X c #F9F3F5",
/* pixels */
"U.y.y.y.y.y.y.y.z.-X{.y.y.y.y.y.a.U.=.0 , _ K.x.y.y.y.y.y.`.-Xc.y.y.y.y.y.y.y.H.",
"y.`.%X%X%X%X%X%Xz.).H.H.%X%X%X%X4X1.  V R   ) >X%X%X%X%XH.m.).z.%X%X%X%X{.%X{.y.",
"e.6X1X1X1X1X1X1Xm.).H.U.1X1X1X1X=X= D /.c.O.  L.1X1X1X1X).m.).c.1X1X1X1X1X1X1Xy.",
"c.%X1X1X1X1X1X1Xm.).H.U.1X1X1X1XU.  F.O.6 %X= 3.1X1X1X1X).m.).c.1X1X1X1X1X1X%Xz.",
"1X1X1X1X1X1X1X1Xm.).H.U.1X1X1X1X*X, b J.I.-.. S.1X1X1X1X).m.).c.1X1X1X1X1X1X%Xy.",
"{.-X1X1X1X1X1X1Xc.).H.U.1X1X1X1X4X0.  k U    .>X1X1X1X1X).H.).z.1X1X1X1X1X1X%Xy.",
"e.%X1X1X1X1X1X1Xc.).H.U.1X1X1X1X1X>XF., . q.&X1X1X1X1X1X).H.).c.1X1X1X1X1X1X6Xz.",
"y.6X1X1X1X1X1X1Xc.).m.U.1X1X1X1X1X*X>X` t 4X*X1X1X1X1X1X).m.U.z.1X1X1X1X1X1X-Xy.",
"z.z.H.`.0.{ $.V.C.|.K.f.c.C.].{.3.8 %.R p 7.> +.`.W.D.c.i.P.+Xc.T.,.! 7.).U.s.f.",
"&XI.'.|   $ o 9 H.1X1X!.'.@Xt.h   > E.^ t .XM   < 4.{.{.U.<X>X%Xz . 8 . B [.U.<X",
"_.{.0.. V V.4.o V L.P.XX!.| . X ] E.F.q o q.XX@.% . D A.&XY.T. .. [ U.'   } _.].",
"t.{.R % {.# 4.1.X `.D.X..   U {.1X)   % e   n +X=X}     I v.@Xf T M.. y.K ; /.z.",
"y.1X5.  Q.5.[.W X 4X&XO < C.1Xt.*   l U.[.I   X =.1X#XZ . k.1XC M R.1./.9 M 1Xz.",
"f.4X6Xy . 6.E   o - 9.-X1X~.x   9 t.`.@X6X'.L.N   - d.>X=Xv.z 2 . k 8.9   P.1Xp.",
"a.OX1X[.N X - 8.[.G   Q ..  X :.1X1XH.T.T.c.1X1Xq.<   L ..  s U.A.u X i A.4X$Xf.",
"h..X1X4X1X%X1X1XG.[.8.o   / OX1X1X1XN.!./.N.1X1X1X4X*..   &.<XD.4X1X.X1X1X1X%Xi.",
"y.%X1X1X1X1X1X1XT 1 1X` = 1X1X1X1X1Xm.U.).c.1X1X1X1X1XH 0 1XP w 1X1X1X1X1X1X6Xy.",
"y.6X1X1X1X1X1X1X-.o %X( ; 1X1X1X1X1XH.U.U.m.1X1X1X1X1XK w 1X6 m 1X1X1X1X1X1X1Xy.",
"y.m.U.U.U.H.H.{.W X m.U ; H.U.U.U.H.y.).`.e.H.U.U.U.).B 0 U.d g U.U.H.H.U.U.m.y.",
"%XU.U.U.U.U.U.{.E X c.U : J.`.U.U.U.).1X1X).U.U.m.H.`.C 8 H.e j `.).U.U.U.U.U.%X",
"6XU.U.U.U.U.U.{.W o {.E ; I.).U.U.U.U.H.H.U.U.U.4X1X`.M 0 -Xj g ).).U.U.U.U.U.%X",
"y.c.H.m.H.H.H.`.K O z.A : D.U.m.m.m.m.m.m.m.D.H.1X-XU.V > H.j g U.H.H.m.m.H.c.y.",
"y.6X1X1X1X1X1X1X( X y.A 6 1X1X1X1X1X1X1X1X1X1X1X1X1X1XK , m.8 j 1X1X1X1X1X1X1Xy.",
"y.%X1X1X1X1X1X1XF o {.U 3 1X1X1X1X1X1X1X1X1X1X1X4X1X1X~ , {.M 6 1X1X1X1X1X1X6Xy.",
"f.}.1X1X&X4X&X1X1.C.n.>   ..>X1X1X1X1X1X1X>X1X1X1X1X8.O . 6./.>.&X1X<X4X>X1X6Xp.",
"k.{.1X*X/ O u g.U.!   C T   - 9.1X1X1X1X>X1X4X1Xv.l   b X.  f G.!.N O n I.1X%Xz.",
"y.&X1Xh   *.Z   7 = ' ].>Xl.1   v S.1X4X4X1X/.R   X >.1X=X>.< @ X 2 <.< + T.1Xy.",
"i.1Xw.  j.u.(./ & E.K.+ x `.1X;.. o ) %X:X=.X   Q >X>XE X 0.1X4 5 G.r.(.> C 4Xc.",
"u.#XR % #X. <.d.. &XS.D .   ( 6X<XH   q v   u B.1X5.X   p q.>X0 U z.  m.K ; `.z.",
"_.].2.. I n.8.X m 1X<XoXn.J   @ #.|.d.% X ;.oX0.r . x 0. X1X4X| . <.n.O.. E Y.].",
"&XZ.}.R   8 X o v.T./.^.}.+Xr.7   r *X| t 1XL   + $.`.-X).U./.!.c . q   u E.).-X",
"v.x.H.).4.J ( n.).N.z.n.s.H._.).&.o  .E u 3.O E L.}.C.n.b.b.z.K.J.o.D %.I.U.z.z.",
"y.6X1X1X1X1X1X1X1X1X1X1X1X1X1X1X1X[.Z.S 8 K.`.>X1X1X1X1X1X1X1X1X1X1X1X1X1X1X-Xy.",
"y.%X1X1X1X1X1X1X1X1X1X1X1X1X1X1X1X1XL.3 = 0.1X1X1X1X1X1X1X1X1X1X1X1X1X1X1X1X6Xz.",
"z.{.1X1X1X1X1X1X1X1X1X1X1X1X1X1X>Xv.. j M   -.1X1X1X1X1X1X1X1X1X1X1X1X1X1X1X%Xz.",
"y.%X1X1X1X1X1X1X1X1X1X1X1X1X1X1X%X8 q S.K.M X U.1X1X1X1X1X1X1X1X1X1X1X1X1X1X%Xy.",
"y.%X1X1X1X1X-X1X1X1X1X1X1X1X1X1X/.% 7.J , c.o <.1X1X1X1X1X1X1X1X1X1X1X1X1X1X6Xy.",
"y.6X1X1X1X1X1X1X1X1X1X1X1X1X1X1X<X: n h.0.` X A.1X1X1X1X1X1X1X1X1X1X1X1X1X1X1Xy.",
"y.{.6X6X1X=X%X6X%X%X%X%X%X6X6X6X1X*.  Y +.  F 1X6X6X6X%X%X%X%X%X%X%X%X6X6X6X{.y.",
"H.y.y.m.1X`.e.z.y.y.y.y.y.y.y.y.x.H.+.a 2 E S.c.z.z.y.y.y.y.y.y.y.y.z.y.y.y.y.H."
};
