/* XPM */
static char *_0001_0d86f1dd7377fa1626070af1ce3e7cf32d4737fb4d0f2ff41a840ea9834da265[] = {
/* columns rows colors chars-per-pixel */
"80 80 193 2 ",
"   c #06141F",
".  c #041626",
"X  c #051927",
"o  c #0A1926",
"O  c #02162B",
"+  c #04192C",
"@  c #0A1B2C",
"#  c #0A172A",
"$  c #111E2C",
"%  c #111E27",
"&  c #021733",
"*  c #031A31",
"=  c #091D31",
"-  c #041C38",
";  c #0E202E",
":  c #13222E",
">  c #0D2133",
",  c #0E2339",
"<  c #0A2438",
"1  c #132434",
"2  c #192634",
"3  c #1C2A36",
"4  c #13263A",
"5  c #15293B",
"6  c #1B2C3B",
"7  c #152838",
"8  c #1F313E",
"9  c #212E3D",
"0  c #202E37",
"q  c #23323E",
"w  c #172D41",
"e  c #1C2F41",
"r  c #1E3142",
"t  c #1B3247",
"y  c #243443",
"u  c #293644",
"i  c #253947",
"p  c #2C3945",
"a  c #223649",
"s  c #253A4D",
"d  c #2B3C4B",
"f  c #313E47",
"g  c #313E4A",
"h  c #243D53",
"j  c #2A3E51",
"k  c #34414C",
"l  c #2B4053",
"z  c #2B4358",
"x  c #334353",
"c  c #3B4652",
"v  c #3C4A54",
"b  c #314658",
"n  c #374859",
"m  c #3C4C5B",
"M  c #3D5062",
"N  c #404A52",
"B  c #424E59",
"V  c #44525C",
"C  c #49535D",
"Z  c #455462",
"A  c #4A5663",
"S  c #4C5964",
"D  c #4D5C69",
"F  c #535D65",
"G  c #545E69",
"H  c #4C5F70",
"J  c #55626C",
"K  c #5A636D",
"L  c #5F686F",
"P  c #4F6270",
"I  c #556372",
"U  c #5A6672",
"Y  c #5D6974",
"T  c #5A6B7B",
"R  c #626C75",
"E  c #636E7A",
"W  c #66717C",
"Q  c #6B747D",
"!  c #6E797F",
"~  c #687075",
"^  c #737B7E",
"/  c #6B7681",
"(  c #6D7983",
")  c #687785",
"_  c #737B84",
"`  c #747E89",
"'  c #7C8386",
"]  c #75828D",
"[  c #7B848D",
"{  c #7F888D",
"}  c #778085",
"|  c #7C8691",
" . c #7D8993",
".. c #758390",
"X. c #81858B",
"o. c #828A8E",
"O. c #818286",
"+. c #848C93",
"@. c #858F99",
"#. c #8C9197",
"$. c #86929B",
"%. c #8C949B",
"&. c #8F999B",
"*. c #91969A",
"=. c #959A9D",
"-. c #999B9D",
";. c #909195",
":. c #8C97A3",
">. c #8F98A1",
",. c #8393A0",
"<. c #949CA3",
"1. c #9A9FA5",
"2. c #959FA8",
"3. c #9CA2A6",
"4. c #95A1A9",
"5. c #9CA3AA",
"6. c #96A1A5",
"7. c #9CA6B1",
"8. c #A1A1A2",
"9. c #A1A6AC",
"0. c #A4AAAE",
"q. c #ABACAE",
"w. c #B1ADAC",
"e. c #A4ADB3",
"r. c #AAAFB3",
"t. c #A5AFB9",
"y. c #A7B0B5",
"u. c #ABB1B5",
"i. c #ACB4BB",
"p. c #AEB9BF",
"a. c #B1B4B7",
"s. c #B2B6BB",
"d. c #B4B9BD",
"f. c #BEBEBE",
"g. c #B6B8B7",
"h. c #C1BEBD",
"j. c #BEC1BD",
"k. c #C2C1BE",
"l. c #B5BCC2",
"z. c #BDBEC1",
"x. c #A7B5C2",
"c. c #C1BFC1",
"v. c #BDC1C3",
"b. c #BDC5CB",
"n. c #BFCAD0",
"m. c #C2C2C2",
"M. c #C9C9C6",
"N. c #C4C6C9",
"B. c #C4C9CC",
"V. c #CBCBCB",
"C. c #C8C7C6",
"Z. c #D1CEC9",
"A. c #D4D3CF",
"S. c #C5CCD3",
"D. c #CACED2",
"F. c #CDD2D4",
"G. c #CED4DA",
"H. c #D3D3D3",
"J. c #D9D5D3",
"K. c #DBD9D6",
"L. c #D3D5D9",
"P. c #D5D9DC",
"I. c #DCDCDC",
"U. c #D8D8D8",
"Y. c #E1DDDB",
"T. c #E2DFD6",
"R. c #DEE0DE",
"E. c #E2E1DD",
"W. c #D4DCE2",
"Q. c #DDDEE1",
"!. c #E0DEE2",
"~. c #DEE1E3",
"^. c #DFE4EA",
"/. c #E5E5E5",
"(. c #E9E7E5",
"). c #E6E8E4",
"_. c #E9E9E5",
"`. c #E4E6E9",
"'. c #E6E8EA",
"]. c #EDEDED",
"[. c #E8E6E9",
"{. c #F2EEED",
"}. c #F3F1EF",
"|. c #EBEFF2",
" X c #E6EBF1",
".X c #F1EFF0",
"XX c #ECF1F5",
"oX c #EBF3F8",
"OX c #F2F2F2",
"+X c #FBFAF6",
"@X c #F3F6FA",
"#X c #F6FBFD",
"$X c #FEFFFE",
/* pixels */
"$XU.C.v.m.m.m.m.m.m.m.m.m.m.m.m.C.I.$X$X$X[.V.m.m.m.m.m.m.m.m.m.m.v.m.c.C.d.+.G S Q 8.m.m.m.m.k.m.m.m.m.m.m.m.m.m.V.).$X$X$X!.C.m.m.m.m.m.m.m.m.m.m.m.m.m.m.U.+X",
"U.m.f.h.m.m.f.f.v.h.f.m.k.f.h.v.f.f.I.$X@Xm.f.h.f.z.m.h.z.f.j.c.f.k.f.h.#.u + * + * + K v.j.m.l.k.c.v.h.m.m.f.f.f.m.v.].+X].f.c.m.m.f.f.z.k.f.m.m.f.k.f.f.f.f.V.",
"m.f.U./././././././.[./././././.V.m.V.$XE.k.C.)._.[./._.[._._.[.).).).<.+ + * + + + * + k /./.'./././.[./././././.C.f.U.$XZ.f.V./././././././././././././.I.f.f.",
"f.f.].$X$X$X$X$X$X$X$X$X$X$X$X$X/.f.H.$XI.m.B.$X$X$X$X$X$X$X$X$X$X$XL.. + O q %.e.J + + X R $X$X$X$X$X$X$X$X$X$X$XH.f.U.$XF.m.I.$X$X$X$X$X$X$X$X$X$X$X$X$XOXm.f.",
"m.f.[.$X$X$X$X$X$X$X$X$X$X$X$X$XQ.f.H.$X/.f.M.$X$X$X$X$X$X$X$X$X$X$XU O + N $X$X$X$Xt.X . O W.$X$X$X$X$X$X$X$X$X$XV.f.I.$XH.f.U.$X$X$X$X$X$X$X$X$X$X$X$X$XOXf.m.",
"m.f./.$X$X$X$X$X$X$X$X$X$X$X$X$XI.f.V.$XQ.h.V.$X$X$X$X$X$X$X$X$X+XoX; + @ OX#XW n S.$XW X & %.$X$X$X$X$X$X$X$X$X$XH.c.U.$XH.f.U.$X$X$X$X$X$X$X$X$X$X$X$X$X].f.m.",
"f.f./.$X$X$X$X$X$X$X$X$X$X$X$X$X/.f.H.$X/.f.C.$X$X$X$X$X$X$X$X$X$XD.. + m $X5.+ + 2 $Xl.@ w  .$X$X$X$X$X$X$X$X$X$XV.m.U.$XV.z.U.$X$X$X$X$X$X$X$X$X$X$X$X$X].m.m.",
"U.V.OX$X$X$X$X$X$X$X$X$X$X$X$X$XI.m.V.+X/.f.B.$X$X$X$X$X$X$X$X$X$XD.+ * m $Xt.X * q #Xb.@ 5 [ +X$X$X$X$X$X$X$X$X$XH.f.U.$XA.f.U.$X$X$X$X$X$X$X$X$X$X$X$X$X].f.m.",
"$X$X$X$X$X$X$X$X$X$X$X$X$X$X$X$XI.m.H.$X/.f.V.$X$X$X$X$X$X$X$X$X$X@X2 + @ `.$X#.W R.$X[ 6 - o.$X$X$X$X$X$X$X$X$X$XH.f.U.$XF.h.U.$X$X$X$X$X$X$X$X$X$X$X$X$X].f.m.",
"$X$X$X$X$X$X$X$X$X$X$X$X$X$X$X$XI.f.V.$X/.f.V.$X$X$X$X$X$X$X$X$X$X$XQ O + p ^.#X$X$X7.i 7 . '.$X$X$X$X$X$X$X$X$X$XV.m.I.$XH.f.U.$X$X$X$X$X$X$X$X$X$X$X$X$X].f.m.",
"$X$X$X$X$X$X$X$X$X$X$X$X$X$X$X$X/.f.H.$XI.f.C.$X$X$X$X$X$X$X$X$X$X$X^.+ + * o R ( F d , X ` $X$X$X$X$X$X$X$X$X$X$XV.m.U.$XZ.f.U.$X$X$X$X$X$X$X$X$X$X$X$X$X].f.m.",
"U.V.OX$X+X$X$X$X$X$X$X$X$X$X$X$XI.m.V.$X/.f.C.$X$X$X$X$X$X$X$X$X$X$X$Xz.+ * * + + * * + D $X$X+X$X$X$X$X$X$X$X$X$XH.f.U.$XH.f.U.$X$X$X$X$X$X$X$X$X$X$X$X$XOXf.m.",
"f.f./.$X$X$X$X$X$X$X$X$X$X$X$X$XI.m.H.$X/.h.V.$X$X$X$X$X$X$X$X$X$X$X$X+XW.G @ & * X 3 4.$X$X$X$X$X$X$X$X$X$X$X$X$XZ.m.U.$XH.f.U.$X$X$X$X$X$X$X$X$X$X$X$X$X].f.m.",
"m.f./.$X$X$X$X$X$X$X$X$X$X$X$X$XI.f.V.$XR.z.C.$X$X$X$X$X$X$X$X$X$X$X$X$X+X$X7.= + V +X$X$X$X$X$X$X$X$X$X$X$X$X$X$XF.k.U.$XH.f.U.$X$X$X$X$X$X$X$X$X$X$X$X$X].f.m.",
"c.m./.$X$X$X$X$X$X$X$X$X$X$X$X$XQ.h.H.$XQ.m.V.$X$X$X$X$X$X$X$X$X$X$X$X$X$X$XS.O + I +X$X$X+X$X$X$X$X$X$X$X$X$X$X$XH.c.U.$XF.f.U.$X$X$X$X$X$X$X$X$X$X$X$X$X}.z.m.",
"m.f.].$X$X$X$X$X$X$X$X$X$X$X$X$X).m.V.$XI.f.V.$X$X$X$X$X$X$X$X$X$X+X$XW.u.$Xz.+ * P $X^.d.$X$X$X$X$X$X$X$X$X$X$X$XH.h.U.$XH.f.U.$X$X$X$X$X$X$X$X$X$X$X$X$X@Xk.h.",
"v.c.J._./.[._._.[./._././.).)./.H.f.V.$X/.h.m.[.'./.[./.).).[.`.[.[.<.7 B '.t.+ + S '.b.+ D N._._./._.[.[.`.'./._.V.k.H.$XV.v.V.).(.[.[.E.E.[.'./._.(.[.[.I.z.v.",
"L.f.k.j.v.j.h.z.9.K p 5 d J 3.f.j.f.I.$XOXf.f.v.f.k.f.k.z.v.f.k.$.q = , Y h.;.X + v f.u.+ * @ Y g.v.f.j.h.h.f.v.v.f.f.'.$X[.k.k.z.m.' N e t F o.v.z.h.j.j.f.c.V.",
"$XK.m.v.m.m.v.W + + + * & * $ ! C.I.+X$X$X_.V.m.m.m.m.m.m.h.0.N X 7 l > c h.#.+ * v m.w.o * * * 5 ` k.m.m.m.k.m.m.V./.$X$X$X/.C.0.r * & O + 7 4 f e.C.f.m.C.A.@X",
"$X$X$X$X$X$X<.O * * o > X * n 1 %.$X$X$X$X$X+X$X$X$X$X$X@X@.o @ p i @ A F.$XS.* * U $X+X%.5 X X + @ D F.$X$X$X+X$X$X$X$X$X$X$XXX4 X + X 3 c 4 + . y #X$X+X$X$X$X",
"$X].~.I.!.B.o + X Z l.~.d.Y 6 * o l.I.I.U.U.Y.Y./.I.~.&.6 X , z 6 k <.I./.'.i.o + Z XXE.Q.G.L + O 6 s 7 I N.R.~.Y.Y.K.U.U.U.I.A + + + @.E.I.@.O + O K L.Q./.].$X",
"_.j.j.k.f.F X + v v.v.8.f.v.V + O Z z.m.f.k.m.z.h.=.d * + @ @ y ` v.k.h.d.K @ * @ * d *.z.c.z.=.m 1 e o X = Y f.v.h.h.m.f.f.e.o * + 9.f.r.r.z.=.* O O ' f.z.z.I.",
"k.v.V.V.F.y * + f.V.V > S V.l.o & q D.V.A.V.D.p.Z o + + + 5 Q g.Z.D.D.' 2 + * + + - X + Z u.V.F.D.5.q + + X o r  .D.V.D.F.V._ + O J V.=.+ O #.Z.S + * L V.V.c.m.",
"k.v.[.+X#X> + 4 $XG.o l o I.$X1 & 2 +X$X$XXX%.o * + + @ Q W.$X$X+Xb.n O * + O u Z X + + * o 8.$X+X$X$X .* * * + X C D.$X$X$X+.+ + v.$Xp O * d $X<.+ * Y $X{.c.j.",
"m.z.[.+X$Xs O + ].$Xk + y $X@X+ * v $X$XoXt + X * * u s.$X+X$XR.T o + * * o K @X$X#.y . O O = m 5.$X$X$X[./ # O * * X 5.$X+Xv.+ 2 <.$X<.+ O 0.+XE O + / $X].m.k.",
"m.f._.+X$X/ + * G $X$XG.$X$XK * + p D.$X$XV.R + X :.$X$X$X+X| - + + + + S 1.l.+X$Xm.f.@.7 + * * + B l.$X$X$XS.V O 3 5.|.$X$X_ a l @ W.$XQ.`.$XG.o + + e.$X].f.m.",
"m.f._.$X$XW.. + X Y '.$X].Q + + + + + X..X$X$Xd.P.$X$X$Xu.y * * + X a i.{.h.k.+X$Xm.f.[. XR + + X * = ~ '.#X$X$Xd.XX$X$Xi.m t x > O , d.$X$Xu.@ & + Y @X+XOXm.z.",
"m.k./.$X$X$X+.X + O + 7 * * * X + @ O + 4 <.$X$X+X+Xn.M * O @ O 1 >.$X$X.Xd.c.$X$Xm.v.).$X$XD.C + + O + : +.$X$X$X$XU.A * 5 x @ O @ + @ 4 = * + + 7 @X$X$X].m.j.",
"m.f.[.$X$X+X$X$.+ * * X X * O :.P.T * * * + c S.'.) O + @ + + ( `.$X+X$X].v.z.@X$Xm.j._.+X$X$X$Xi.u + + + * d s.'.( + + n > u s.P.u + O - & + + k ~.+X$X$XXXf.k.",
"m.z./.$X$X$X$X$XV.R d a d Y D.+X$X$Xz.x * O O + = O + O O C B.$X$X$X$X$X].h.f.$X$Xm.k./.$X$X$X$X$X$X+.* - + O + = @ + * 7 ' @X$X$X@X%.N 8 y V <.$X#X$X$X$X].f.k.",
"m.m.[.$X$X$X$X$X$X$X$X$X+X$X$X$X@X$X$X$X5.5 + + + * # y t.$X$X+X$X$X$X$X].h.h.+X+Xm.c./.$X$X#X$X$X$X$X`.Y O * X + * + I P.$X$X@X$X$X$X$X+X$X$X$X$X$X+X$X$X[.m.m.",
"m.h.[.+X+X$X$X+X$X$X$X$X$X$X$X$XW.f i.$X$X].W * * 1 $.+X$X$X$X$X$X$X$X+X].z.z.+X$Xm.j./.$X$X$X$X$X$X$X$X$XB.m & X q b.$X$XOXF ] $X+X$X$X$X$X$X+X$X$X$X$X$X{.f.v.",
"m.f./.$X$X$X$X$X$X$X$X$X$X$X$X$X/.O O ) |.$XB.+ O z $X$X$X$X$X$X$X$X$X$X].f.f.+X$Xm.f./.$X$X$X$X$X$X$X$X$X$Xz.O O A $X$Xx.e + ( $X$X$X$X$X$X$X$X$X$X$X$X$X{.f.m.",
"m.m./.$X$X$X$X$X$X$X$X$X$X$X$X$X`.4 + @ B.$Xi.O O j $X$X$X$X$X$X$X$X$X$X].m.z.+X$Xm.m./.$X$X$X$X$X$X$X+X$X$Xi.O O M $X$Xk + + [ $X$X$X$X$X$X$X$X$X$X$X$X$X|.v.k.",
"m.f./.$X$X$X$X$X$X$X$X$X$X$X$X$X'.z d @ b.$Xu.+ O l +X$X$X$X$X$X$X$X$X$X[.f.z.+X$Xm.j./.$X$X$X$X$X$X$X$X$X$Xr.O O Z $X+XD + +  .$X$X$X$X$X$X$X$X$X$X$X$X$X].z.j.",
"m.f.[.$X$X$X$X$X$X$X$X$X$X$X$X$X[.l 7 + D.$Xi.O X l $X$X$X+X$X$X$X$X$X$X@Xc.c.#X$Xm.f.[.$X$X$X$X+X$X$X$X$X$Xi.O O B $X$XD * + [ $X$X$X$X$X$X$X$X$X$X$X$X$XOXh.m.",
"f.f./.$X$X+X$X$X$X$X$X$X+X$X$X$X/.6 + o B.+Xu.O O l $X+X$X$X+X$X+X#X$X$X_.h.f.+X$Xm.m./.$X$X$X$X$X$X$X+X$X$Xt.O + m $X+XD @ +  .$X+X$X$X+X$X+X$X$X$X+X$X$X[.f.j.",
"V.m.f.f.C.C.m.m.C.m.m.m.C.m.m.m.u.+ + + 1.C.@.O O a m.C.m.C.m.m.C.C.m.m.C.f.f.$X$Xm.m.h.m.C.m.C.C.C.C.m.m.C.o.O O x C.m.v + + U C.m.m.C.N.C.m.C.C.m.m.C.m.m.m.m.",
"}.m.k.m.f.m.f.f.f.h.m.f.f.f.f.h.r.* @ X <.h.o.+ O a z.c.h.z.z.f.c.f.m.c.f.f.'.$X$X].f.f.f.f.f.z.f.v.f.k.f.f.{ O @ j f.f.v * + U h.v.f.f.z.z.f.f.f.f.m.f.m.h.f.[.",
"$X$XOX|.OX].OXOXOX|.OXOXOXOXOX|.P.* o + l.[.e.O O d OXXXOX|.OX{.].OX].OXOX$X$X$X$X$X$XOXOXOXOX]._.[._.[..XOX0.O O m '.'.S + + ` ].OXOXOX.XOX}.|.|.OX{.OXXXOX$X$X",
"$X$X$X$X$X+X$X+X$X$X$X$X+X$X$X$X/.+ + + D.$Xi.O O j $X$X+X+X$X$X$X$X$X$X$X+XOXOXOXOX+X$X$X+X$X$X$X$X$X$X$X+Xt.O + Z $X$XD + @ ..$X$X$X$X+X$X$X$X+X$X$X$X+X$X$X$X",
"@XC.f.m.f.f.c.z.f.f.f.f.f.z.f.f.q.O @ + F.U.+.+ O s f.f.m.z.f.f.m.f.f.f.f.f.z.c.f.f.f.z.z.f.f.f.OX$X$XI.c.f.o.O O j H.$XD + + Y f.f.f.f.f.z.f.f.z.f.m.g.z.m.m.].",
"V.m.m.f.f.f.z.f.m.f.f.m.f.c.f.m.q.* + + l.k.o.O O a h.z.z.z.f.z.f.f.f.f.f.f.m.f.m.z.f.f.h.h.z.m.OX$X$XY.f.f.+.O + x z.!.D O O R m.f.f.m.f.c.f.m.f.m.f.f.m.m.z.C.",
"h.f.I.OX@XOXOXOXOXOXOXOXOXOXOXOXz.* + + s.f.@.+ O j OXOXOX@XOX.XOXOXOXOXOXOXOXOX{.OXOXOX@XOXOX+X+X$X$X+X@XOX5.O @ x f.U.D = + E OXOXOXOXOXOXOXOXOXOXOXOXOX/.f.f.",
"m.f.].$X+X$X$X$X$X$X$X$X$X$X$X$XV.* + @ s.f.#.+ O l $X$X$X$X$X$X$X$X$X$X$X$X$X$X$X$X$X$X$X$X$X$X$X$X$X$X$X$Xu.O O n h.U.D @ + / $X$X$X$X$X$X$X$X$X$X$X+X$X@Xh.m.",
"m.m./.$X$X$X$X$X$X$X$X$X$X$X$X$XC.+ + + s.k.#.O X j $X$X$X$X$X$X$X$X$X$X$X$X$X$X$X$X$X$X$X$X$X$X$X$X$X+X$X$Xy.O + x c.U.D * O / $X$X$X$X$X$X$X$X$X$X$X$X$X].m.h.",
"m.c./.$X$X$X$X$X$X$X$X$X$X$X$X$XB.+ = O r.f.+.+ O j $X$X$X$X$X$X$X$X$X$X$X$X$X$X$X$X$X$X$X$X$X$X$X$X$X$X$X$Xi.O O x f.U.g + = W $X$X$X$X$X$X$X$X$X$X$X$X$X.Xz.m.",
"m.f./.$X$X$X$X$X$X$X$X$X$X$X$X$XV.* + j V.k.0.* O z $X$X$X$X$X$X$X$X$X$X$X$X$X$X$X$X$X$X$X$X$X$X$X$X$X$X$X$Xb.O + n z.I.,.= + E $X$X$X$X$X$X$X$X$X$X$X$X$X].f.m.",
"k.c.[.$X+X$X$X$X$X$X$X#X$X$X$X$Xl.@ E $XE.j. .y + 5 l.$X+X$X$X$X$X$X$X$X+X$X$X$X$X$X$X$X$X$X+X$X+X$X$X$X$XXXE * + u i.I.+X0.0 I $X$X$X$X+X$X$X$X$X$X$X$X$X{.h.m.",
"m.m./.$X$X+X$X$X$X$X$X$X+X$X$X$XF.w.H.$Xl.A 5 = + X * J L.$X$X$X$X$X$X$X$X$X$X$X$X+X$X$X$X$X$X$X$X$X$X$X>.4 + O + , c X.$XF.v.f.$X$X#X$X$X$X$X$X$X+X+X$X$X].f.m.",
"v.f._.$X+X$X$X$XOX5.P A J <.|.+XY.j.j._ a 7 o * * * + + - ] OX$X$X$X$X$X$X$X+X+X$X$X$X$X$X$X$X$X$X$Xs.k + * O + > y = O i %.f.J.$X$Xv.( S D ] B.$X#X$X$X$X].k.j.",
"v.f./.$X$X$X$Xl.6 + * * * * 5 v.P.( s , q + = <.l.k * O + + 6 7.$X$X$X$X$X+X#X$X$X$X$X$X$X+X$X+XQ.I X + X X + $.G.S + + X + n v.+XK & * X X O * Y $X$X$X$XXXj.k.",
"v.m.E.$X$X$Xp.o * O X o X * * + 5 + 4 7 + B g.$X$X$X3.7 . X * + v b.$X$X+X$X$X$X$X+X$X$X$X$X@X` * + @ * + J ~.$X$XV.O.6 * * + * r # + O * * + + X v $X$X$X].c.m.",
"m.h.).$X$XXXX O O g s./.l.j o O @ p o Z u.m.B./.+X$X#X].{ + X * O X J  X$X$X$X$X$X$X$X+X$X4.6 * O * * x v.$X$X$XQ.L.z.H.$.+ + o = O O o.Q.L.' q s O  .$X+X].z.m.",
"m.f.[.+X$X .. * d $X$X$X$X$Xc - d m +.$X~.g._ @ p b.$X$X$XF.S O + > 4 d %.#X$X$X$X$X$Xb.B . * * # 2 $.$X$X$XXX[ @ c 3.P.$Xg.v + + * i.$X$X$X$Xd.e * o l.$X].m.m.",
"m.v./.$X$Xc O & L.$XE = U $X/.s , k H.+XF.y * @ * O J R.$X$X$Xu.m 1 l + O r r.$X$X^.Y @ + * + X ) oX+X+X$X7.5 X + + @ +.$XH.:.+ X I $Xv.: t W.$XZ O + [ $X].j.m.",
"c.m.].+X$X> + 7 $XP.+ & # Q.$XZ * : V.+XK.%.V o + * + + ' @X$X$X$X5.7 + * * + J ] > . + & * F F.$X$X$XD.V O + * + 7 ( v.$XV.E + * 1.$Xg 1 > J $X*.+ * Y $XOXm.f.",
"m.m.M.J.L.6 O = H.B.: * 7 V.G.2 O 6 F.$X/.v.b.>.u X o * & 5 +.U.U.U.m.F . X * O + + @ + q %.H.L.U.m.W > + o + + U i.m.K.$XH.Q + O ! G.{ @ 1 Q U.E O * K U.V.f.f.",
"/.f.v.f.v.B O O L z.u.^ v.z.K + * v `.$X+Xm.f.z.v.( 1 O + O 5 V *.v.f.h.<.x + * + * @ ~ v.j.f.m.R p = O * * c 5.z.c.f.OX+XOX1.X + @ l.h.+.o.z.s.7 O o ! f.m.z.U.",
"$X/.U.H.U.0.X * X Q W.H.L./ o * . i.$X$X$X+XU.U.L.U.N.K > 8 d * X S v.L.U.H.` + X l v.L.U.H.O.x 8 5 + O d <.U.L.U.I.{.$X$X$XXXf + = F d.U.L.e.6 + O x v.U.U./.$X",
"+X$X$X$X+X$X( . + @ 2 m 8 + + O R $X$X$X$X+X$X$X$X$X$X+XG./ @ . * + >  .{.$XG.o + T $X+Xv.M . = t + 7 <.$X$X$X$X$X+X$X$X$X$X$XG.1 x 1 o c x = + * o `.$X$X$X$X$X",
"$XI.V.B.M.V.V.B + + * * + + X m B.V.C.M.C.V.V.V.V.C.V.V.V.B.+.8 + + * * G J.l.+ + J I.g.X + + O = F g.V.M.V.C.V.V.V.B.C.V.V.C.V.4.2 * & + * & + + <.V.B.V.C.U.$X",
"U.f.f.f.v.k.f.v.{ c + + + c ' v.z.k.f.c.z.m.m.z.f.m.h.h.h.v.l.f.^ % + + C m.<.+ X V f.u.+ * O c -.m.v.f.h.h.v.v.m.f.k.m.v.c.f.z.f.9.G 5 X o 6 K e.f.c.m.j.h.k.H.",
"m.f.A.~.Q.Y.Y.Q.Q.~.D.s.V.Y.I.!.E.I.R.Q.!.I.I.Q.Q.I.Q.E.Y.Y./.Q.~.N.Y + v c.#.+ * v f.d.X t 3.~./.I.I.!.Q.~.Y.I.I.Y.Y.I.Q.I.Y.I.T.~.~.I.j.l.Q.E.I./.Y.I.I.U.h.l.",
"m.j.].$X$X$X$X$X$X$X$X$X$X$X$X$X$X$X$X$X$X$X$X$X$X$X$X$X$X$X$X$X$X$X$Xu.{ l.%.o O n c.S.[ +X$X$X$X$X$X$X$X$X$X$X$X$X$X$X$X$X$X$X$X$X$X$X$X$X$X$X$X$X$X$X$X@Xk.c.",
"m.f.[.$X$X$X$X$X$X$X$X$X$X$X$X$X$X$X$X$X$X$X$X$X$X$X$X$X$X$X$X$X$X$X$X$X{.m.%.+ = C f./.$X$X$X$X$X$X$X$X$X$X$X$X$X$X$X$X$X$X$X$X$X$X$X$X$X$X$X$X$X$X$X$X$X}.f.m.",
"m.f./.$X$X$X$X$X$X$X$X$X$X$X$X$X$X$X$X$X$X$X$X$X$X$X$X$X$X$X$X$X$X$X$X$X{.f.#.* 5 U f./.$X$X$X$X$X$X$X$X$X$X$X$X$X$X$X$X$X$X$X$X$X$X$X$X$X$X$X$X$X$X$X$X$X].f.m.",
"m.f.[.$X$X$X$X$X$X$X$X$X$X$X$X$X$X$X$X$X$X$X$X$X$X$X$X$X$X$X$X$X$X$X$X$X[.R 5 6 z 6 N s.$X$X$X$X$X$X$X$X$X$X$X$X$X$X$X$X$X$X$X$X$X$X$X$X$X$X$X$X$X$X$X$X$X].f.m.",
"m.v.[.$X$X$X$X$X$X$X$X$X$X$X$X$X$X$X$X$X$X$X$X$X$X$X$X$X$X$X$X$X+X$X$X^.9 + @ g > X + + [ $X+X$X$X$X$X$X$X$X$X$X$X$X$X$X$X$X$X$X$X$X$X$X$X$X$X$X$X$X$X$X$X|.f.k.",
"m.k./.$X$X$X$X$X$X$X$X$X$X$X$X$X$X$X$X$X$X$X$X$X$X$X$X$X$X$X$X$X$X$X@X9 & t y C x o * + X 4.+X$X$X$X$X$X$X$X$X$X$X$X$X$X$X$X$X$X$X$X$X$X$X$X$X$X$X$X$X$X$X].f.m.",
"m.h./.$X$X$X$X$X$X$X$X$X$X$X$X$X$X$X$X$X$X$X$X$X$X$X$X$X$X$X$X$X$X$X+.O t p %.#X$Xz.A + + + @X$X$X$X$X$X$X$X$X$X$X$X$X$X$X$X$X$X$X$X$X$X$X$X$X$X$X$X$X$X$X].f.m.",
"m.j./.$X$X$X$X$X$X$X$X$X$X$X$X$X$X$X$X$X$X$X$X$X$X$X$X$X$X$X$X$X$X#X2 4 @ =.m.v.5.k.v.k * + 5.$X$X$X$X$X$X$X$X$X$X$X$X$X$X$X$X$X$X$X$X$X$X$X$X$X$X$X$X$X$X].f.m.",
"m.f./.$X$X$X$X$X$X$X$X$X$X$X$X$X$X$X$X$X$X$X$X$X$X$X$X$X$X$X$X$X$XP.$ s S z.*.O * k v.5.# + W $X$X$X$X$X$X$X$X$X$X$X$X$X$X$X$X$X$X$X$X$X$X$X$X$X$X$X$X$X$X].f.m.",
"m.c./.$X$X$X$X$X$X$X$X$X$X$X$X$X$X$X$X$X$X$X$X$X$X$X$X$X$X$X$X$X$XG.v < B m.R * &   v.s.+ + U $X$X$X$X$X$X$X$X$X$X$X$X$X$X$X$X$X$X$X$X$X$X$X$X$X$X$X$X$X$X].m.m.",
"m.m./.$X$X$X$X$X$X$X+X$X+X$X$X$X$X$X$X$X$X$X$X$X$X$X$X$X$X$X$X$X$X Xy + 1 z.s.d @ ' m.] + * ..$X$X$X$X$X$X$X$X$X$X$X$X$X$X$X$X$X$X$X$X$X$X$X$X$X$X$X$X$X$X].f.m.",
"m.j.[.$X$X$X$X$X$X$X$X$X$X$X$X$X$X$X$X$X$X$X$X$X$X$X$X$X$X$X$X$X$X$Xm O X G c.+X$Xv.5.; + O D.+X$X$X$X$X$X$X$X$X$X$X$X$X$X$X$X$X$X$X$X$X$X$X$X$X$X$X$X$X$X].f.m.",
"m.f.].$X$X$X$X$X$X$X$X$X$X$X$X$X$X$X$X$X$X$X$X$X$X$X$X$X$X$X$X$X$X$Xl.. * . c C.`.Q @ * O c $X$X$X$X$X$X$X$X$X$X$X$X$X$X$X$X$X$X$X$X$X$X$X$X$X$X$X$X$X$X$XOXm.f.",
"m.f.U.]..X].].$X$X$X$X+X]..X].].].].].].].].].].].].].].].].].].].{.].( X * * + + + * + % P.].|.].].].].].].].].].].].].].].].].].].].].].].].].].].].].[./.m.k.",
"H.d.h.c.m.f.g.V.$X$X$Xm.z.f.m.f.f.f.m.f.f.f.f.f.f.f.f.f.f.f.m.k.v.f.f.m.W + O * * + X k 0.f.v.j.m.f.f.f.m.f.f.f.m.f.f.f.k.f.f.f.m.f.f.f.k.f.f.f.c.f.f.f.k.v.f.V.",
"+XH.C.f.m.m.m.U.$X$X$XV.m.m.f.m.m.m.m.m.m.m.m.m.m.m.z.m.m.m.m.m.c.m.m.k.m.a.>./ / { *.b.c.c.c.k.m.m.m.m.m.m.m.m.m.m.m.m.m.m.m.m.m.m.m.m.m.m.m.m.m.m.m.f.m.m.V.OX"
};
