/* XPM */
static char *_2facbafa61a434581462970fc3c12c3DllShB7FkwPTYERY[] = {
/* columns rows colors chars-per-pixel */
"80 80 2 1 ",
"  c None",
". c black",
/* pixels */
" .................    ....................................     ................ ",
"..................   ......................................   ..................",
"...             ...  ..                                  ... ...             ...",
"..               .. ...                                  ... ...              ..",
"..              ...  ..                                  ... ...              ..",
"..              ...  ..                                  ... ...              ..",
"..              ...  ..                                  ... ...              ..",
"..              ...  ..                                  ... ...              ..",
"                ...  ..                                  ... ...              ..",
"                ...  ..                                  ... ...              ..",
"                ...  ..                                  ... ...              ..",
"..              ...  ..                                  ... ...              ..",
"..              ...  ..                                  ... ...              ..",
"..              ...  ..                                  ... ...              ..",
"..              ...  ..                                  ... ...              ..",
"..               ..  ..                                  ... ...              ..",
"...             ...  ..                                  ... ...             ...",
"...................  ......................................   ..................",
" .................    ....................................     ................ ",
"                                                                                ",
"   .................................        .................................   ",
" ......................................   ......................................",
".......................................  .......................................",
"..                                   ..  ..                                   ..",
"..                                   ..  ..                                   ..",
"..                                   ..  ..                                   ..",
"..                                   ..  ..                                   ..",
"..                                   ..  ..                                   ..",
"..                                   ..  ..                                   ..",
"..                                   ..  ..                                   ..",
"..                                   ..  ..                                   ..",
"..                                   ..  ..                                   ..",
"..                                   ..  ..                                   ..",
"..                                   ..  ..                                   ..",
"..                                   ..  ..                                   ..",
"..                                   ..  ..                                   ..",
"..                                   ..  ..                                   ..",
".......................................  .......................................",
" .....................................    ..................................... ",
"                                                                                ",
"                                                                                ",
" .................   ...........................   ........   ................. ",
"...................  ...........................    .......  ...................",
"...             ... ...                                  ... ...              ..",
"..               ..  ..                                  ... ...              ..",
"..              ...  ..                                  ... ...              ..",
"..              ...  ..                                  ... ...              ..",
"..              ...  ..                                  ... ...              ..",
"..              ...  ..                                  ... ...              ..",
"..              ...  ..                                  ... ...              ..",
"..              ...  ..                                  ... ...              ..",
"..              ...  ..                                  ... ...              ..",
"..              ...  ..                                  ... ...              ..",
"..              ...  ..                                  ... ...              ..",
"..              ...  ..                                  ... ...              ..",
"..              ...  ..                                  ... ...              ..",
"..               .. ...                                  ... ...              ..",
"...................  ....................................... ...................",
" .................   ......................................   ..................",
"  ...............     ....................................     ...............  ",
"                                                                                ",
" .....................................    ..................................... ",
".......................................  .......................................",
"...   .....................        ....  ....        .....................   ...",
"..                                   ..  ..                                   ..",
"..                                   ..  ..                                   ..",
"..                                   ..  ..                                   ..",
"..                                   ..  ..                                   ..",
"..                                   ..  ..                                   ..",
"..                                   ..  ..                                   ..",
"..                                   ..  ..                                   ..",
"..                                   ..  ..                                   ..",
"..                                   ..  ..                                   ..",
"..                                   ..  ..                                   ..",
"..                                   ..  ..                                   ..",
"..                                   ..  ..                                   ..",
"..                                   ..  ..                                   ..",
"...                                 ...  ...                                  ..",
"........   ............................  .......................................",
" .......   ...........................    ..................................... "
};
