/* XPM */
static char *_480_b5a32acf34b72018d7b1d9f2d597b88cfe6810bb68596c383de62f9f0302c591[] = {
/* columns rows colors chars-per-pixel */
"80 80 68 1 ",
"  c #BBBBBB",
". c #BCBCBC",
"X c gray74",
"o c gray",
"O c gray75",
"+ c #C0C0C0",
"@ c #C1C1C1",
"# c gray76",
"$ c #C3C3C3",
"% c gray77",
"& c #C5C5C5",
"* c #C6C6C6",
"= c gray78",
"- c #C8C8C8",
"; c gray79",
": c #CACACA",
"> c #CBCBCB",
", c gray80",
"< c #CDCDCD",
"1 c #CECECE",
"2 c gray81",
"3 c #D0D0D0",
"4 c gray82",
"5 c #D2D2D2",
"6 c LightGray",
"7 c gray83",
"8 c #D5D5D5",
"9 c gray84",
"0 c #D7D7D7",
"q c #D8D8D8",
"w c gray85",
"e c #DADADA",
"r c gray86",
"t c gainsboro",
"y c #DDDDDD",
"u c gray87",
"i c #DFDFDF",
"p c gray88",
"a c #E1E1E1",
"s c #E2E2E2",
"d c gray89",
"f c #E4E4E4",
"g c gray90",
"h c #E6E6E6",
"j c #E7E7E7",
"k c gray91",
"l c #E9E9E9",
"z c #EAEAEA",
"x c gray92",
"c c #ECECEC",
"v c gray93",
"b c #EEEEEE",
"n c #EFEFEF",
"m c gray94",
"M c #F1F1F1",
"N c gray95",
"B c #F3F3F3",
"V c #F4F4F4",
"C c gray96",
"Z c #F6F6F6",
"A c #F8F8F8",
"S c #F9F9F9",
"D c gray98",
"F c #FBFBFB",
"G c gray99",
"H c #FDFDFD",
"J c #FEFEFE",
"K c white",
/* pixels */
"Kq*@@%##########*yKKKz<@################################$;gKKJs-#############$8D",
"9@X+@OoOOOOOOOOOOOuHZOo+OOOOOOOOOOOOOOOOOOOOOOOOOOOOOOOOo++cFxOOOOOOOOOOOOOOOOo1",
"+o0hhgfjhhhhhhhh3O1KiO&gjjjjjjjjhhhhhhhhhhhhhhhhhhhhhhhhj=o7K2O1hhhhhhhhghhhfu+o",
"+OcKJKJKKKKKKKKKsO2Ky#;KKKKKKKKKKKKKKKKKKKKKKKKKKKKKKKKKK6orJ2@eKKKKKKKKJKKKKM@O",
"$XkKJKKJKKKKKKKKpo4HgX;KKKKKKKKKKKKKKKKKKKKKKKKKKKKKKKKKJ3owK5o0KKKKKKKKKKJKKmX@",
"++fKKHKJKKKKKKKKt+3Kp+:JKKKKKKKKKKKKKKKKKKKKKKKKKKKKKKKKK3OwH6OqKKKKKKKKKJKKHnO@",
"OohJKHKKKKKKKKKKiX5Kso-KKKKKKKKKKKKKKKKKKKKKKKKKKKKKKKKKK<#eK3+9KKKKKKKKKJKKJb++",
"q:BKJKJKKKKKKKKKu+2JsO;KKKKKKKKKKKKKKKKKKKKKKKKKKKKKKKKKK4o0K4oqKKKKKKKKKKKJKbO#",
"KKKKKJKKKKKKKKKKiO3KpO;KKKKKKKKKKKKKKKKKKKKKKKKKKKKKKKKKK3OwJ3O0KKKKKKKKKKKJKbO@",
"KJKJJKKHKKKKKKKKuO3KaO;KKKKKKKKKKKKKKKKKKKKKKKKKKKKKKKKKK3OeK4O0KKKKKKKKKKKKKvO@",
"KJKKKJKKKKKKKKKKuO3KaO;KKKKKKKKKKKKKKKKKKKKKKKKKKKKKKKKKK3OwK4O0KKKKKKKKKKKKKbO@",
"q>VKGKHJKKKKKKKKu+3KaO-KKKKKKKKKKKKKKKKKKKKKKKKKKKKKKKKKK3OwK4O0KKKKKKKKKKJKKnO@",
"OodHKHKKKKKKKKKKuO3KaO-KKKKKKKKKKKKKKKKKKKKKKKKKKKKKKKKKK3OwK4O0KKKKKKKKKKKKJno@",
"#XjKKKKHKKKKKKKKuo3Ka+;JKKKKKKKKKKKKKKKKKKKKKKKKKKKKKKKKJ3OwK4o0KKKKKKKKKKKKHno#",
"+$hHKHKJKKKKKKKKpO3Kp+:KKKKKKKKKKKKKKKKKKKKKKKKKKKKKKKKKK4+wK4OqKKKKKKKKJKKKJMO@",
"#.vKJKJKKKKKKKKKd+3KuO>KKKKKKKKKKKKKKKKKKKKKKKKKKKKKKKKKK5+qK3OeKKKKKKKKKKJKKV++",
"+Owhklgjjjjjjjjj5o1KuO&gjjjjjjjjjjljjkhkkgjzhkhkjjjjjjjjj:X9K2O<jjjjjjjjhjjhjyoO",
"9@.@o.@+OOOOOOOOo@uKC+X@OOOOOOOO@oO+OoOOo++ @oOOOOOOOOOOOoOlKjOOOOOOOOOOOOo@o.@<",
"K7*#@%#+########-qKKKk>@########O&@@#+$#+&+&@#$$########@;dKJHa=##########$@$*6Z",
"HKKHKJJKKKKKKKKKHKJKJKKJKKKKKKKKKHKKKKFFHDKHKKJJKKKKKKKKKKKHKKGKKKKKKKKKKKHKKHKK",
"Kbsuiiaiiiiiiiiia0weeetiiiiiiiiiyppyynKJKJMpptipiiiiiiiiaretqwruiiiiiiiiupipuuvJ",
"h+o+X+ooOOOOOOOOo++OOo@oOOOOOOOOO@XoOOtKKa@oo+@XOOOOOOOOo+o+o@+XOOOOOOOO+OOo+Ooy",
"$+=<2<<111111111>2>2,,<1<<<111111,4<<XoHK++-31,311111<<<<,<<2>,111111111<2<1<,o@",
"OOkKJKJKKKKKKKKKKJKJKKJKKKKKKKKKKKJKn@+AK@XlKJKJKKKKKKKKKKKKJKJKKKKKKKKKKKKKKmO+",
"#OhKKKKKKKKKKKKKKKKKKKKKKKKKKKKKKKKKbOODK#OhKKKKKKKKKKKKKKKKKKKKKKKKKKKKKKKKKnO@",
"#OhKKKKKKKKKKKKKKKKKKKKKKKKKKKKKKKKKbOODK#OhKKKKKKKKKKKKKKKKKKKKKKKKKKKKKKKKKnO@",
"#OhKKKKKKKKKKKKKKKKKKKKKKKKKKKKKKKKKbOODK#OhKKKKKKKKKKKKKKKKKKKKKKKKKKKKKKKKKnO@",
"#OhKKKKKKKKKKKKKKKKKKKKKKKKKKKKKKKKKbOODK#OhKKKKKKKKKKKKKKKKKKKKKKKKKKKKKKKKKnO@",
"#OhKKKKKKKKKKKKKKKKKKKKKKKKKKKKKKKKKbOODK#OhKKKKKKKKKKKKKKKKKKKKKKKKKKKKKKKKKnO@",
"#OhKKKKKKKKKKKKKKKKKKKKKKKKKKKKKKKKKbOODK#OhKKKKKKKKKKKKKKKKKKKKKKKKKKKKKKKKKnO@",
"#OhKKKKKKKKKKKKKKKKKKKKKKKKKKKKKKKKKbOODK#OhKKKKKKKKKKKKKKKKKKKKKKKKKKKKKKKKKnO@",
"#OhKKKKKKKKKKKKKKKKKKKKKKKKKKKKKKKKKbOODK#OhKKKKKKKKKKKKKKKKKKKKKKKKKKKKKKKKKnO@",
"#ohKJJKKKKKKKKKKJKKKKKKKKKKKKKKKKJKKboODJ#OgKKJKKKKKKKKKKKKKKKKKKKKKKKKKKKJKJno#",
"#+gJKKKKKKKKKKKKKKKKKJKJKKKKKKKKKKKJv+XFK+#hJKKKKKKKKKKJJKKKKKKJKKKKKKKKKJKKJn+@",
"@OgKKHKJKKKKKKKKJKKKKKKJKKKKKKKKHKHKxooDK@ogKHKJKKJKKKKKKKKJJKKKKKKKKKKKKKHKKvO+",
"#oxJHKJKKKKKKKKKKKKKKKKKKKKKKKKKKJKJB+@SK$oxHKKKKKKKKKKKKKKKKKKKKKKKKKKKKJKGJNO#",
"OXdKJGJKJJJHHHHHHHGGGGHHHHHHHHHHGGHKz+OSH#+dHJJHHJJJHHHHHHGGGHHHHHHHHHHHHHFHKzoO",
"-#O@*&%&%%%%%%%%$$$%&%%%%%%%%%%%&%%$%oXKK@@@#&&*&&&%%%$%$$$$$%%%%%%%%%%%&%%&##+#",
"M@+#X@oOOOOOOOOO+OOOOOOOOOOOOOOOOX++OXcJJn+O++XOOOooO+OOOOO++OooOOOOOOOO+o@X#Ooz",
"KHBnMmBMMMMMMMMMncljkxbMMMMMMMMMmBmmNKJKKKKNMmNblkkxnMNMMbzjjlcnMMMMMMMMMNmNnNHK",
"KJJHJFJGHHHHHHHHKKJKKJKHHHHHHHHHHHHJGSCNMBSHHGJKKKJKKHGJHKHKJKJKHHHHHHHHGKGJHHKJ",
"Z=o+oO+OOOOOOOOO+:SKHw+OOOOOOOOO+OOOOOOO+ooOOOooNKKroo+O+.0KJK4XOOOOOOOOOX@.OO$n",
",+#OO+ooOOOOOOOOo#8Hm+XOOOOOOOOOOooOOOOO+OOoOOO#CJKi+o+OO+odKuo#OOOOOOOOo+oOO@O&",
"+otBZNNNBBBBBBBB8O2Ku+=mBVVBBBBNMNNBBNNNmNVBBBVSKJKKZMVBB,o8K2+1BBBBBBBBVNBCBaOO",
"@obKFKKKKKKKKKKKfO2Kpo,JKKKKKKJJKKKJJKKKKKKKKKJKKKJKKJKJK4#qK3XtKKKKKKKKKKKFKZO@",
"@OhHKKHKKKKKKKKKyX5Kso;KKKKKKKKKKKKKJKKKKKKJKKJJKKKHJKJKK4.rK3@8KKKKKKKKJJKKJc@+",
"@@gKKGKJKKKKKKKKu#1Kp+-KKKKKKKKKJKKKKKKKKKKKJKKKKHKKKKHKK2+qK3+9KKKKKKKKKKJJJnO@",
"$ohKKKKKKKKKKKKKuO3Kp@-KKKKKKKKKKKKKKKKKKJKKJKKJJKJKKHKJK2+eK4oqKKKKKKKKKKJKJno#",
"#OhKKKKKKKKKKKKKuO3KaO;KKKKKKKKKKKKKKKKKKKKKKKKKKKKKKKKKK3OwK4O0KKKKKKKKKKKKKbO@",
"#OhKKKKKKKKKKKKKuO3KaO;KKKKKKKKKKKKKKKKKKKKKKKKKKKKKKKKKK3OwK4O0KKKKKKKKKKKKKbO@",
"#OhKKKKKKKKKKKKKuO3KaO;KKKKKKKKKKKKKKKKKKKKKKKKKKKKKKKKKK3OwK4O0KKKKKKKKKKKKKbO@",
"#OhKKKKKKKKKKKKKuO3KaO;KKKKKKKKKKKKKKKKKKKKKKKKKKKKKKKKKK3OwK4O0KKKKKKKKKKKKKbO@",
"#OhKKKKKKKKKKKKKuO3KaO;KKKKKKKKKKKKKKKKKKKKKKKKKKKKKKKKKK3OwK4O0KKKKKKKKKKKKKbO@",
"#OhKKKKKKKKKKKKKuO3KaO;KKKKKKKKKKKKKKKKKKKKKKKKKKKKKKKKKK3OwK4O0KKKKKKKKKKKKKbO@",
"#OhKKKKKKKKKKKKKuO3KaO;KKKKKKKKKKKKKKKKKKKKKKKKKKKKKKKKKK3OwK4O0KKKKKKKKKKKKKbO@",
"#OhKKKKKKKKKKKKKuO3KaO;KKKKKKKKKKKKKKKKKKKKKKKKKKKKKKKKKK3OwK4O0KKKKKKKKKKKKKbO@",
"+OzKJKKKKKKKKKKKa+1KuO;JKKKKKKKKKKGKJJKKHKKJJKHKJKKKKKKKK6o0K1+rKKKKKKKKKKKJKBO+",
"#O,9879888888888:o1Kgo$8888888889698783996697597889999996$+wG8X=88888888877q63O+",
"a@.++oX+OOOOOOOOOozKA#oOOOOOOOOOX#+oOO@Xo@OX+O+OOOOOOOOO+OOMKn+oOOOOOOOOo@OX+ooe",
"Ksw76q96888888889vHHKFe88888888805989665727q8779888888888wVKKHNw88888888958890aJ",
"KKJKKHKKKKKKKKKKKHKKHJKJKKKKKKKKKKKHKHKKJKHKJKHKKKKKKKKKJKKJKKGKKKKKKKKKKKKKJHKK",
"Jy>:,--:::::::::>:-->-::::::::::>-:,=eJKKKt:;,;::::::::::;:,=:;:::::::::::;,,-qF",
"toOOX@O+OOOOOOOOOO+Oo+oOoooOOOOOOO+o@+1JK9O++X+o++OOOOOO+oXO++OoOOOOOOOOOo#oX@o5",
"OO5ipuiiiiiiiiiiuaypyiyuiiiiiipppaui9X+GKOO3iuipppiiiiiiyupuutaiiiiiiiiipiuii8OO",
"++cKKJKKKKKKKKKKKKKKKKKKKKKKKKKKKKKKV+oDK@+xKKKJKKKKKKKKKKKKKKKKKKKKKKKKKKJKKV++",
"#OlJKKKJKKKKKKKKKKKKKKKKKKKKKKKKKKKJmooFK#OlJKKKKKKKKKKKKKKKKKKKKKKKKKKKJKKKJMO@",
"#ojHKKKJKKKKKKKKKKKKKKKKKKKKKKKKKKKJvXOFK#OhJKKKKKKKKKKKKKKKKKKKKKKKKKKKKKKKHno#",
"#ojJKKKKKKKKKKKKKKKKKKKKKKKKKKKKKKKKvo+DJ$OhKKJKKKKKKKKKKKKKKKKKKKKKKKKKKKKKJno@",
"#OjKKJKKKKKKKKKKKKKKKKKKKKKKKKKKKKKKvO+SJ$OgKKKKKKKKKKKKKKKKKKKKKKKKKKKKKKJKKnO@",
"#OhKKKKKKKKKKKKKKKKKKKKKKKKKKKKKKKJKcOOSK$OgKKKKKKKKKKKKKKKKKKKKKKKKKKKKKKKKKbO@",
"#OhKKKKKKKKKKKKKKKKKKKKKKKKKKKKKKKJKcOODK#OgKKKKKKKKKKKKKKKKKKKKKKKKKKKKKKKKKvO@",
"@OhKJKKKKKKKKKKKKKKKKKKKKKKKKKKKJKKKvOoFK@OhKKKKKKKKKKKKKKKKKKKKKKKKKKKKKKKJKbO@",
"#OhKKKKKKHKKKKKKKKKKKKKKKKKKKKKKKKJHbOXGK#+hJKJKKKKKKKKKKKKKKKKKKKKKKKKKKKJJKvo#",
"@+gJKKJKHKKHKKJKKKKKKKKKKKKKKKKKKJKKvX+AJ%ofKJJKKKKKKKKKKKKKKKKKKKKKKKKKKKKKJb++",
"#+gJKKJKKJGKFJKJKKKKKKKKKKKKKKKKKKHKz#oFK@+gJKKKKKKKKKKKKKKKKKKKKKKKKKKKJKKKJnO+",
"#OkKJKKJJKKHKHKKKKKKKKKKKKKKKKKKKKJKb@XDK+olHKJJKKKKKKKKKKKKKKKKKKKKKKKKJKHJJmX#",
"++zKJKKKJKKKKJHKKKKKKKKKKKKKKKKKJJKKVX#SK%OlKHKKKKKKKKKKKKKKKKKKKKKKKKKKKKJKKM++",
"@OtcbnmFKJKAbMbbvvvvvvvvcccvvbbbnnbva+XHKo+qnxmmbbbbbvvvvvvvvvvvvvvvvvvvvbbncs+o",
"5XO++X.<KKG+OX@oOOOOOOOOOOOOOOOOo+o+.+=HJ<@o++OoOOOOOOOOOOOOOOOOOOOOOOOOOoOOO+.,",
"S4%O@##7KKJ2+$o#@@@@@@@@@@@@@@@@#+@#%,CKKS1&O@+@@@@@@@@@@@@@@@@@@@@@@@@@@@@+@#3B"
};
