/* XPM */
static char *_569efbfe4fc41cdff7c19d38c2e09c9JTeNjRmXunGch3Dj[] = {
/* columns rows colors chars-per-pixel */
"40 40 73 1 ",
"  c #B6B6B6",
". c #B7B7B7",
"X c gray72",
"o c #B9B9B9",
"O c gray73",
"+ c #BBBBBB",
"@ c #BCBCBC",
"# c gray74",
"$ c gray",
"% c gray75",
"& c #C0C0C0",
"* c #C1C1C1",
"= c gray76",
"- c #C3C3C3",
"; c gray77",
": c #C5C5C5",
"> c #C6C6C6",
", c gray78",
"< c #C8C8C8",
"1 c gray79",
"2 c #CACACA",
"3 c #CBCBCB",
"4 c gray80",
"5 c #CDCDCD",
"6 c #CECECE",
"7 c gray81",
"8 c #D0D0D0",
"9 c gray82",
"0 c #D2D2D2",
"q c LightGray",
"w c gray83",
"e c #D5D5D5",
"r c gray84",
"t c #D7D7D7",
"y c #D8D8D8",
"u c gray85",
"i c #DADADA",
"p c gray86",
"a c gainsboro",
"s c #DDDDDD",
"d c gray87",
"f c #DFDFDF",
"g c gray88",
"h c #E1E1E1",
"j c #E2E2E2",
"k c gray89",
"l c #E4E4E4",
"z c gray90",
"x c #E6E6E6",
"c c #E7E7E7",
"v c gray91",
"b c #E9E9E9",
"n c #EAEAEA",
"m c gray92",
"M c gray93",
"N c #EEEEEE",
"B c #EFEFEF",
"V c gray94",
"C c #F1F1F1",
"Z c gray95",
"A c #F3F3F3",
"S c #F4F4F4",
"D c gray96",
"F c #F6F6F6",
"G c gray97",
"H c #F8F8F8",
"J c #F9F9F9",
"K c gray98",
"L c #FBFBFB",
"P c gray99",
"I c #FDFDFD",
"U c #FEFEFE",
"Y c white",
/* pixels */
"u@@@@@@+:Kn@@@@@@@@@@@@@@@@@@nK1+@@@@@+w",
"+zCCCCCC:gqqCCCCCCCCCCCCCCCCw6g-CCCCNCz@",
" FUUUUUU6gqaUUUUUUUUUUUUUUUUz6g1UUUUUUK@",
"1CUUUUUU1zqaUUUUUUUUUUUUUUUUg6g1UUUUUUC-",
"UUUUUUUU1zqaUUUUUUUUUUUUUUUUaqg1UUUUUUC@",
"nKUUUUUU1gqaUUUUUUUUUUUUUUUUaqg1UUUUUUC@",
" CUUUUUU6gqaUUUUUUUUUUUUUUUUgqg1UUUUUUF-",
"+FUUUUUU1g6aUUUUUUUUUUUUUUUUz1a1UUUUUUU@",
"-:666661@Na@6166661111666166@uN@166666:-",
"UuuuuuuuzUUauuauuuauuauuuauuaKUnuuuuauuK",
"nqqwqwwwq:1qwwqqwquUUaqwqqwwq6:qwwwqwqqz",
"+waaaaaaaaagaaaaaa+gz+aaagaaaaaaaaaaaau+",
"@FUUUUUUUUUUUUUUUUqaa6UUUUUUUUUUUUUUUUK-",
"@CUUUUUUUUUUUUUUUU6ag1UUUUUUUUUUUUUUUUF-",
"@NUUUUUUUUUUUUUUUU6ag1UUUUUUUUUUUUUUUUC-",
"@CUUUUUUUUUUUUUUUU6ag1UUUUUUUUUUUUUUUUF-",
"@NUUUUUUUUUUUUUUUU6ag1UUUUUUUUUUUUUUUUF@",
"+KUUUUUUUUUUUUUUUUqua6UUUUUUUUUUUUUUUUU@",
"@1uuuwuwwuuuuwwwuw+zz wuuwwuwwuwwwwwuu6+",
"Cuuuwuauu1quuuuuuugUUguu66auuq1wuuuuauuN",
"FauauauuzUUguauaauaqqauaUKuuaKUnuuauauaF",
"@:q6qqq6+Nu+qw666666q66qUK6q@qn+6qq6qw1+",
"+KUUUUUU6gqgUUUUUUUUUUUUUUUUz6a1UUUUUUU-",
"@NUUUUUU6gquUUUUUUUUUUUUUUUUaqg1UUUUUUF@",
"@CUUUUUU1zquUUUUUUUUUUUUUUUUa6g1UUUUUUF@",
"@NUUUUUU6gqaUUUUUUUUUUUUUUUUgqg1UUUUUUC-",
"@CUUUUUU1zqaUUUUUUUUUUUUUUUUg6g1UUUUUUF@",
"@FUUUUUU6g6gUUUUUUUUUUUUUUUUz6a1UUUUUUK@",
"+uggggzg@zq:gzgggggggggggzzz16g@ggggggu+",
"z6qq6q66uUKqq66q6qq::qq6q6qqqFUu66q6qq6g",
"UuuaaaaaguggaaaaauzUUzuaaaaaagagaaaaauuK",
"::11116111:1116161+NN@1161611::1111116:-",
"+FUUUUUUUUUUUUUUUU6ua1UUUUUUUUUUUUUUUUK@",
"@CUUUUUUUUUUUUUUUU6ag1UUUUUUUUUUUUUUUUF-",
"-NUUUUUUUUUUUUUUUU6ag1UUUUUUUUUUUUUUUUC-",
"@CUUUUUUUUUUUUUUUU1ag1UUUUUUUUUUUUUUUUC@",
"@CUUUUKUUUUUUUUUUU6ag1UUUUUUUUUUUUUUUUF@",
"@FUUUUUUUUUUUUUUUU6aa1UUUUUUUUUUUUUUUUU@",
"+nFFUKFFFCFFCCCCFK:ag-FFCCCCFFFCCCCFFFn@",
"w++6Uz -@@-@@@@@-@-CF@@-@@@@---@@@-@@@@q"
};
