/* XPM */
static char *_5281_fd61cf4cfa264936e02913121d5f65ac7b8e2207782a449678ab6eb7ca99a68e[] = {
/* columns rows colors chars-per-pixel */
"80 80 226 2 ",
"   c black",
".  c #010101",
"X  c #020202",
"o  c gray1",
"O  c #040404",
"+  c gray2",
"@  c #060606",
"#  c #070707",
"$  c gray3",
"%  c #090909",
"&  c gray4",
"*  c #0B0B0B",
"=  c #0C0C0C",
"-  c gray5",
";  c #0E0E0E",
":  c gray6",
">  c #101010",
",  c #111111",
"<  c gray7",
"1  c #131313",
"2  c gray8",
"3  c #151515",
"4  c #161616",
"5  c gray9",
"6  c #181818",
"7  c #191919",
"8  c gray10",
"9  c #1B1B1B",
"0  c gray11",
"q  c gray12",
"w  c #202020",
"e  c #222222",
"r  c #232323",
"t  c gray14",
"y  c #252525",
"u  c gray15",
"i  c #272727",
"p  c #282828",
"a  c gray16",
"s  c #2A2A2A",
"d  c gray17",
"f  c #2C2C2C",
"g  c #2D2D2D",
"h  c gray18",
"j  c #2F2F2F",
"k  c #313131",
"l  c #323232",
"z  c gray20",
"x  c #343434",
"c  c #353535",
"v  c gray21",
"b  c #373737",
"n  c gray22",
"m  c #393939",
"M  c #3A3A3A",
"N  c gray23",
"B  c #3C3C3C",
"V  c gray24",
"C  c #3E3E3E",
"Z  c #3F3F3F",
"A  c gray25",
"S  c #414141",
"D  c gray26",
"F  c #434343",
"G  c #444444",
"H  c gray27",
"J  c #464646",
"K  c gray28",
"L  c #484848",
"P  c #494949",
"I  c gray29",
"U  c #4B4B4B",
"Y  c #4C4C4C",
"T  c gray30",
"R  c #4E4E4E",
"E  c #515151",
"W  c gray32",
"Q  c #535353",
"!  c gray33",
"~  c #555555",
"^  c #565656",
"/  c gray34",
"(  c #585858",
")  c gray35",
"_  c #5A5A5A",
"`  c #5B5B5B",
"'  c gray36",
"]  c #5D5D5D",
"[  c gray37",
"{  c #5F5F5F",
"}  c #606060",
"|  c gray38",
" . c #626262",
".. c gray39",
"X. c #646464",
"o. c #656565",
"O. c #676767",
"+. c #686868",
"@. c DimGray",
"#. c #6A6A6A",
"$. c gray42",
"%. c #6C6C6C",
"&. c gray43",
"*. c #6F6F6F",
"=. c gray44",
"-. c #717171",
";. c #727272",
":. c #767676",
">. c gray47",
",. c gray48",
"<. c #7B7B7B",
"1. c #7C7C7C",
"2. c gray49",
"3. c #7E7E7E",
"4. c gray50",
"5. c #808080",
"6. c #818181",
"7. c gray51",
"8. c #838383",
"9. c #848484",
"0. c gray52",
"q. c #868686",
"w. c gray53",
"e. c #888888",
"r. c #898989",
"t. c #8B8B8B",
"y. c #8D8D8D",
"u. c #8E8E8E",
"i. c gray56",
"p. c gray57",
"a. c #929292",
"s. c #939393",
"d. c gray58",
"f. c #959595",
"g. c gray59",
"h. c #989898",
"j. c gray60",
"k. c #9A9A9A",
"l. c #9B9B9B",
"z. c gray61",
"x. c #9D9D9D",
"c. c gray62",
"v. c #9F9F9F",
"b. c #A0A0A0",
"n. c gray63",
"m. c #A4A4A4",
"M. c #A5A5A5",
"N. c gray65",
"B. c #A7A7A7",
"V. c gray66",
"C. c #A9A9A9",
"Z. c #AAAAAA",
"A. c gray67",
"S. c #ACACAC",
"D. c gray68",
"F. c #AEAEAE",
"G. c #AFAFAF",
"H. c gray69",
"J. c #B1B1B1",
"K. c #B2B2B2",
"L. c gray70",
"P. c #B4B4B4",
"I. c gray71",
"U. c #B6B6B6",
"Y. c #B7B7B7",
"T. c gray72",
"R. c #B9B9B9",
"E. c gray73",
"W. c #BBBBBB",
"Q. c #BCBCBC",
"!. c gray74",
"~. c gray",
"^. c gray75",
"/. c #C0C0C0",
"(. c gray76",
"). c #C3C3C3",
"_. c gray77",
"`. c #C5C5C5",
"'. c #C6C6C6",
"]. c gray78",
"[. c #C8C8C8",
"{. c gray79",
"}. c #CACACA",
"|. c #CBCBCB",
" X c gray80",
".X c #CDCDCD",
"XX c #CECECE",
"oX c gray81",
"OX c #D0D0D0",
"+X c gray82",
"@X c #D2D2D2",
"#X c LightGray",
"$X c gray83",
"%X c #D5D5D5",
"&X c gray84",
"*X c #D8D8D8",
"=X c gray85",
"-X c #DADADA",
";X c gray86",
":X c gainsboro",
">X c gray87",
",X c #E1E1E1",
"<X c gray90",
"1X c #E6E6E6",
"2X c #E9E9E9",
"3X c #EAEAEA",
"4X c gray92",
"5X c #ECECEC",
"6X c gray93",
"7X c #EEEEEE",
"8X c gray94",
"9X c #F1F1F1",
"0X c gray95",
"qX c #F3F3F3",
"wX c #F4F4F4",
"eX c gray96",
"rX c #F6F6F6",
"tX c gray97",
"yX c #F8F8F8",
"uX c #F9F9F9",
"iX c gray98",
"pX c #FBFBFB",
"aX c gray99",
"sX c #FDFDFD",
"dX c #FEFEFE",
"fX c white",
/* pixels */
"aXo.3 & * = = & * * * * * * * * 9 >.aXfXdXD.j * * * * * * * * * * * * * * * * * * * * * * * * & * * * * * * * * & i j.dXfXfXe.r * * * * * * * * * & = & * : ! 3X",
"| . . .   .   X                     0.sX*X                                                                      X   . G.fXb.X                     X         . B ",
"O   ] c.c.x.x.x.x.x.x.x.x.x.x.x.J . M fXr.  2 j.c.c.v.v.v.v.c.c.z.z.l.l.k.k.k.k.l.l.l.l.l.l.l.l.z.z.z.z.x.x.x.x.l.a   ' fXH   n x.x.x.x.x.x.x.x.v.z.z.x.c.&.  X ",
"O   Y.fXdXdXfXfXfXfXfXfXfXfXfXfXa.  A fX4.. f fXdXfXfXfXfXfXfXdXfXfXfXfXfXfXfXfXfXfXfXfXfXfXfXfXfXfXfXfXfXfXfXfXfXT . X.dXF   =.fXfXfXfXfXfXfXfXsXfXdXfXaX:X. o ",
"% o z.aXfXdXfXsXfXfXfXfXfXfXfXfX,.. J fX0.  p dXfXfXfXfXfXfXfXfXfXfXfXfXfXfXfXfXfXfXfXfXfXfXfXfXfXfXfXfXfXfXfXfXfXS   #.fXL . } fXfXfXfXfXfXfXfXfXfXfXsXfX!.  $ ",
"%   k.fXsXfXsXfXfXfXfXfXfXfXfXfX3.  H fXw.  u fXdXdXdXdXdXdXdXdXfXfXfXfXfXfXfXdXfXfXfXfXfXfXfXfXfXfXfXfXfXfXfXfXsXF . +.dXK . [ fXfXfXfXfXfXfXfXfXdXfXdXfXW.X $ ",
"    p.fXdXfXfXdXfXfXfXfXfXfXfXfX1.  H fX9.X i fXfXfXfXfXfXfXfXfXfXfXfXfXfXfXfXfXfXfXfXfXfXfXfXfXfXfXfXfXfXfXfXfXfXA   +.fXI   [ fXfXfXfXfXfXfXfXfXfXaXfXfXQ.  # ",
"X.u %XsXfXdXfXfXfXfXfXfXfXfXfXfX<.. G fXq.  p fXfXfXfXfXfXfXfXfXfXfXfXfXfXfXfXfXfXfXfXfXfXfXfXfXfXfXfXfXfXfXfXfXdXF . O.fXP   } fXfXfXfXfXfXfXfXfXsXfXfXsX~.  $ ",
"fXdXfXfXfXfXfXdXfXfXfXfXfXfXfXfX1.  H fX9.  p fXfXfXfXfXfXfXfXfXfXfXfXfXfXfXfXfXfXfXfXfXfXfXfXfXfXfXfXfXfXfXfXfXfXD   +.fXI   } fXfXfXfXfXfXfXfXfXdXfXfXfX!.  % ",
"sXfXdXfXfXfXsXfXfXfXfXfXfXfXfXfX<.  G fXe.. u fXfXfXfXfXfXfXfXfXfXfXfXfXfXfXfXfXfXfXfXfXfXfXfXfXfXfXfXfXfXfXfXfXfXS . #.dXP   { fXfXfXfXfXfXfXfXsXfXfXdXfXE.. # ",
"fXdXfXfXdXsXfXfXfXfXfXfXfXfXfXfX2.. H fXq.  u fXfXfXfXfXfXfXfXfXfXfXfXfXfXfXfXfXfXfXfXfXfXfXfXfXfXfXfXfXfXfXfXfXfXD   +.dXI . } fXfXfXfXfXfXfXfXfXfXsXdXfXQ.. $ ",
"O.i =XsXfXfXdXfXfXfXfXfXfXfXfXfX1.  H fX0.  i fXfXfXfXfXfXfXfXfXfXfXfXfXfXfXfXfXfXfXfXfXfXfXfXfXfXfXfXfXfXfXfXfXdXD   +.fXI   [ fXfXfXfXfXfXfXfXfXfXdXfXsX!.  % ",
"    a.fXfXfXfXdXfXfXfXfXfXfXfXfX2.. H fXq.. i dXfXfXfXfXfXfXfXfXfXfXfXfXfXfXfXfXfXfXfXfXfXfXfXfXfXfXfXfXfXfXfXfXdXF   @.fXP   { fXfXfXfXfXfXfXfXdXfXfXfXfXQ.  # ",
"%   l.fXfXdXdXfXfXfXfXfXfXfXfXfX<.X J fXw.  u fXfXfXfXfXfXfXfXfXfXfXfXfXfXfXfXfXfXfXfXfXfXfXfXfXfXfXfXfXfXfXfXfXfXD   @.dXP . [ fXfXfXfXfXfXfXfXfXfXdXsXfXT.X $ ",
"&   z.fXaXfXfXdXfXfXfXfXfXfXfXfX3.  G fXq.  p fXfXfXfXfXfXfXfXfXfXfXfXfXfXfXfXfXfXfXfXfXfXfXfXfXfXfXfXfXfXfXfXfXdXG   +.fXL   | fXfXfXfXfXfXfXfXfXfXfXfXdX~.  $ ",
"@   R.dXfXsXfXfXfXfXfXfXfXfXfXfXp.. D fX6.  h fXfXfXfXfXfXfXfXfXfXfXfXfXfXfXfXfXfXfXfXfXfXfXfXfXfXfXfXfXfXfXfXfXfXY X X.dXH   =.fXfXfXfXfXfXfXfXfXfXfXfXfX;XX o ",
"X . { v.x.c.v.c.c.c.c.c.c.c.c.c.L   N dXq.  3 x.v.v.v.c.c.c.c.c.x.v.v.x.c.c.c.c.c.x.v.x.v.c.c.c.c.c.c.c.c.v.v.v.x.i   ' dXA . n c.c.c.c.c.c.c.c.v.x.c.x.v.&.    ",
"_       .                         . ,.fX#X    .                 X     .     .       X       .                       X D.fXn.                      .   .   X . x ",
"rX} 3 & - * = - * = = = = = = = 8 -.sXsXfXn.l % = = = = = = = = * = ; = & * % * & * & % : = = * = = = = = = = = - u i.sXfXdX6.t = = = = = = = * - - & = > = E ,X",
"fXsXfXfXfXfXpXfXfXfXfXfXfXfXfXfXfXsXfXfXsXfXaXfXfXfXfXfXfXfXfXfXdXfXdXfXdXfXyX9X9XeXdXfXaXfXfXfXfXfXfXfXfXfXfXfXdXfXfXfXfXfXsXfXfXfXfXfXfXfXfXfXfXsXfXsXsXdXfXfX",
"fX~.8.2.1.3.6.4.4.4.4.4.4.5.5.5.1.$.#.%.#.#.:.3.4.4.4.4.4.4.4.4.3.6.2.1.9.E.fXfXfXdX|.6.1.6.3.3.4.4.4.4.4.4.4.4.5.>.$.%.@.%.%.,.5.5.5.4.4.4.4.4.4.3.5.3.5.7.J.fX",
"v..   . X     .                   . .   .     .                     .     X :.dXsXu.          X                 .   .   X   X                     o       .   <.",
"<   q B M C C N B B N M M m m n b n b m m n n m m m m M M M M M m M m V p X   rXdX# . e Z N N m M M M M M m m m b B v n n m v v n m m M M N B B C N V B m i   X ",
".   B.fXfXfXdXfXfXfXfXfXfXfXfXfXfXfXfXfXdXdXfXfXfXfXfXfXfXfXfXfXfXdXfXfX'.. . 2XfXO   N.fXdXfXfXfXfXfXfXfXfXfXfXfXdXfXfXdXdXfXfXfXfXfXfXfXfXfXfXdXfXfXfXfX'.X X ",
"& . n.fXdXfXfXfXfXfXfXfXfXfXfXfXfXfXfXfXfXfXfXfXfXfXfXfXfXfXfXfXfXfXfXfXQ..   5XfX- . c.fXfXfXfXfXfXfXfXfXfXfXfXfXfXfXfXfXfXfXfXfXfXfXfXfXfXfXfXfXfXfXdXfX/.. # ",
"*   v.fXdXfXfXfXfXfXfXfXfXfXfXfXfXfXfXfXfXfXfXfXfXfXfXfXfXfXfXfXfXfXfXfXW..   5XfX-   x.fXfXfXfXfXfXfXfXfXfXfXfXfXfXfXfXfXfXfXfXfXfXfXfXfXfXfXfXfXfXfXfXfX~.  # ",
"=   x.fXfXfXfXfXfXfXfXfXfXfXfXfXfXfXfXfXfXfXfXfXfXfXfXfXfXfXfXfXfXfXfXfXE.    5XfX-   z.dXfXfXfXfXfXfXfXfXfXfXfXfXfXfXfXfXfXfXfXfXfXfXfXfXfXfXfXfXfXfXfXfXQ.  $ ",
"=   z.fXfXfXfXfXfXfXfXfXfXfXfXfXfXfXfXfXfXfXfXfXfXfXfXfXfXfXfXfXfXfXfXfXR.    5XfX-   l.dXfXfXfXfXfXfXfXfXfXfXfXfXfXfXfXfXfXfXfXfXfXfXfXfXfXfXfXfXfXfXfXfXW.  % ",
"*   x.fXfXfXfXfXfXfXfXfXfXfXfXfXfXfXfXfXfXfXfXfXfXfXfXfXfXfXfXfXfXfXfXfXR.    5XfX-   l.fXfXfXfXfXfXfXfXfXfXfXfXfXfXfXfXfXfXfXfXfXfXfXfXfXfXfXfXfXfXfXfXfXQ.  $ ",
"*   x.fXfXfXfXfXfXfXfXfXfXfXfXfXfXfXfXfXfXfXfXfXfXfXfXfXfXfXfXfXfXfXfXfXR.    5XfX;   z.fXfXfXfXfXfXfXfXfXfXfXfXfXfXfXfXfXfXfXfXfXfXfXfXfXfXfXfXfXfXdXfXfXQ.  $ ",
"*   x.fXfXfXfXfXfXfXfXfXfXfXfXfXfXfXfXfXfXfXfXfXfXfXfXfXfXfXfXfXfXdXfXfXR.  . 5XfX;   l.fXfXfXfXfXfXfXfXfXfXfXfXfXfXfXfXfXfXfXfXfXfXfXfXfXfXfXfXfXfXfXfXfXQ.  $ ",
"*   x.fXfXfXfXdXfXfXfXfXfXfXfXfXfXfXfXfXfXfXfXfXfXfXfXfXfXfXfXfXfXdXfXfXR.  . 5XfX;   l.fXfXfXfXfXfXfXfXfXfXfXfXfXfXfXfXfXfXfXfXfXfXfXfXfXfXfXfXdXfXfXfXfXQ.  $ ",
"& X l.fXdXfXfXfXfXfXfXfXfXfXfXfXfXfXdXdXfXfXdXfXfXfXfXfXfXfXfXfXdXfXfXfXT.    6XfX*   l.fXfXfXfXfXfXfXfXdXfXfXfXfXdXfXfXfXfXfXfXfXfXfXfXfXfXfXfXfXfXfXsXfXE.X @ ",
"*   c.sXfXsXfXfXfXfXfXfXfXfXfXfXdXfXfXfXfXfXfXdXfXfXfXfXfXfXfXfXfXaXdXfXR..   5XdX: . l.dXdXfXfXfXfXfXfXfXfXfXfXdXfXfXdXdXfXfXfXfXfXfXfXfXfXfXfXfXdXfXfXdX^.  % ",
"=   v.fXfXdXfXfXfXfXfXfXfXfXfXfXfXfXfXfXdXfXfXdXfXfXfXfXfXfXfXfXsXfXfXsXY.  . 5XfX* X k.fXfXfXdXfXfXsXdXfXfXfXdXfXfXfXfXfXfXfXfXfXfXfXfXfXfXfXfXfXfXsXfXfXQ.  & ",
"& . C.sXdXfXfXdXfXfXfXfXfXfXfXfXfXfXdXfXdXdXfXfXfXfXfXfXfXfXfXfXfXfXsXfX'..   4XfX=   V.fXfXdXfXfXfXfXfXfXdXfXfXfXdXdXfXfXdXdXfXfXfXfXfXfXfXfXfXdXdXfXfXdX|.  @ ",
"    g.iXpXiXiXaXiXiXuXuXyXyXyXtXeXyXtXtXuXyXyXyXyXyXyXyXuXuXuXuXuXyXiXyXL.    5XfXO X a.yXyXsXiXpXuXiXuXuXtXuXyXtXrXtXyXyXyXyXrXyXyXyXyXyXuXuXuXiXiXwXpXpXL.  o ",
"i   # , 2 3 7 4 3 3 2 2 1 < , , > 1 , > < < 1 < < < 1 1 1 1 1 1 3 2 2 5 *   . iXfX3   O 3 < 4 6 6 3 3 2 3 < 1 , , , , > > < 1 < < < < 1 1 1 1 1 1 , 6 2 3 @ X & ",
"`.:     .                       .     . .   .                             . M.dXdXW.& .   o   .     .   o     .   X .   .     .                   o     . . . Z.",
"fXtXXX_.'.].'.].'.'.'.'.'.'.'.'.).K.N.M.m.A.~.{.'.'.'.'.'.'.'.'.'.].'.`.}.sXdXfXfXsXfXoX_.].'.!.N.N.M.S.).[.'.'.[.^.F.m.M.M.G.(.].'.'.'.'.'.'.'.]._.'.].). X0XdX",
"fXfXuXtXtXtXyXtXtXtXtXtXtXtXtXrXfXdXfXdXfXfXdXyXyXtXrXtXtXtXrXtXtXyXtXtXrX1X+X X.X.X<XrXyXyXqXfXfXdXfXfXdXwXuXrXrXfXdXfXdXfXfXfXtXtXtXtXtXtXtXtXrXtXyXtXrXiXfXfX",
":Xq   X   .   X                   z <XfXfX+.  .                         X .       X   X     .   .XfXdX=..     X   . ! fXfXyXH                   .       o   3 ~.",
"c   .                           .   [ dX!..                         .         .     .     X   @ #XfXfX3..   . . X   . y.fX6.                        X     .   7 ",
"    <.+X#XOXoX@XOXOXOXOXOXOX+X+X[   N fX1.  0 [.#X$X$X@XOXoX.X|.{.[.|.|.}..X.X|.XX|.oX X+XXX|.wXfXsXfXfX=X.XoXOXoXc   ' sXC   U OXOXOXOXOXOXOXOX+X+XXX@X@Xs..   ",
"#   L.dXfXdXfXaXfXfXfXfXfXfXfXfXu.X S dX0.  f fXfXfXfXfXfXfXfXdXfXfXfXdXfXfXdXfXfXaXfXfXaXfXfXdXdXfXdXfXfXdXfXfXfXP X O.fXJ X #.fXfXfXfXfXfXfXfXfXdXfXdXdX$X. @ ",
"& o k.fXsXdXsXfXdXfXfXdXdXdXfXfX<.  L fX8.X i sXdXfXfXdXdXfXfXfXdXfXfXfXfXfXdXfXfXfXsXfXfXsXsXfXfXfXfXpXfXfXdXfXfXF   O.fXJ . } fXfXfXfXfXfXfXfXdXfXdXfXdX^.  $ ",
";   v.fXfXfXfXsXfXfXfXfXfXfXfXfX3.  H sXe.  u fXfXfXfXfXfXfXfXfXfXfXfXfXfXdXdXfXdXfXfXfXfXfXdXfXfXdXfXfXfXsXfXfXfXS   +.dXI . { fXfXfXfXfXfXfXfXfXfXfXfXdX!.  % ",
"& X x.fXdXfXfXfXfXfXfXfXfXfXfXdX<.. G fX8.  u fXfXdXdXfXfXfXfXfXfXfXfXfXfXfXfXfXfXfXdXfXdXdXfXdXdXfXdXfXfXfXdXfXfXD . +.fXP   } fXfXfXfXfXfXfXfXfXfXdXdXfXR.. $ ",
"*   x.fXfXfXfXfXfXfXfXfXfXfXfXfX1.  H fXq.  u fXfXfXfXfXfXfXfXfXfXfXfXfXfXfXfXfXfXfXfXfXfXfXfXfXfXfXfXfXfXfXfXfXfXD   +.fXP   { fXfXfXfXfXfXfXfXfXfXfXfXfXQ.  $ ",
"*   x.fXfXfXfXfXfXfXfXfXfXfXfXfX1.  H fXq.  u fXfXfXfXfXfXfXfXfXfXfXfXfXfXfXfXfXfXfXfXfXfXfXfXfXfXfXfXfXfXfXfXfXfXD   +.fXP   { fXfXfXfXfXfXfXfXfXfXfXfXfXQ.  $ ",
"*   x.fXfXfXfXfXfXfXfXfXfXfXfXfX1.  H fXq.  u fXfXfXfXfXfXfXfXfXfXfXfXfXfXfXfXfXfXfXfXfXfXfXfXfXfXfXfXfXfXfXfXfXfXD   +.fXP   { fXfXfXfXfXfXfXfXfXfXfXfXfXQ.  $ ",
"*   x.fXfXfXfXfXfXfXfXfXfXfXfXfX1.  H fXq.  u fXfXfXfXfXfXfXfXfXfXfXfXfXfXfXfXfXfXfXfXfXfXfXfXfXfXfXfXfXfXfXfXfXfXD   +.fXP   { fXfXfXfXfXfXfXfXfXfXfXfXfXQ.  $ ",
"*   x.fXfXfXfXfXfXfXfXfXfXfXfXfX1.  H fXq.  u fXfXfXfXfXfXfXfXfXfXfXfXfXfXfXfXfXfXfXfXfXfXfXfXfXfXfXfXfXfXfXfXfXfXD   +.fXP   { fXfXfXfXfXfXfXfXfXfXfXfXfXQ.  $ ",
"*   x.fXfXfXfXfXfXfXfXfXfXfXfXfX2.  H fXq.  u fXfXfXfXfXfXfXfXfXfXfXfXfXfXfXfXfXfXfXfXfXfXfXfXfXfXfXfXfXfXfXfXfXfXD   +.fXP   { fXfXfXfXfXfXfXfXfXfXfXfXfX!.  $ ",
"*   x.fXfXfXfXfXfXfXfXfXfXfXfXfX2.  H fXq.  u fXfXfXfXfXfXfXfXfXfXfXfXfXfXfXfXfXfXfXfXfXfXfXfXfXfXfXfXfXfXfXfXfXfXD   +.fXP   } fXfXfXfXfXfXfXfXfXfXfXfXfX!.  $ ",
"*   x.fXfXfXfXfXfXfXfXfXfXfXfXfX2.  H fXq.  u fXfXfXfXfXfXfXfXfXfXfXfXfXfXfXfXfXfXfXfXfXfXfXfXfXfXfXfXfXfXfXfXfXfXD   O.fXP . } fXfXfXfXfXfXfXfXfXfXfXfXfX!.  # ",
"X   H.dXfXsXfXfXfXfXfXfXfXfXfXfXt.  A dX2.  f fXfXfXfXfXfXfXfXfXfXdXfXfXfXdXfXfXfXdXfXfXdXfXsXfXfXfXfXfXfXfXfXfXfXI   ..fXS . $.fXfXfXfXfXfXfXfXfXfXfXfXfX#X  O ",
"&   v ' / ` ( ^ ( ( ( ( ( ( ) ) t o M dXf.  & ^ ( ( ( / / / ^ ^ ^ / ^ Q ! ( ~ ~ ~ ~ ! W / ! ) ~ / ( ) _ _ _ _ ) ! 4    .dXY   w _ ) ) ( ( ( ( ( ( ( / ( ` B   . ",
"t..           X                 .   M.dX3X=   .         . . . .       o       . .     .     .         . .              XfX[.                        X   .   o X.",
"fXd.' ( ) ` ) ( ( ( ) ) ) ) ( / | L.fXfXsX<X*.^ ) ) ) ) ) ) ) ) ( ' / _ ) W R Y Y R E ( / ' ( _ ) ) ) ) ) ) ) ) / #.$XfXaXfX].o./ / ( ) ) ) ) ) _ ) ( ) ) ` r.fX",
"dXfXfXsXfXdXfXfXfXfXfXfXfXfXfXfXfXfXdXdXfXfXfXfXfXfXfXfXfXfXfXfXfXdXfXfXaXfXfXfXsXfXpXfXfXfXdXfXfXfXfXfXfXfXfXfXfXfXfXsXfXsXfXdXfXfXfXfXfXfXfXfXdXfXfXdXdXfXfXfX",
"dX;.k f s f f s d d d d d d f f s a p u y i s f d d d d d d d d a d d s j | tXdXfXfX=.g f a d d d d d d d d d d g a p p i i u d f f d d s d d d g s d f f j | rX",
";..   X   o   .                     .   .                         o     X   Z dXfX_       .                               X                   .     .   o     Y ",
"+   T 5.5.3.5.4.4.4.4.4.4.3.3.3.4.4.1.3.1.3.3.2.3.3.4.5.5.6.7.8.9.8.6.5.^ .   0XdX    P 4.5.9.8.8.8.7.6.5.4.4.4.2.3.2.3.2.2.3.4.3.3.3.4.4.4.4.4.4.4.4.6.3._     ",
"o   E.fXfXdXfXfXfXfXfXfXfXfXfXfXfXfXfXfXfXfXfXfXfXfXfXfXfXfXfXfXfXdXfXdX;X  . 3XfX$ . Y.fXfXdXfXfXfXfXfXfXfXfXfXfXfXfXfXfXfXfXfXfXfXfXfXfXfXfXfXfXsXfXfXfX>X  o ",
"*   v.dXfXfXfXfXfXfXfXfXfXfXfXfXfXfXfXfXfXfXfXfXfXfXfXfXfXfXfXfXdXfXsXfXR.  . 4XfX;   z.fXfXdXfXfXfXfXfXfXfXfXfXfXfXfXfXfXfXfXfXfXfXfXfXfXfXfXfXfXfXfXfXfX~.  # ",
"* X j.fXsXfXfXfXfXfXfXfXfXfXfXfXfXfXfXfXfXfXfXfXfXfXfXfXfXfXfXfXdXfXfXfXI.X   5XdX- . h.fXdXfXsXfXfXfXfXfXfXfXfXfXfXfXfXfXfXfXfXfXfXfXfXfXfXfXfXfXdXfXsXfXR.. $ ",
"*   v.fXfXfXdXdXfXfXfXfXfXfXfXfXfXfXfXfXfXfXfXfXfXfXfXfXfXfXfXfXfXfXfXsXQ..   6XfX=   c.sXdXfXfXfXfXfXfXfXfXfXfXfXfXfXfXfXfXfXfXfXfXfXfXfXfXfXfXdXdXfXfXdX^.  $ ",
"=   v.sXfXfXdXfXfXfXfXfXfXfXfXfXfXfXfXfXfXfXfXfXfXfXfXfXfXfXfXfXdXfXfXfXU..   5XdX>   l.sXfXdXfXfXfXfXfXfXfXfXfXfXfXfXfXfXfXfXfXfXfXfXfXfXfXfXfXdXfXsXfXdXQ.  $ ",
"& . x.fXdXdXfXfXfXfXfXfXfXfXfXfXfXfXfXfXfXfXfXfXfXfXfXfXfXfXfXfXdXfXdXfXY.. . 4XdX; . l.fXfXdXfXfXfXfXfXfXfXfXfXfXfXfXfXfXfXfXfXfXfXfXfXfXfXfXfXfXfXsXdXfXQ.X $ ",
"& X l.fXdXfXfXsXfXfXfXfXfXfXfXfXfXfXfXfXfXfXfXfXfXfXfXfXfXfXfXfXfXfXdXsXW.    6XfX* . l.dXsXfXfXfXfXfXfXfXfXfXfXfXfXfXfXfXfXfXfXfXfXfXfXfXfXfXfXdXdXfXsXfXQ.  # ",
"*   c.fXfXfXfXfXfXfXfXfXfXfXfXfXfXfXfXfXfXfXfXfXfXfXfXfXfXfXfXfXdXdXfXfXT..   5XfX;   k.fXfXfXfXfXfXfXfXfXfXfXfXfXfXfXfXfXfXfXfXfXfXfXfXfXfXfXfXfXfXdXfXfX!.  % ",
"*   v.dXdXfXfXdXdXfXaXfXsXfXfXdXfXfXfXfXfXfXfXfXfXfXfXfXfXfXfXfXdXfXdXfXE.  . 4XdX;   z.fXfXfXdXfXfXfXfXfXfXfXfXfXfXfXfXfXfXfXfXfXfXfXfXfXfXfXfXdXfXfXdXfXQ.. $ ",
"*   z.dXfXfXaXfXfXaXfXdXfXfXaXfXfXfXfXfXfXfXfXfXfXfXfXfXfXfXfXfXfXfXfXfXY.X   6XfX= . j.fXfXdXfXfXfXfXfXfXfXfXfXfXfXfXfXfXfXfXfXfXfXfXfXfXfXfXfXfXsXfXfXfXQ.  $ ",
"& . z.fXdXfXfXsXfXfXdXaXfXfXfXsXfXfXfXfXfXfXfXfXfXfXfXfXfXfXfXfXsXfXdXfXR.    4XfX=   x.aXfXfXfXfXfXfXfXfXfXfXfXfXfXfXfXfXfXfXfXdXdXfXfXfXfXfXfXfXfXfXfXsX~.  $ ",
"&   c.dXfXsXfXfXsXfXfXfXfXdXfXfXfXfXfXfXfXfXfXfXfXfXfXfXfXfXfXfXfXaXfXfXT.  . 5XdX-   z.fXfXfXdXfXfXfXfXfXfXfXfXfXfXfXfXfXfXfXfXfXfXfXfXfXfXfXfXfXdXfXfXfXQ.X @ ",
"# . P.fXfXfXfXaXfXpXfXfXfXfXfXdXfXfXfXfXfXfXfXfXfXfXfXfXfXfXfXfXfXfXfXaX-X    2XfX& . L.fXdXfXfXfXfXfXfXfXfXfXfXfXfXfXfXfXfXfXfXfXfXfXfXfXfXfXfXfXdXfXfXfX*X  # ",
".   &.!.W.W.W.yXfXfXdX3X!.E.R.E.E.R.R.T.Y.U.U.I.I.I.I.U.Y.R.W.Q.Q.^.!.~.3..   8XdX    #.E.~.^.W.!.!.Q.W.E.T.Y.Y.I.I.I.I.I.U.U.U.Y.Y.T.T.R.R.R.E.R.W.W.Q.Q.6.X   ",
"U X .   X . . d dXfXuXo   .   .           . . . .             .     .   .   0 aXfXb           X                                                 .           . a ",
"7XG ; $ # $ % / fXfXpXb $ $ % $ % % % % % % % % $ % % % % % $ # $ $ # % * v #XfXdX1XS : $ $ % # $ $ $ $ % % % & % % % % % % % % % % % % % % % % $ & $ % $ - m &X"
};
